<svg xmlns="http://www.w3.org/2000/svg" viewBox="0 0 3839.57 2159.68"><defs><style>.cls-1{fill:#172028;}.cls-2{fill:#31a0d6;}</style></defs><g id="Layer_2" data-name="Layer 2"><g id="Layer_1-2" data-name="Layer 1"><path class="cls-1" d="M3839,2159.68H2653.31c.27-2.68-1.74-4.19-3.15-5.95a387.37,387.37,0,0,0-35.06-38.17,5.39,5.39,0,0,0-4-3.21,87.13,87.13,0,0,0-21.22-19.08c-1.16-1.63-2.26-3.33-4.23-4.13l-9.29-7.79c2.33-2.56,5.45-1.89,8.33-1.89,3.6,0,7.21.32,10.82.47,1.26.06,3.07.1,2.64-1.69-1.73-7.14,4.68-5,7.57-6.85,7,6.16,14,12.35,21,18.48,3.94,3.43,7.14,7.8,13.35,7.81,3.15,0,5.63,2.91,6.17,5.86,1.54,8.48,8.35,13.13,13,19.4,4,5.46,9,6.66,15.45,6.65q564.84-.18,1129.69-.11c2.33,0,4.66,0,7,0,1.77,0,3.61-.48,3.54-2.56-.24-7.83,2-15.82-2.53-23.36-6.71-11.11-13-22.44-19.3-33.81-86.41-157.41-147.36-324.32-186.05-499.49-17.17-77.73-29.59-156.24-38.45-235.35q-7.73-69-11.16-138.38-4.09-84.35-3.06-168.81c.64-51.63,2.39-103.19,6.22-154.7,4.21-56.47,10-112.72,18.1-168.78q14-96.88,36.49-192.1C3636.53,422,3665,334.07,3699,248c28.63-72.52,62.64-142.51,100.4-210.7,1.38-2.49,3.81-4.69,3.14-8.15-3.91-1.31-7.89-.61-11.8-.61q-598.32-.06-1196.66,0a41.5,41.5,0,0,1-5,0c-4.69-.57-8.08,1.38-11.52,4.48-31.75,28.66-66.46,53.35-102.93,75.57-76.66,46.7-158.94,80.27-245.39,103.86-7.11,1.94-10.93,5.44-14.1,12-16.81,35.13-31.76,71.06-46.41,107.11-5.44,13.38-10.23,27-15.28,40.46,3.79,1.93,6.82,1.94,9.77,2.16,36.2,2.72,72.22,7,108.14,12.24,47.1,6.85,93.87,15.37,140.25,26.11,88.28,20.44,174.25,48,257.3,84.31,86.9,38,169.14,84,243.87,142.85,48.38,38.11,92.51,80.4,129.18,130.07C3056.17,789,3070,808.65,3080,830.52c10.24,22.36,19.4,45.22,29.11,67.83a61.83,61.83,0,0,1,4.1,15.36c2.94,19.41,6.12,38.77,9.08,58.18,2.42,15.78,6,31.52,6.69,47.39,1.46,33.43-3.09,66.42-10.79,99-18.95,80.12-60.67,147.08-118.76,204.4-65.3,64.42-144,107.28-229.81,136.44-100,34-203.57,48.87-309.2,49.06-42,.08-83.88-3-125.83-4.31-36.63-1.14-73.23-2.85-109.84-4.39q-82.87-3.48-165.73-7.06c-2.93-.13-6-.89-9.12.85,7.75,54.26,17.46,108.27,29.53,161.85,16.53,73.39,36.67,145.76,61.75,216.73,2.16,6.13,4.61,9.39,12,10.46a1045.89,1045.89,0,0,1,147,32.35c10.5,3.09,20.6,7.53,31.48,9.29,5.54,3.2,11.27,5,17.86,4,6-1,10.84,1.37,14.8,6.1,7.81,9.31,8.73,20.28,8.19,31.69-13-4.65-25.69-10.42-39-14.2-3.07-2-6.54-2.81-10.05-3.52-7.88-2.66-15.7-5.48-23.63-8-94.36-29.3-191.32-43.1-289.71-48-41.92-2.08-83.9-2-125.87-1.61-33.29.34-66.59,1.31-99.8,3.85A1272.3,1272.3,0,0,0,1638.1,1914c-43.12,8.4-85.64,19.17-127.13,33.77-3.67,1-7.47,1.67-10.82,3.64l-38.09,14.1c-1.9-8.82.47-17.11,3.49-25.2,2-5.38,14-13,19.7-12.37,6.25.7,11.68-.94,16.88-4.08,5.55.32,10.28-2.52,15.3-4.12,52.41-16.71,105.93-28.68,160.27-37,7.37-1.12,10.3-4,12.51-11a2133.54,2133.54,0,0,0,60-232.71c9-45.73,16.19-91.73,23-137.82,1.29-8.74,1.09-8.65-8-8.26q-54.92,2.4-109.82,4.65-88.87,3.49-177.74,6.79c-18.64.71-37.31,1-55.91,2.26-48,3.2-95.92,1.18-143.73-3.19a1024.14,1024.14,0,0,1-114.38-17.48c-80.36-16.67-156.6-44.18-227.5-85.84-69.53-40.84-127-94.35-170.42-162.54-34.23-53.77-53.54-112.75-59.38-176.06-1.61-17.49-3.25-35.19-.45-52.82,3.54-22.34,7.86-44.6,10.41-67,3.12-27.49,11.65-53.06,23.48-77.8,3.3-6.89,6.21-14,9-21.09,6.13-15.56,14.3-30,23.3-44C808.61,742,854.43,693.53,906.74,651c52.6-42.78,109.21-79.37,169.06-111.17a1347.37,1347.37,0,0,1,222.07-93.44,1490.11,1490.11,0,0,1,174.77-44.81c52-9.93,104.26-18.1,157-23.37,7.47-.75,14.92-1.72,22-2.55.92-2.94-.15-4.75-.87-6.55-21.43-53.8-45.44-106.44-71.22-158.3-2.47-5-5.85-7.23-11-8.83a928.48,928.48,0,0,1-136.25-53.75c-62.71-30.8-121.82-67.18-174.11-113.88-4.87-4.35-9.64-6-16-6q-594.8.16-1189.6.1H41.66c2.41,4.54,4,7.73,5.77,10.85A1767.86,1767.86,0,0,1,143.58,241a1933.13,1933.13,0,0,1,99.9,333.07c9.27,45.32,17.88,90.77,24,136.62,7.24,53.79,13.13,107.71,17.07,161.88,4.3,59.16,6.39,118.4,6.79,177.67.39,56.28-1.62,112.54-5,168.74-2.59,43.57-6,87.06-11.12,130.38q-10.43,87.73-27.46,174.5c-16.33,82.32-37.13,163.48-63.73,243.07a1865.94,1865.94,0,0,1-160.51,353.8c-1.43,2.44-4.08,4.52-3,8.77H1156.79c2.67,0,5.33,0,8,0,2,0,4,.09,5.44-1.75,5.66-7.13,14.2-12.15,15.37-22.53.5-4.48,3.33-9.21,8-8.91,7.13.45,10.78-3.92,15.15-7.81,6.47-5.76,13-11.47,19.48-17.2a35.35,35.35,0,0,0,5.57,2c5,.93,2.42,3.86,1.79,6.46,7.48.91,15.15-2.29,22.4,1.27l-8.89,7.1a14.57,14.57,0,0,0-5.83,5.29c-7,5.55-14,11.2-19.75,18.1a7.74,7.74,0,0,0-4.31,3.93c-14.21,13.84-28.09,28-39.54,44.26H0V.68C4.31.52,8.62.2,12.94.2q614.79,0,1229.58,0a52.19,52.19,0,0,0,6,0c6.4-.74,11.12,1.47,15.76,6.19,15.42,15.71,32.32,29.79,49.92,43,89,66.8,188.34,112.09,295.21,141.41,61.73,16.94,124.61,27.87,188.35,34.36,52.8,5.38,105.65,7.63,158.64,5.66a1263.57,1263.57,0,0,0,179.51-19.87c94.56-17.21,184.93-46.61,270.41-90.73,60.08-31,116.22-67.66,164.76-115.1C2575.75.5,2580.7.14,2586.4.14Q3207.21.2,3828,.21c13.42,0,11.48-1.91,11.49,11.68q0,1068.44,0,2136.85C3839.49,2152.39,3839.17,2156,3839,2159.68Zm-1920.83-698c10.38,0,22-.35,33.7.07,32.29,1.14,64.56,2.74,96.85,3.91q96.38,3.49,192.75,6.71c24.3.85,48.6,1.84,72.9,2.64,39,1.28,77.91,3.38,116.86,3.45,67.06.1,133.65-5.63,199.64-18.25,74.58-14.26,146.3-36.65,213.66-72.12,59.85-31.5,113.27-71.08,155.79-124.29,61.87-77.43,90.61-165.44,84.35-264.58a130.89,130.89,0,0,0-5-29.41c-8-26.76-15.15-53.76-23-80.56-4.09-14-7.42-28.21-14.22-41.4-20.6-40-46.89-75.82-77.25-108.79-53.24-57.79-115.22-104.75-182.36-145C2682.44,533.91,2575.3,489.51,2462.66,458a1651,1651,0,0,0-189-41c-37.15-5.83-74.56-9.9-112.06-13.18s-75-6.07-112.66-7c-64.94-1.66-129.9-1-194.85-.82-53.32.17-106.57,1.55-159.72,6.17-35.17,3.06-70.35,6-105.3,10.84-58.67,8.14-116.84,18.88-174.32,33.39-109.37,27.6-214.44,66.27-314,119.54-72.29,38.66-139.59,84.33-199.57,140.31C856.49,747.88,818.72,795,790.9,849.65A110.84,110.84,0,0,0,782.82,870c-7.46,26.56-15.19,53-22.71,79.59-3.44,12.14-8.42,24.18-9.58,36.56-2.56,27.17-3.53,54.5-.22,81.78,7.91,65.11,31.24,124.19,69.26,177.51,35.94,50.4,81.7,90.23,134.17,122.41,79.86,49,167.2,77.77,259,94.26,32.48,5.84,65.15,10,98,12.62,33.88,2.73,67.82,4.63,101.81,3.62q98.39-2.89,196.76-6.47c44.6-1.55,89.19-3.84,133.81-5C1801,1465.31,1858.89,1460.92,1918.17,1461.68Zm-730.61,656.1c-1.71,4.9-.55,7.95,1.78,13C1189.51,2125.36,1190.81,2121.94,1187.56,2117.78Z"/><path class="cls-2" d="M2449.71,1971.94c20.9-13.46,38.55-3.6,50.24,16,3,5.06,4.85,10.82,7.23,16.26q2.47,16,4.94,32c3.26,23.14,25.13,38,46.68,31.76,2.15-.39,4.51.78,6.87-1.18-1.38-2.13-5.52-3.47-3.11-7,2.54-3.75,6,.11,8.64-.58,3-2.72,0-8.58,5.62-9.37a2.36,2.36,0,0,1,2.41,2c2,4.49,1.42,9.41,2.37,14.07l-.6.06.47-.17,8.45-6.39c5.07-1.91,5.46-1.63,5.39,3.89a20.58,20.58,0,0,0-7.46,8.65l13.06-3.84c1.88.69,6.22-2.27,4.84,3.26-2.89,1.85-9.3-.29-7.57,6.85.43,1.79-1.38,1.75-2.64,1.69-3.61-.15-7.22-.48-10.82-.47-2.88,0-6-.67-8.32,1.9-10.71-.26-21,3.8-32.66,1.81,8.93,14,14.69,16.78,27.72,14.53,5.87-1,10.05-4.75,14.22-8.56,2,.8,3.07,2.5,4.23,4.13-1,1.08-3.36,2.22-1.3,3.75a38.07,38.07,0,0,1,9,9.12c3.25,4.8,7.65,7.16,13.55,6.21a5.39,5.39,0,0,1,4,3.21c-8.77,3.68-15.5.65-21.07-6.35a69.72,69.72,0,0,0-5.24-6c-3-3-6.21-4.44-10.71-2.21a29.26,29.26,0,0,1-12.56,2.88c-8.46.09-15.76-2.25-21-9.28-5.9-7.85-12.43-14.72-22.79-16.53-3.69-.65-6.51-3.25-9.25-5.71-11.85-10.69-18.5-24.18-21.16-39.73-.62-3.6-.91-7.26-2.21-10.72,1.17-7.6.33-15-1.06-22.59-1.75-9.46-7.9-14.32-16.18-16.76A77.7,77.7,0,0,1,2449.71,1971.94Z"/><path class="cls-2" d="M1238.48,2063.32c-.37-5.51,0-5.76,5.49-4.36,3.24,1.27,4.86,5.15,9.17,5.6L1254,2052l.13-.51.52,0-.2.13,3-1.79c5.57.92,3,6.59,5.49,9.36,2.75.47,5.68-2.72,8.29.27,2.76,3.19-1.79,5.29-2.3,8.35h6.81c17,5.41,41.2-7.39,45.34-24.07.54-2.18,1.33-4.6-1-6.42,3.2-2.51,3.48-6.06,3.7-9.76a100.1,100.1,0,0,1,3.68-23.51c3.14-9.52,7-18.62,13.9-26.19,11.81-12.94,27.53-16.4,42.75-5.88a62.08,62.08,0,0,1-20.2,10,26.44,26.44,0,0,0-8.93,4c-8.93,6.6-13.13,22.43-9.43,35.78-2,2.53-1.62,5.61-2.09,8.53-2.47,15.44-8.63,29.1-19.77,40.31-4.3,4.33-9.3,7.65-15.23,8.94a21.8,21.8,0,0,0-13.73,9c-1.15,1.61-2.64,3-3.83,4.57-8.1,10.77-19.08,13.25-31,8.83-8.45-3.16-13.53-1.15-18.53,5.61-5.44,7.34-12.23,12.41-22.14,7.77a7.74,7.74,0,0,1,4.31-3.93c4.27,2.3,7.72.45,10.56-2.53,3.81-4,6.93-8.56,11.55-12,2.63-1.93-1-2.7-2.36-3.61a14.57,14.57,0,0,1,5.83-5.29c5.24,9.74,14.33,10.62,23.77,9.83,8.64-.73,13-7,18.24-15.25-12.5,2.57-22.67-1.13-33.12-1.68-7.25-3.56-14.92-.36-22.4-1.27.63-2.6,3.17-5.53-1.79-6.46a35.35,35.35,0,0,1-5.57-2c-1-5.54,3.36-2.4,5.27-3.23,3.68,1.63,7.41,3,12.41,2.87A19.6,19.6,0,0,0,1238.48,2063.32Z"/><path class="cls-2" d="M1444.12,1946.77c2.57-3.59,3.3-7.94,4.83-11.94,2.93-7.68,8.38-12.49,16-15.15,10.33-3.62,20.66-4.37,31.1-.41,2.54,1,5,1.85,6.07,4.63-5.19,3.14-10.62,4.78-16.87,4.08-5.69-.64-17.69,7-19.7,12.37-3,8.09-5.39,16.38-3.49,25.2-.74,3.22-1.59,6.43-2.22,9.67a47.79,47.79,0,0,1-48.7,38.48c-10.78-.48-19.51-5.77-27.82-12a121.15,121.15,0,0,1,22-10.9,23.57,23.57,0,0,0,14.49.71c8.28-2,16.27-5.27,17.68-15.52C1443.21,1967.05,1442.69,1956.68,1444.12,1946.77Z"/><path class="cls-2" d="M2331.75,1923.91c1.42-3,4.31-3.81,7.13-4.84,11.55-4.25,22.89-2.88,33.73,2a22.65,22.65,0,0,1,12.93,14.31c1.14,3.79,2.67,7.46,4,11.19,1.7,9.84,2.26,19.93,6.39,29.24.13,4,2.82,6.59,5.46,9.06,8,7.47,17.45,8.62,27.67,5.88a122.85,122.85,0,0,1,21.29,10.91c-20.06,17.07-40.53,15-60.09.61-9.27-6.83-14-16.71-16.29-27.77-.62-2.92-.93-5.9-1.39-8.85.54-11.41-.38-22.38-8.19-31.69-4-4.73-8.78-7.1-14.8-6.1C2343,1929,2337.29,1927.11,2331.75,1923.91Z"/><path class="cls-2" d="M1511,1947.81c-.8,8.15,4.41,12.75,10.24,16.77,3.25,2.24,7,3.8,10.36,5.89,2.78,1.72,5.6,3.21-.09,5.61-3.23,1.36,1.94,3.34,1.17,5.65-.85,3.52-7.24-5-6.8,3.11.13,2.29-4.37-2.38-5.53-.13-2,3.88-3.22,5.75-6.44,1-2-3-2.3.45-2.88,1.32-1.39,2.07-2.87,4-5.57,2.59-2.33-1.18-2.82-3.71-2.56-6a70.23,70.23,0,0,1,1.79-7.73c2-8.78,1.07-17-4.52-24.42C1503.5,1949.48,1507.3,1948.82,1511,1947.81Z"/><path class="cls-2" d="M2333.55,1951.46c-5.19,8.39-5.65,17.4-3.57,26.76a43,43,0,0,1,1.3,6.75c.11,2.07-1.32,4.94-2.93,4.54-4.28-1.07-8.3-3.13-12.91-2.21-1-4-3.71-2.38-6.22-2-2.31.32-1-5-4.69-3.24-2.08,1-3.17.31-2.45-2.11.18-.63.9-1.18.88-1.75-.26-7.52-.28-7.53,5.71-10.93,7.65-4.36,14.77-9.11,14.83-19.29C2327,1948.65,2330.48,1949.48,2333.55,1951.46Z"/><path class="cls-2" d="M1187.56,2117.78c3.25,4.16,2,7.58,1.78,13C1187,2125.73,1185.85,2122.68,1187.56,2117.78Z"/><path class="cls-1" d="M2450.37,2001.67a122.11,122.11,0,0,0-21.29-10.9,295.72,295.72,0,0,0-33.13-15c-4.13-9.31-4.69-19.4-6.39-29.24,16.44,5.18,31.73,13.07,47.43,20,4.2,1.86,8,4.68,12.72,5.34a77.7,77.7,0,0,0,22.12,10.6c8.28,2.44,14.43,7.3,16.18,16.76,1.39,7.56,2.23,15,1.06,22.59C2476,2015.47,2463.92,2007.15,2450.37,2001.67Z"/><path class="cls-1" d="M1444.12,1946.77c-1.43,9.91-.91,20.28-6.66,29.21a308.65,308.65,0,0,0-32.17,14.81,121.15,121.15,0,0,0-22,10.9c-13.13,5.71-25.12,13.59-37.81,20.14-3.7-13.35.5-29.18,9.43-35.78a26.44,26.44,0,0,1,8.93-4,62.08,62.08,0,0,0,20.2-10c13.87-4.43,26.36-12,39.86-17.28C1430.67,1952.08,1437,1948.45,1444.12,1946.77Z"/><path class="cls-1" d="M2512.12,2036.24q-2.48-16-4.94-32c24.26,13.61,48,28,69.64,45.63-5.62.79-2.64,6.65-5.62,9.37-2.67.69-6.1-3.17-8.64.58-2.41,3.55,1.73,4.89,3.11,7-2.36,2-4.72.79-6.87,1.18C2544,2056.36,2528.18,2046.1,2512.12,2036.24Z"/><path class="cls-1" d="M2581.61,2065.93c-1-4.66-.37-9.58-2.38-14.07a28.58,28.58,0,0,1,10.69,7.57l-8.45,6.39Z"/><path class="cls-1" d="M2600.91,2068.13l-13.06,3.84a20.58,20.58,0,0,1,7.46-8.65Q2598.1,2065.73,2600.91,2068.13Z"/><path class="cls-1" d="M1275.72,2067.82h-6.81c.51-3.06,5.06-5.16,2.3-8.35-2.61-3-5.54.2-8.29-.27-2.45-2.77.08-8.44-5.49-9.36,8-7.9,17.75-13.48,27-19.59,14-9.23,27.75-18.93,43-26.19a100.1,100.1,0,0,0-3.68,23.51c-.22,3.7-.5,7.25-3.7,9.76C1304.88,2047,1289.79,2056.65,1275.72,2067.82Z"/><path class="cls-1" d="M1254,2052l-.85,12.53c-4.31-.45-5.93-4.33-9.17-5.6Z"/><path class="cls-1" d="M1238.48,2063.32a19.6,19.6,0,0,1,7.45,7.59c-5,.14-8.73-1.24-12.41-2.87Z"/><path class="cls-1" d="M1254.44,2051.63l.2-.13Z"/><path class="cls-1" d="M2581.47,2065.82l-.47.17.6-.06Z"/></g></g></svg>