<svg xmlns="http://www.w3.org/2000/svg" viewBox="0 0 189.76 328.64"><defs><style>.cls-1{fill:#2a9dd5;}.cls-2{fill:#fbac09;}.cls-3{fill:#313330;}.cls-4{fill:#6ee54b;}</style></defs><g id="Layer_2" data-name="Layer 2"><g id="Layer_1-2" data-name="Layer 1"><path class="cls-1" d="M184.78,233.94c11.57,17.22,2,39.17-18.45,42.85-9,1.63-17.09,1.32-22.93-6.88-4.48-6.28-4.94-13.71-3.79-20.74.47-2.89.46-5-.87-7.06-3.33-5.2-4.18-10.85-3.73-16.85.25-3.38-.21-5.6-3.9-7.91-9.81-6.11-11.16-16.44-11.2-27.08,0-2.73,2.59-7.15-3.32-7.49-5.45-.32-7.49,1.59-7.77,7.59a49.4,49.4,0,0,0,0,7c1.91,20.28,1.61,40.57.46,60.87-.37,6.54,1.93,12.24,5.53,17.68,3.08,4.65,6.82,9,8,14.76,1.57,7.71-1,10.91-8.62,9.82a70.3,70.3,0,0,1-8.18-2.18c-1.8,5.14-.83,10.69-3.23,15.43-1.35,2.65-2,5.66-3.53,8.19-3.32,5.59-7.44,7.56-12.21,6.38-3.9-1-8.26-7.17-8.2-12.29.06-5.55.52-11.1.86-17.64-5.7,2.95-10,6.91-16.19,6-5.84-.85-7.92-2.7-8.46-8.61-.62-6.94,2.47-12.56,5.65-18.32,7.77-14.05,9.21-29.23,7.38-44.89-.18-1.59-.47-3.28-2.9-4.09-3.34,4.37-5.15,9.67-6.39,14.94-4.63,19.65-16.08,33.65-33.55,43.44C15.2,292.51.58,286.37.08,272.57c-.53-14.64,1.54-29,9.09-41.56,6.17-10.25,15.61-18.26,24.75-25.93,7.46-6.26,17.4-5.13,26.58-4.9,6.53.17,12-2.2,17.53-5.2,3.93-2.12,4-5,3.3-8.3-.65-3.14-3.51-2.39-5.72-2.51-1.66-.09-3.33,0-5,0-11.88-.32-20-6-24.08-17.17a63.1,63.1,0,0,1-4.29-24.35c.33-9.2,4.79-15.59,12.3-20.19,17.21-10.52,17.22-10.8,6.74-27.81-1.67-2.7-4.4-4.61-4.88-8.4-.78-6.09-2.54-10.63-11.08-11.13C37.76,74.63,35,66.86,35.43,55.8c2.64-.42,2.92-3.31,4.78-4.55,6.64,15.86,24.15,15,33.12-.4,5.86-10,7.39-22-3.68-32.46-1.14-2.15-4.92-1.22-5.15-4.43v.37l2.15-2c10.68-3.79,20.3.25,23,11.22,1.73,7,3.88,13.94,5.2,21.09,1.72,9.29,1.53,18.49.67,27.8-.43,4.6-1.06,9.25.4,13.88,2.61,8.26,9.69,10.13,15.66,3.82a20.83,20.83,0,0,0,4.19-6.59C120,72.75,128,66.12,139.18,64.77c7-.83,8.67-6.36,12.38-10.16,1.4-1.44.2-3.15-.62-4.55-3.94-6.78-11.85-7.73-17.46-2.12-.7.7-1.28,1.53-1.93,2.29-1.78,2.06-3.69,4.12-6.74,3.13-2.1-.68-4.63-8.08-3.61-10.41.78-1.78,2-3.37,3-5.08.79-1.44,1.48-2.94,2.34-4.68a48.84,48.84,0,0,0-4.93-4.5c-8.66-6.06-11-15.8-5.26-22.47,6.56-7.61,18.16-8.69,24.4-.72,25.16,32.1,45.07,66.37,40.07,109.58a68.34,68.34,0,0,1-2.23,10.67c-1.83,6.45-5.79,10.82-13,12.28-2.94-8.07-.33-15.5,1.47-22.89,2.21-9.1,3.34-18.06-.51-27-.7-1.62-1.71-3.06-3.28-3.43-2.28-.54-3.69,1.26-4.67,3-2.42,4.27-1.75,9-1.7,13.64,0,4,.79,8-.55,11.9-.45,1.31-1.09,2.66-2.45,2.88a3.55,3.55,0,0,1-3.87-2.52,27.85,27.85,0,0,1-.77-5.88c-.31-3.31-.29-6.67-.91-9.92a5.92,5.92,0,0,0-6.43-5c-2.38.22-3,3-3.24,5.49-.35,4-1.2,7.88-1.87,11.8-1.7,9.87-7.06,16.64-16.64,20.3-1.86-3.3-1.92-6,.11-8.65,2.84-3.75,2.74-8.65,4.82-12.75.69-1.37.39-3.77-1.18-4.45a5.89,5.89,0,0,0-4.73.51c-9,5.79-14.7,25.84-10.31,35.78a62,62,0,0,0,4.85,9.8c6.4,9.53,13.15,17.79,26.94,16.2,14.22-1.64,28.29,5.24,30.51,25.36.47,4.26,3.46,5.49,6,7.22a24.71,24.71,0,0,1,7.54,32.81c-1.83.81-1.83,2.48-1.95,4.11a2.42,2.42,0,0,0-2.06,2,2.35,2.35,0,0,0-2,2c-.63.58-2.41-.78-2.16,1.27l2-1.38a2.41,2.41,0,0,0,2-2,2.55,2.55,0,0,0,2.06-2ZM80.73,76.39a4.65,4.65,0,0,0-4.14,1.87,6.39,6.39,0,0,0-1.73.65c-.51.38-.13.89.69.64.42-.12.63-.91,1-1.4,1.62-.07,3.12-.4,4.11-1.86a5.51,5.51,0,0,0,.57-.5,1,1,0,0,0,.11-.44C81.1,75.7,80.92,76.05,80.73,76.39ZM17.29,250.26c.26,3.57.95,6.63,4,8a10.32,10.32,0,0,0,11.94-2.33c8.81-9,11.64-20.58,11.94-32.72.12-4.72-3.42-6.4-7.53-4C25.53,226.17,20.61,237.93,17.29,250.26Zm59.59-83.6c7.32.23,12.34-5.64,12.56-14.71.21-8.22-5.54-14-14.3-14.52-8.33-.44-15.56,4.1-16,10C58.54,156.82,67.33,166.36,76.88,166.66ZM135.35,16.4c.24-5-3.25-8.24-8.83-8.27-4.33,0-6.2,2-6.22,6.87a8,8,0,0,0,7,8.05C131.79,23.5,135.14,20.72,135.35,16.4Zm32.22,48.12c-.73-2.6-1.06-6-5-6-2.56,0-6.76,5.79-6.76,9.07s2.09,4.57,5.23,4.43C164.92,71.81,167.64,68.84,167.57,64.52ZM94.63,112.44c-.14-2.62-1.46-4.29-4.18-4.6-3.62-.41-4.67,2.13-4.9,4.9-.16,2.11,1,3.92,3.45,4C91.91,116.79,94.3,116,94.63,112.44Z"/><path class="cls-2" d="M69.65,18.39c11.07,10.5,9.54,22.42,3.68,32.46-9,15.36-26.48,16.26-33.12.41q0-7.12,0-14.26l.72-5.14c2.57.51,3.32-1.6,4.52-3.12C51.64,20.92,59.26,16.42,69.65,18.39Zm-15,21.74A2.1,2.1,0,0,0,56.42,38c1.25-1.92,2.65-3.77,3.71-5.79s2.33-4.37,0-6.24c-1.77-1.43-3.77-.07-5.56.51-2,.64-3.07,2.3-3.83,4.16-2.57,2.32-2.25,5.44-1.68,8.23.71,3.38,2.81,4.07,5.43,1.38Z"/><path class="cls-3" d="M69.65,18.39c-10.39-2-18,2.53-24.19,10.35-1.2,1.52-2,3.63-4.52,3.12,3.47-6.85,8.46-12,16.18-13.78,3-.68,4-4.46,7.38-4.11C64.73,17.17,68.51,16.24,69.65,18.39Z"/><path class="cls-4" d="M40.22,37q0,7.13,0,14.26c-1.86,1.23-2.14,4.12-4.78,4.54C39,50,38.1,43.13,40.22,37Z"/><path class="cls-3" d="M182.72,236.33c.12-1.63.12-3.3,1.95-4.11a3.06,3.06,0,0,0,.11,1.72l-2.17,2.27Z"/><path class="cls-3" d="M66.64,12.34l-2.15,2C64.48,12.88,65.6,12.66,66.64,12.34Z"/><path class="cls-2" d="M17.29,250.26c3.32-12.33,8.24-24.09,20.36-31.11,4.11-2.38,7.65-.7,7.53,4-.3,12.14-3.13,23.67-11.94,32.72a10.32,10.32,0,0,1-11.94,2.33C18.24,256.89,17.55,253.83,17.29,250.26Z"/><path class="cls-2" d="M76.88,166.66c-9.55-.3-18.34-9.84-17.71-19.21.41-5.92,7.64-10.46,16-10,8.76.47,14.51,6.3,14.3,14.52C89.22,161,84.2,166.89,76.88,166.66Z"/><path class="cls-2" d="M135.35,16.4c-.21,4.32-3.56,7.1-8,6.65a8,8,0,0,1-7-8c0-4.83,1.89-6.9,6.22-6.87C132.1,8.16,135.59,11.44,135.35,16.4Z"/><path class="cls-2" d="M167.57,64.52c.07,4.32-2.65,7.29-6.52,7.46-3.14.14-5.22-1-5.23-4.43s4.2-9.12,6.76-9.07C166.51,58.55,166.84,61.92,167.57,64.52Z"/><path class="cls-2" d="M94.63,112.44c-.33,3.55-2.72,4.35-5.63,4.28-2.49-.06-3.61-1.87-3.45-4,.23-2.77,1.28-5.31,4.9-4.9C93.17,108.15,94.49,109.82,94.63,112.44Z"/><path class="cls-3" d="M76.49,78.15c-.31.49-.52,1.28-.94,1.4-.82.25-1.2-.26-.69-.64a6.39,6.39,0,0,1,1.73-.65Z"/><path class="cls-3" d="M80.61,76.29c-1,1.46-2.49,1.79-4.12,1.86l.1.11a4.65,4.65,0,0,1,4.14-1.87Z"/><path class="cls-3" d="M178.57,240.24l-2,1.38c-.25-2.05,1.53-.69,2.16-1.27Z"/><path class="cls-3" d="M178.69,240.35a2.35,2.35,0,0,1,2-2l-.11-.11a2.41,2.41,0,0,1-2,2Z"/><path class="cls-3" d="M180.66,238.33a2.42,2.42,0,0,1,2.06-2l-.11-.12a2.55,2.55,0,0,1-2.06,2Z"/><path class="cls-3" d="M80.73,76.39c.19-.34.37-.69.56-1a1,1,0,0,1-.11.44,5.51,5.51,0,0,1-.57.5Z"/><path class="cls-4" d="M50.75,30.62l-.36,5.79c-.19,3,1.35,4.05,4.11,3.82-2.62,2.69-4.72,2-5.43-1.38C48.5,36.06,48.18,32.94,50.75,30.62Z"/><path class="cls-4" d="M54.64,40.13c.6-.71,1.19-1.43,1.78-2.15A2.1,2.1,0,0,1,54.64,40.13Z"/></g></g></svg>