<svg xmlns="http://www.w3.org/2000/svg" viewBox="0 0 219.7 307.74"><defs><style>.cls-1{fill:#2a9dd5;}.cls-2{fill:#fbac09;}.cls-3{fill:#6ee54b;}.cls-4{fill:#313330;}.cls-5{fill:#020202;}</style></defs><g id="Layer_2" data-name="Layer 2"><g id="Layer_1-2" data-name="Layer 1"><path class="cls-1" d="M112.75,164c-4.63,7.18-10.06,14-9,23.45A38,38,0,0,0,106,197c.69,1.79,1.08,4.17-.68,5.58s-3.84.3-5.65-.44a24,24,0,0,1-3.34-2c-.39-.34-.18-2.29-1.27-.57-.32.5.5,1,1.23.61-.47,1.7.12,3.24.61,4.83,2.45,7.92,2.41,7.95-6.11,6.43-.76,3.42,2.8,5,3.32,7.89.59,3.18.06,4.75-3.87,4.94-2.7.13-4.27-3.68-7.23-1.39-1.28,3.46,2,5.17,3.21,7.66,3.47,7.36,2.85,8.54-5.71,9.38-.65-2.31,0-5.3-3.38-6.33-1.25,4.25,1.44,7.3,3.1,10.64l0,0,2.16,3.93c3.69,1.5,4.51,5.51,7,8.14,3.95,4.21,3.39,4.91-4.48,6.87,3.46,3.22,7,5.82,9.62,9.13,3.73,4.7,2.85,8-2.23,11.95-1.23-.13-2.47-.2-3.68-.42-1-.17-2.09-.37-2.53.55-.79,1.62.82,2.06,1.78,2.65a17.48,17.48,0,0,0,2.6,1.06c.31.11.71.14.92.36,2.44,2.54,6.7,5.07,4.13,8.9-1.91,2.87-6.15,1.44-9.33.43-15.55-4.9-28.05-14.08-36.66-27.86-7-11.21-12.1-23.11-14.27-36.6-2.12-13.18-6.76-26-10.81-38.81a34.44,34.44,0,0,0-6.56-11.82C10.46,174.06,7.28,163.14,3.32,153a51.26,51.26,0,0,1,.27-37c4.05-10.6,7-21.56,11.24-32.13a70.71,70.71,0,0,0,4.72-18.5c1-8.9,3.87-17.93,9.66-25.43,2.57.26,2.94,2,3.08,4.17s-.66,4.64,1.33,6.46C37.78,66.7,48.52,76,62.35,75.54c17.18-.6,30-11.26,32.81-27.2,4,10.27.75,20.28-1.52,30.16-1.82,7.94-2.5,15.48.17,23.42,1.23,3.63.44,7.91.74,11.88.81,10.47,3.41,20.25,11.67,27.54,7,6.18,14,6.79,21.37.87,5.64-4.55,6.49-11.72,6-18.41-.44-6.42-2.12-12.13-8.72-16.4-14.52-9.4-14.19-24.28-11.46-39.14.87-4.77,2-9.72,5.44-13.72,8.51-10,16.26-11.29,28.67-7.94,12,3.24,27.18,18.6,23.38,38.14-2.47,12.74-7.79,22.79-19.07,29.63-5.39,3.28-6.82,12.37-3.81,19.87,2.83,7,7.48,9.95,14.51,9.3,5.77-.54,10.64-1.65,13.15-8.22,1.71-4.5,5.71-7.34,10.74-9.46s8-1.35,11,2.47c-2.57,3.87-4.89,7.93-7.74,11.57-8,10.21-12.5,21.95-14.51,34.54-1.75,11-5,22-2,33.37a6,6,0,0,0-4.65,1.17c-6.47,4.29-10.94,2.49-11.78-5.38-.8-7.44-.3-14.92,3.93-21.61,2.62-4.15,1.36-7.46-2.6-9.91-6.46-4-10.07-2.27-11.83,5.39-3,12.95-.13,25.73,1.33,38.47,1.28,11.14,5,21.91,6.09,33.13.67,6.75.29,13.27-3,19.32-.94,1.71-2.25,3.51-4.63,2.86-1.91-.52-2-2.28-2.17-4s.52-3.86-1.73-6.11c-2.63,6.76.15,12.5,1.71,18.2,2,7.28,4.79,14.41,5.17,22,.23,4.64-2.08,3.9-4.41,1.18-1.58-2.81.63-6.8-2.83-8.92-2,.46-.9,3.49-2.35,3.62-3.84.34-3.88.09-4.26,1.83-.35,1.59-.64,3.18-1,4.77-5-.6-10.77,2.75-14.39-4.46-1.27-2.52-4.46,2.52-8.22,2.55-3.72-6.94-.72-13.6,2.13-19.94,2-4.49,4.59-8.71,6-13.47.94-3.19,2.1-6.36.07-9.54-2.59.21-3,2.09-3.55,4.11-1,3.43-3.67,3.05-6.45,2.82-3.28-.28-3.45-2.7-3.71-4.93-.72-6.3-1.1-12.67,2.63-18.28,9-13.58,12.84-29.24,16-44.7,2.09-10.21,5.65-21.64-2.18-31.66C120.44,160.78,116.58,162.45,112.75,164Zm-31.57-3.39c3.78.13,7.07,5.25,10.25,1,2.54-3.37-.61-6.89-1.9-10.19a12.77,12.77,0,0,0-1.62-2.51C77.51,134,74.32,117.45,76.07,99.64c.38-3.94,1-8-.9-11.78-1.07-2.12-2.64-4.29-5.38-3.4s-1.38,3.12-1.05,5c1.11,6.36.52,12.57-2.62,18.3A8.31,8.31,0,0,1,57,112.33c-3.67-.56-4.68-3.28-5.31-6.36a69.61,69.61,0,0,0-1.94-8.75C47.46,90.78,42,90,37.6,95.37a14.19,14.19,0,0,0-2,3.43c-3.6,8.56-8,16.91-10.52,25.78-4.52,15.61-5.88,31.39,2.37,46.58,2.67,4.92,4.92,10.09,7.12,15.25,5.11,12,8.39,24.5,12,37A41,41,0,0,0,58.35,242.8c2.44-1.51,2.26-2.87,2-4.14-1-5.38-.92-5.36,1.77-12.55a7.41,7.41,0,0,0,0-3.91c-.42-1.93-1.34-3.75-1.72-5.69-.24-1.19-.17-3.14,1.61-2.87,6.3,1,4-3.39,4-6.27,0-1.89-1.78-4.62.41-5.49,7.89-3.16,4.61-9,3.65-13.89,2.15-2.92,5.61-.18,7.53-2.68,1.08-3.72-2.2-6.79-1.85-10.47,7.25-1.06,7.36-1.09,5.56-7.11C80.7,165.51,79.52,163.46,81.18,160.58Zm63.63-74.8c.49,2,.92,5.7,2.27,9,1.69,4.14,5.52,4.7,8.65,1.47,4.46-4.6,5.27-10.39,4.64-16.47a4.38,4.38,0,0,0-2.86-3.66C150.81,73.12,144.63,77.05,144.81,85.78Zm-4.7,74.64c3.46-.74,4.43-3.33,4.23-6.63s-1.77-5.69-5.51-5.65-5.12,2.68-5.24,5.91A6.58,6.58,0,0,0,140.11,160.42Zm-13-92.9c2.86-.09,7.74-6.7,7-9.61a2.24,2.24,0,0,0-1.16-1.44c-2.27-.75-3.79.6-4.91,2.29-1.55,2.35-4.31,4.41-2.55,7.81C125.72,67,126.52,67.21,127.07,67.52Zm3.65,22.94a1.6,1.6,0,0,0-2.1,1.43,3.55,3.55,0,0,0,2.18,4c.92.39,2.29.24,2.45-.76A4.25,4.25,0,0,0,130.72,90.46Z"/><path class="cls-2" d="M95.16,48.34c-2.77,15.94-15.63,26.6-32.81,27.2C48.52,76,37.78,66.7,33.63,50.63c.08-1.27.25-2.56.23-3.86-.19-18.31,11.29-30.36,29.66-31,3.62-.13,7.25,0,10.88,0,1.54.55,3.22.81,4.29,2.24a2.07,2.07,0,0,0,1.84,1.83l.21.18a14.3,14.3,0,0,0,5.72,5.84l.2.31A2.09,2.09,0,0,0,88.36,28l.12.21c0,1.56.36,3,1.89,3.76l.12.27c.14,1.94-.19,4,1.87,5.32C95.59,40.57,93.77,44.87,95.16,48.34ZM83,41.34c-.61-7-4.36-12.33-9.66-16.56-2.63-2.1-6-3.34-8.81,0-2.56,3.07-2,6.07.85,8.73a27,27,0,0,1,7.36,10.4c1,2.83,2.6,5.78,6.38,4.74C82.65,47.69,83,44.51,83,41.34ZM50.16,45.79c-.61-2-1.13-4.44-4.1-4-1.38.19-1.72,1.75-1.51,3.06.32,2,1.26,3.66,3.59,3.69C49.73,48.51,50.28,47.43,50.16,45.79Z"/><path class="cls-2" d="M173.23,207.81c-3-11.34.27-22.37,2-33.37,2-12.59,6.49-24.33,14.51-34.54,2.85-3.64,5.17-7.7,7.74-11.57,4.25,1.66,7.43,4.14,7.21,9.27-11.68,10.88-15.4,23.59-8.72,38.59,1.75,3.93,3.8,7.74,5.71,11.6.32,2.05.47,4.17,2.63,5.31C201.65,209.75,187.09,216.63,173.23,207.81Zm19.55-7.57c2.76-.49,3.61-2.37,3.39-4.9-.11-1.28-.49-2.82-2.13-2.57-2.73.42-3.3,2.72-3.5,5A2.07,2.07,0,0,0,192.78,200.24Z"/><path class="cls-2" d="M168.76,26.28c-3.66,4.35-8.87,4-13.76,4.31A80.32,80.32,0,0,1,121.81,26,7,7,0,0,0,120,21.64c-3.28-4.38-3.59-8.9.22-13.19a7,7,0,0,0,1.94-4.3l.17-.16c7.13-2.14,14.44-2.34,21.79-2.06,0,0,.68.25.68.24,2.05,2.21,4.76,1.52,7.29,1.63a1.52,1.52,0,0,1,1,.38c1.27,1.82,3.24,1.76,5.14,1.87l.27.16a1.86,1.86,0,0,0,1.82,1.52l.67.46A6.4,6.4,0,0,0,166.31,12l.17.17a4,4,0,0,0,1.93,3.63l.16.4A29.43,29.43,0,0,1,168.76,26.28Zm-38.25-8.13c1.53,2.16,3.73,2,5.94,1.73,6.41-.3,12.93,1.39,19.69-.17-4.91-9.21-19.46-14.24-27.42-10.13-1.69.87-1.88,2.6-2,4.29-.33,2.65.86,4,3.5,4.17Z"/><path class="cls-1" d="M201.7,187.79c-1.91-3.86-4-7.67-5.71-11.6-6.68-15-3-27.71,8.72-38.59,2.38,1.75,2.95,4.68,4.55,6.93C201.13,152,204.68,160,208.12,168c1.66,3.85,4.88,7.18,3.51,11.91-1.17,3.19-1.39,7-5.28,8.47Z"/><path class="cls-2" d="M211.63,179.86c1.37-4.73-1.85-8.06-3.51-11.91-3.44-7.95-7-16,1.14-23.42,4.4,3,7.65,6.44,9.39,12,2,6.52,1.24,11.59-3.75,15.85C212.42,174.45,211,176.59,211.63,179.86Zm2.61-22.94c-1.77-.14-2.26,1-2.38,2.31-.18,1.86-.59,4.09,1.76,4.82,1.34.42,2.24-.8,2.36-2.23C216.14,159.9,216.35,157.94,214.24,156.92Z"/><path class="cls-3" d="M74.4,15.71c-3.63,0-7.26-.08-10.88,0-18.37.65-29.85,12.7-29.66,31,0,1.3-.15,2.59-.23,3.86-2-1.84-1.2-4.29-1.34-6.48s-.51-3.91-3.08-4.17c1.51-2.49,3.36-4.84,4.49-7.5C39.45,19,50.24,13.93,64.11,14.13,67.54,14.18,71.39,12.55,74.4,15.71Z"/><path class="cls-4" d="M134.22,303.82c.32-1.59.61-3.18,1-4.77.38-1.74.42-1.49,4.26-1.83,1.45-.13.34-3.16,2.35-3.62,3.46,2.12,1.25,6.11,2.83,8.92-4.3-.4-1,4.44-3.65,5.22-3-.11-2-2.64-2.44-4.3C136.47,296.28,135.77,305,134.22,303.82Z"/><path class="cls-3" d="M122.18,4.15a7,7,0,0,1-1.94,4.3c-3.81,4.29-3.5,8.81-.22,13.19A7,7,0,0,1,121.81,26C113.55,19.05,113.67,11.94,122.18,4.15Z"/><path class="cls-3" d="M144.14,1.93c-7.35-.28-14.66-.08-21.79,2.06C129.19-1.23,136.57-.67,144.14,1.93Z"/><path class="cls-4" d="M80.27,244.24c-1.66-3.34-4.35-6.39-3.1-10.64,3.39,1,2.73,4,3.38,6.33C79.5,241.3,80.07,242.78,80.27,244.24Z"/><path class="cls-4" d="M112.75,164c3.83-1.52,7.69-3.19,9.82,2.35C119.19,166,116.49,162.83,112.75,164Z"/><path class="cls-4" d="M90.51,288.15a17.48,17.48,0,0,1-2.6-1.06c-1-.59-2.57-1-1.78-2.65.44-.92,1.56-.72,2.53-.55,1.21.22,2.45.29,3.68.42C92,285.7,89.9,286.29,90.51,288.15Z"/><path class="cls-3" d="M168.76,26.28a29.43,29.43,0,0,0-.19-10C172,19.52,171.88,22.87,168.76,26.28Z"/><path class="cls-3" d="M86.46,25.8A14.3,14.3,0,0,1,80.74,20C84.1,20.48,85.89,22.54,86.46,25.8Z"/><path class="cls-3" d="M166.31,12A6.4,6.4,0,0,1,161,8.19C163.27,8.78,165.27,9.75,166.31,12Z"/><path class="cls-3" d="M152.11,3.8c-2.53-.11-5.24.58-7.29-1.63C147.32,2.42,150.14,1.2,152.11,3.8Z"/><path class="cls-3" d="M92.36,37.59c-2.06-1.27-1.73-3.38-1.87-5.32C92.48,33.56,92.35,35.6,92.36,37.59Z"/><path class="cls-4" d="M201.7,187.79l4.65.54c-.67,1.59-1.34,3.17-2,4.76C202.17,192,202,189.84,201.7,187.79Z"/><path class="cls-3" d="M158.23,6.05c-1.9-.11-3.87,0-5.14-1.87C155.09,4,157,4.11,158.23,6.05Z"/><path class="cls-3" d="M90.37,32c-1.53-.8-1.87-2.2-1.89-3.76C90,29,90.42,30.4,90.37,32Z"/><path class="cls-3" d="M168.41,15.84a4,4,0,0,1-1.93-3.63C168.42,12.74,168.37,14.31,168.41,15.84Z"/><path class="cls-4" d="M82.45,248.22l-2.16-3.93Z"/><path class="cls-3" d="M88.36,28a2.09,2.09,0,0,1-1.7-1.92A1.7,1.7,0,0,1,88.36,28Z"/><path class="cls-3" d="M80.53,19.78A2.07,2.07,0,0,1,78.69,18C79.66,18.2,80.65,18.43,80.53,19.78Z"/><path class="cls-3" d="M160.32,7.73a1.86,1.86,0,0,1-1.82-1.52A1.62,1.62,0,0,1,160.32,7.73Z"/><path class="cls-5" d="M144.81,85.78c-.18-8.73,6-12.66,12.7-9.68a4.38,4.38,0,0,1,2.86,3.66c.63,6.08-.18,11.87-4.64,16.47-3.13,3.23-7,2.67-8.65-1.47C145.73,91.48,145.3,87.82,144.81,85.78Z"/><path class="cls-5" d="M140.11,160.42a6.58,6.58,0,0,1-6.52-6.37c.12-3.23,1.38-5.88,5.24-5.91s5.3,2.22,5.51,5.65S143.57,159.68,140.11,160.42Z"/><path class="cls-4" d="M130.72,90.46a4.25,4.25,0,0,1,2.53,4.62c-.16,1-1.53,1.15-2.45.76a3.55,3.55,0,0,1-2.18-4A1.6,1.6,0,0,1,130.72,90.46Z"/><path class="cls-3" d="M126.75,13.87l3.5,4.17C127.61,17.89,126.42,16.52,126.75,13.87Z"/><path class="cls-3" d="M130.51,18.15a9.13,9.13,0,0,1,5.94,1.73C134.24,20.1,132,20.31,130.51,18.15Z"/></g></g></svg>