<svg xmlns="http://www.w3.org/2000/svg" viewBox="0 0 517.39 682.01"><defs><style>.cls-1{fill:#020202;}.cls-2{fill:#fbac09;}.cls-3{fill:#6ee54b;}.cls-4{fill:#313330;}</style></defs><g id="Layer_2" data-name="Layer 2"><g id="Layer_1-2" data-name="Layer 1"><path class="cls-1" d="M460.05,231.82c7.57,10,12.81,21.29,18.1,32.53,9.5,20.21,19.07,40.39,26,61.72,16.3,50.37,17.8,101.34,3.25,152-9.77,34-22.81,67-43.92,96.12-19.31,26.63-42.45,49.07-71,65.61-10.46,6.07-21,12.62-33.59,13.29-22.17,1.19-43.93-.33-62.21-14.87-6-4.8-10.7-4.58-16.61-.4C275.4,641.19,271,645,268,649.55c-4.9,7.6-11.09,14-16.77,20.91-8.7,10.51-21.1,12.23-33.57,11.36C213.3,681.51,209,678,208,672c-3.41-19.52.9-36.42,16.07-49.71,5.33-4.66,8.11-11.2,13.16-16.06,2.38-2.3.87-6.21-.86-8.35-5.22-6.46-4.47-14.08-5.16-21.46-.34-3.64-1.31-7.4-.77-10.92,1.77-11.72-5.33-18.87-12.52-26.14-6.07-6.14-12.31-12.13-18-18.63-1.91-2.18-3.8-2.4-6-2.43-13.1-.23-25.49-2.57-36.13-11-2.9-2.29-5.39-.61-7.86,1.56a247.15,247.15,0,0,1-31.64,23.59c-9.36,5.9-19.79,5.7-29.74,1.66C78.4,530,73.55,522,71.8,510.93c-2.75-17.37,7.91-26.77,19.37-36,4-3.17,8.61-5.4,12.3-9,2.84-2.8,4-5.35.58-8.3-9.3-7.95-12.1-18.55-12.55-30.16a7.44,7.44,0,0,0-2.66-5.77,146.67,146.67,0,0,1-38.6-62.12C44.86,342.88,43,325.7,43.36,308.4c.19-8.81-3.08-15-9-20.6C23.15,277,14.27,264.46,6.52,251,2.41,243.85-.2,236.38,0,228.26c.35-13.31.49-27.1,6.64-39,10-19.44,25.64-33,47.61-37.82,10.08-2.2,20.27-3.61,30.73-2.57,13.24,1.32,25.6-2.52,37.77-7.3,2.85-1.12,4-2.54,4.66-5.49,3-12.6,11.23-17,23.52-12.4,6.78,2.51,13.72,4.86,19.78,9,3.4,2.33,7.19,3.21,11.14,3.66,4.17.48,6.58-.35,9.07-5,5-9.52,12.61-17.1,23.45-21,5.34-1.91,9.76-5.24,12.06-11.69,1.88-5.26,5.66-10.66,10.88-13.65a7.3,7.3,0,0,0,3.51-4.2c1.14-3.81,6.92-5.93,5.22-10C244,65.81,243,60.37,238.82,56.14,232.11,49.3,226,41.83,219.94,34.39a30.8,30.8,0,0,1-6.73-24.11c.75-6,3.21-9,9.06-9.72,4.87-.64,9.84-1.11,14.77.78,16.2,6.22,30.87,14.56,43.5,26.81C292,39.26,304.05,49.74,315.06,61.33c.91,1,2.32,1.61,2.88,2.72,5.37,10.7,15.63,14.79,25.56,19.56,8.74,4.2,15.71,11,22.85,17.41,6.69,6,12.87,12.57,19.53,18.61A80.48,80.48,0,0,1,408.42,154c1.11,3.25,1.8,7.18,5.19,9.33-1.64,1.16-1.58,2.71-1.06,4.4,3.41,11.22,3.9,22.88,5.22,34.43.78,6.92,1.77,13.84,3,20.7,3.52,19.66,9.53,38.5,16.54,57.26,15,40.1,15.08,82,11.47,124-.42,4.85-2.65,9.66-.35,14.58l-.47,0c-.46.16-1.21.21-1.32.5-.33.89-.08,1.65,1.1,1.66-7.44,31.4-16,62.48-27.17,92.78-.56,1.51-.45,3.27-.65,4.91l-.54.26.41-.36a323.92,323.92,0,0,0,19.11-37.2c22.92-53.16,36.48-108.27,35.34-166.68-.49-25.27-3.9-49.69-12.86-73.33C460.25,238.21,458,235.28,460.05,231.82ZM177.57,440.42c.06,1.4.88,2,2.19,2l-.11-.09c.76,1.78,1.7,3.25,4,2.24l-.22,0c-.33,3.23,1.82,3.74,4.27,3.92l-.09-.07c.72,1.89,1.65,3.37,4,2.18l-.13-.1c-.6,2,.34,2.46,2.11,2l-.07-.06c-.69,3,1.93,4,3.42,5.52a210.94,210.94,0,0,1,16.53,18.68c14.3,18.57,25.26,39.09,35.57,60,7.23,14.66,15.38,28.69,25.93,41.32,6.11,7.32,14,11.22,22.75,13.4,8.29,2.07,17.19-4.34,20-14.41,4.27-15.65,3.11-30.9-5.82-45-4.46-8.15-7.59-17-12.57-24.86a535.61,535.61,0,0,0-38.6-53.34C239.8,428.22,214.2,407.32,191,384c-4-4-9-6.79-14.21-9.14-12.84-5.86-20.93-3.53-28.91,8.24-6.94,6.85-6.28,15-3,22.92,5.4,13.12,14.19,23.58,26.88,30.43l-.11-.09c.65,1.94,1.93,2.8,4,2.33l-.2-.17c-.12,1.64.87,2.06,2.25,2Zm242.57-84.25c3.82-2.69,4.13-6.77,3.54-10.71-.73-4.89-1.93-9.93-4.83-13.95-1.53-2.12-4.21-1-5.42,1.65-4,1.32-4.33,4.3-3.72,7.84.79,4.49,1.46,9,2.13,13.5.33,2.2-.17,5,2.56,5.79C417.62,361.19,418.88,358.48,420.14,356.17Zm-18-107.71c2.26-8.61-3-22.33-10.05-26.1-2.78-1.48-4.3-.46-4.42,2.67-1.14.66-2.7,1.58-2.21,2.85,3.05,7.87,4.36,16.5,9.61,23.41C398.25,255.5,399.64,254.88,402.12,248.46ZM197,168.78s-.61.65-.62.63c-2.64-1.47-3.52.8-4.46,2.32-5.65,9.05-2.87,27,6.27,33.7,9.31,6.87,19.77,11.9,31.72,12.68h0a2.41,2.41,0,0,0,1.65,2.17,118.28,118.28,0,0,1,28.2,20.29c12.83,12.1,26.26,23.51,41.52,32.58,4.31,2.57,8.69,5,13.53,6.25,7.71,2,12.52-2.4,11.29-10,10-14.94,9.88-28.68-.73-43.11-4.13-5.61-8.86-10.76-13.1-16.29a35.65,35.65,0,0,0-12.14-10c-10.59-5.51-21-11.38-31.47-17.08A53.68,53.68,0,0,1,254,171.18c-10.47-11.76-23.25-16.9-39.23-13.16a36.54,36.54,0,0,0-17.09,9.54c-.75-.54-1.25-.35-1.33.56C196.36,168.32,196.79,168.56,197,168.78Zm-53.27,87.77.15-.13c-7.59,4.64-10.07,11.91-10.49,20.28-.37,7.47,2.07,14.4,3.9,21.49,4,15.62,13,26.75,28.51,32.07,2.54.87,4.92,1.82,6.81,3.92,12.91,14.35,29.22,24.07,45.87,33.23,11.43,6.28,22.14,13.29,31.55,22.52,13.15,12.88,28,23.57,45.22,30.58,10.58,4.29,20.58.12,23.93-10.66,1.45-4.7,3.06-9.56,2.15-14.69.12-16.27.76-32.64-7.49-47.56-3.69-6.67-7.64-13.22-11.63-19.72a133.56,133.56,0,0,0-27.75-32.43c-27.18-23-58.47-38.93-91-52.63a35.31,35.31,0,0,0-5.74-1.67c-15.46-3.62-24.38.25-32.34,14C144.37,255.07,144,255.68,143.75,256.55ZM383.18,155.1c-.87-9.58-4-17.81-10.67-24.46-3.24-3.23-7.22-3.39-11.07-1.57-3.09,1.46-6.32,4.29-4.9,7.74,3.78,9.2,7.65,18.54,13.82,26.42,3.78,4.83,9.36,3.28,11.57-2.61A36.88,36.88,0,0,0,383.18,155.1Zm25.4,302.33c.26-6.65-2.16-8.69-8.31-7.35a9,9,0,0,0-6.81,5.26c-2.64,6.41-5.27,12.85-7.31,19.45-1.2,3.89-.74,8.1,3.05,10.74,2.49,1.73,8.36-.56,11.29-4.21a40.56,40.56,0,0,0,3.18-5C407.14,470.41,407.74,463.78,408.58,457.43Zm-347.11-227c8.39-15.79,17.48-28.58,26.82-42.19C65.14,191.16,56,204.92,61.47,230.47Zm304,340.64c.46,2.88-1,6.7,2.71,7.87,3.39,1.08,6.43-.78,8.32-3.83a29.36,29.36,0,0,0,4.75-15.93c0-4-2-7.13-4.46-9.66-3.37-3.41-8.55-1.63-8.53,3.05C368.28,559,366.56,565,365.46,571.11Zm-5.73-340.44c2.22-.14,5.11.5,6-2.17,1.09-3.39-2.09-4.48-4.33-5.6a84.79,84.79,0,0,1-21.78-15.32,18.72,18.72,0,0,0-3.06-2.49c-1.48-.92-3.29-1.27-4.49.14a5.15,5.15,0,0,0-.93,3.65,11.91,11.91,0,0,0,3.72,6.85,79.68,79.68,0,0,0,17.26,13.18A15.06,15.06,0,0,0,359.73,230.67ZM263.91,127.31c-.56-6.14-3.51-12.45-6.32-18.74-1.39-3.1-5.06-3-6.95.28a22.56,22.56,0,0,0-2.13,19c1.21,3.61,4.17,5.82,8.05,6.55C261.75,135.4,263.91,133.59,263.91,127.31ZM287,61.26c3.89.08,6.21-2.92,4.15-6.56a42.83,42.83,0,0,0-13.14-14.81c-3-2-6.56-2.79-9.27-.42-3.33,2.91-.76,6.06,1.13,8.78a44.42,44.42,0,0,0,9.56,10.13A13.85,13.85,0,0,0,287,61.26Z"/><path class="cls-2" d="M448.43,418.63c-2.31-4.92-.08-9.73.34-14.58,3.61-42,3.52-83.88-11.47-124-7-18.76-13-37.6-16.54-57.26-1.22-6.86-2.21-13.78-3-20.7-1.32-11.55-1.81-23.21-5.22-34.43-.52-1.69-.58-3.24,1.06-4.4,3.64,1.43,6.14,4.24,8.67,7a5.46,5.46,0,0,0,3.68,3.57l.3.27a2,2,0,0,0,1.71,1.7l.27.32a6.3,6.3,0,0,0,3.51,3.84l.27.38c.15,1,.57,1.77,1.7,1.9l.12.14c.83,10,5.86,18.62,9.18,27.8,1.12,2,.94,4.55,2.77,6.21l-.05-.12c.33,2.17.39,4.44,2.05,6.17l-.07-.19c.29,2.19.34,4.47,2,6.19l-.07-.18a65.18,65.18,0,0,0,4,16l.07.19c.56,3.41-.37,7.09,1.9,10.18,0,4.48.15,8.92,2.21,13.05a15.68,15.68,0,0,0,2,7.32c1,4.5,3.65,8.54,4,13.26.07,14.2.24,28.39.16,42.59,0,4.56.92,9.26-1.12,13.67l-1,3.26c-3.57,7.14-.8,14.94-2.29,22.3-2.55,1.72-1.68,4.41-1.92,6.79-2.61,3.5-1.22,7.65-1.85,11.47l-.07.22c-2.28,4.47-1.4,9.41-2.09,14.12C450.88,407.66,452,413.9,448.43,418.63Z"/><path class="cls-3" d="M457.89,267.67c-2.06-4.13-2.22-8.57-2.21-13.05-.76-3.37.4-7.1-1.9-10.18l-.07-.19c-.51-5.53-1.15-11-4-16l.07.18c-.56-2.1.1-4.61-2-6.19l.07.19c-.5-2.12-.1-4.54-2.05-6.17l.05.12c-.44-2.28-.23-4.86-2.77-6.21-3.32-9.18-8.35-17.79-9.18-27.8a31.86,31.86,0,0,1,10.45,16.08,72.67,72.67,0,0,0,11.27,22.3c1.52,2.08,2.4,4.62,3.58,7-2,3.06-1.84,3.78.87,4.46l0-.38c-2.09,3.46.2,6.39,1.32,9.33,9,23.64,12.37,48.06,12.86,73.33,1.14,58.41-12.42,113.52-35.34,166.68a323.92,323.92,0,0,1-19.11,37.2l.13.1c.2-1.64.09-3.4.65-4.91,11.22-30.3,19.73-61.38,27.17-92.76.07-.72.14-1.45.22-2.18l.47,0c3.57-4.73,2.46-11,5.22-16,2.72-4.41,1.05-9.47,2.09-14.12l.07-.22c2.17-3.57,1-7.68,1.85-11.47.24-2.38-.63-5.07,1.92-6.79,3.62-7.14.44-15,2.29-22.3.35-1.09.69-2.17,1-3.25,3.44-2.33,2.32-5.93,2.33-9.06.07-13.51-.06-27-.12-40.53,0-2.3.18-4.64-1.25-6.68-.33-4.72-2.94-8.76-4-13.27C459.21,272.53,460,269.72,457.89,267.67Z"/><path class="cls-3" d="M431.75,180a6.3,6.3,0,0,1-3.51-3.84C430.53,176.4,431.32,178,431.75,180Z"/><path class="cls-3" d="M426,173.85a5.46,5.46,0,0,1-3.68-3.57C424.16,170.8,425.74,171.62,426,173.85Z"/><path class="cls-1" d="M460,232.2c-2.71-.68-2.85-1.4-.87-4.46C459.46,229.22,460.62,230.54,460,232.2Z"/><path class="cls-3" d="M433.72,182.26c-1.13-.13-1.55-.9-1.7-1.9A1.76,1.76,0,0,1,433.72,182.26Z"/><path class="cls-3" d="M428,175.82a2,2,0,0,1-1.71-1.7C427.48,174,428.05,174.6,428,175.82Z"/><path class="cls-2" d="M145.37,255.12c8-13.72,16.88-17.59,32.34-14a35.31,35.31,0,0,1,5.74,1.67c32.56,13.7,63.85,29.61,91,52.63a133.56,133.56,0,0,1,27.75,32.43c4,6.5,7.94,13.05,11.63,19.72,8.25,14.92,7.61,31.29,7.49,47.55a10.58,10.58,0,0,0-1.22,2.63C317.44,413.45,305,415.89,293,410.39a29,29,0,0,1-7.51-4.85,402.42,402.42,0,0,0-70.52-50.44c-19.13-10.9-37.36-23.27-52.83-39.1-13.63-14-21.23-30.49-18.63-50.62.38-3,.31-6,.44-9l-.14.13C144.87,256.72,145.23,256,145.37,255.12Z"/><path class="cls-2" d="M147.92,383.08c8-11.77,16.07-14.1,28.91-8.24C182,377.19,187,379.94,191,384c23.16,23.34,48.76,44.24,69.7,69.81a535.61,535.61,0,0,1,38.6,53.34c5,7.9,8.11,16.71,12.57,24.86,0,4.65.29,9.32,0,13.94-.69,10.2-7.58,15.29-17.57,13.71-12.75-2-21.71-9.41-28.74-19.62-10.37-15-20.78-30.06-30.84-45.31s-22.65-27.76-36-39.83c-1.47-1.32-2.92-2.79-5.19-2.42l.07.06c0-1.43-.77-2-2.11-2l.13.1c-.64-2-2-2.8-4-2.18l.09.07c.2-3.08-1.67-3.9-4.27-3.92l.22,0c-.66-2-2.11-2.52-4-2.24l.11.09c0-1.42-.87-2-2.19-2l.13.11a2.28,2.28,0,0,0-2.25-2l.2.17c-.69-1.88-2-2.76-4-2.33l.11.09c.08-4.34-3.86-5.92-6.05-8.66C155.26,414.66,144.84,401.57,147.92,383.08Z"/><path class="cls-2" d="M197.71,167.56A36.54,36.54,0,0,1,214.8,158c16-3.74,28.76,1.4,39.23,13.16a53.68,53.68,0,0,0,14.63,11.73c10.48,5.7,20.88,11.57,31.47,17.08a35.65,35.65,0,0,1,12.14,10c4.24,5.53,9,10.68,13.1,16.29,10.61,14.43,10.75,28.17.75,43.11l-2.23,1.3-10.29-.27.18,0a13.46,13.46,0,0,0-6.25-2.17l-11.15-5.73c-1.45-1-2.83-2.19-4.72-2.3l.19.14-2.22-3-6.94-7-3-2.21.16.2q-1.18-2.28-2.35-4.56a8.87,8.87,0,0,0-.92-1.37c-1.76-1.79-2.22-4.74-5-5.66-4-6.27-10.32-9.17-16.94-11.37-8.16-2.71-16.48-5-24.73-7.4l0,0c-1.19-2.28-3.32-3-5.64-3.66-7-1.9-12.31-6.21-17.27-11.31-4.73-4.87-7.55-10.88-11-16.57-1.4-4.71-1-9.49-.54-14.27.29-1,.59-1.91.88-2.87,0,0,.61-.65.6-.65A3,3,0,0,0,197.71,167.56Z"/><path class="cls-3" d="M193.58,452.46c2.27-.37,3.72,1.1,5.19,2.42,13.33,12.07,26,24.69,36,39.83S255.22,525,265.59,540c7,10.21,16,17.61,28.74,19.62,10,1.58,16.88-3.51,17.57-13.71.3-4.62,0-9.29,0-13.94,8.93,14.08,10.09,29.33,5.82,45-2.76,10.07-11.66,16.48-20,14.41-8.72-2.18-16.64-6.08-22.75-13.4-10.55-12.63-18.7-26.66-25.93-41.32-10.31-20.91-21.27-41.43-35.57-60A210.94,210.94,0,0,0,197,458C195.51,456.46,192.89,455.42,193.58,452.46Z"/><path class="cls-3" d="M143.9,256.42c-.13,3-.06,6-.44,9-2.6,20.13,5,36.66,18.63,50.62,15.47,15.83,33.7,28.2,52.83,39.1a402.42,402.42,0,0,1,70.52,50.44,29,29,0,0,0,7.51,4.85c12.09,5.5,24.49,3.06,27.18-12.61a10.58,10.58,0,0,1,1.22-2.63c.91,5.14-.7,10-2.15,14.7-3.35,10.78-13.35,14.95-23.93,10.66-17.24-7-32.07-17.7-45.22-30.58-9.41-9.23-20.12-16.24-31.55-22.52-16.65-9.16-33-18.88-45.87-33.23-1.89-2.1-4.27-3.05-6.81-3.92-15.54-5.32-24.48-16.45-28.51-32.07-1.83-7.09-4.27-14-3.9-21.49C133.83,268.33,136.31,261.06,143.9,256.42Z"/><path class="cls-3" d="M296.38,262.56l11.15,5.73c1.55,2.27,4.1,1.63,6.25,2.17l-.18,0c3.36,2.8,6.81,2.27,10.29.27l2.23-1.3c1.21,7.6-3.6,12-11.31,10-4.84-1.25-9.22-3.68-13.53-6.25-15.26-9.07-28.69-20.48-41.52-32.58a118.28,118.28,0,0,0-28.2-20.29,2.41,2.41,0,0,1-1.65-2.17c8.25,2.44,16.57,4.68,24.73,7.39,6.62,2.2,13,5.1,16.94,11.37,1,2.45,2.22,4.74,5,5.66a8.5,8.5,0,0,1,.92,1.38c.39,1.73.85,3.41,2.35,4.55l-.16-.2a4.36,4.36,0,0,0,3,2.21l6.94,7,2.22,3-.19-.14A8.15,8.15,0,0,0,296.38,262.56Z"/><path class="cls-2" d="M408.58,457.43c-.84,6.35-1.44,13-4.91,18.87a40.56,40.56,0,0,1-3.18,5c-2.93,3.65-8.8,5.94-11.29,4.21-3.79-2.64-4.25-6.85-3.05-10.74,2-6.6,4.67-13,7.31-19.45a9,9,0,0,1,6.81-5.26C406.42,448.74,408.84,450.78,408.58,457.43Z"/><path class="cls-3" d="M196.07,186.57c3.4,5.69,6.22,11.7,11,16.57,5,5.1,10.31,9.41,17.27,11.31,2.32.64,4.45,1.38,5.64,3.66-12-.78-22.41-5.81-31.72-12.68-9.14-6.74-11.92-24.65-6.27-33.7.94-1.52,1.82-3.79,4.47-2.31-.29,1-.59,1.93-.88,2.88C193.58,177.14,192.71,181.94,196.07,186.57Z"/><path class="cls-2" d="M365.46,571.11c1.1-6.1,2.82-12.1,2.79-18.5,0-4.68,5.16-6.46,8.53-3.05,2.5,2.53,4.43,5.66,4.46,9.66a29.36,29.36,0,0,1-4.75,15.93c-1.89,3.05-4.93,4.91-8.32,3.83C364.5,577.81,365.92,574,365.46,571.11Z"/><path class="cls-3" d="M359.72,230.67a15,15,0,0,1-7.62-1.76,79.68,79.68,0,0,1-17.26-13.18,11.91,11.91,0,0,1-3.72-6.85,5.15,5.15,0,0,1,.93-3.65c1.2-1.41,3-1.06,4.49-.14a18.72,18.72,0,0,1,3.06,2.49,84.79,84.79,0,0,0,21.78,15.32c2.24,1.12,5.42,2.21,4.33,5.6C364.84,231.17,362,230.53,359.72,230.67Z"/><path class="cls-3" d="M263.91,127.31c0,6.28-2.16,8.09-7.35,7.13-3.88-.73-6.84-2.94-8.05-6.55a22.56,22.56,0,0,1,2.13-19c1.89-3.25,5.56-3.38,6.95-.28C260.4,114.86,263.35,121.17,263.91,127.31Z"/><path class="cls-3" d="M147.92,383.08c-3.08,18.49,7.34,31.58,17.8,44.69,2.19,2.74,6.13,4.32,6.05,8.66-12.69-6.85-21.48-17.31-26.88-30.43C141.64,398.12,141,389.93,147.92,383.08Z"/><path class="cls-2" d="M402.12,248.46c-2.48,6.42-3.87,7-7.07,2.83-5.25-6.91-6.56-15.54-9.61-23.41-.49-1.27,1.07-2.19,2.2-2.84C396.71,230.22,399.91,239,402.12,248.46Z"/><path class="cls-2" d="M420.14,356.17c-1.26,2.31-2.52,5-5.74,4.12-2.73-.76-2.23-3.59-2.56-5.79-.67-4.51-1.34-9-2.13-13.5-.61-3.54-.27-6.52,3.71-7.83C420.31,339.47,420.26,347.81,420.14,356.17Z"/><path class="cls-3" d="M402.12,248.46c-2.21-9.42-5.41-18.24-14.48-23.42.13-3.14,1.65-4.16,4.43-2.68C399.14,226.13,404.38,239.85,402.12,248.46Z"/><path class="cls-3" d="M420.14,356.17c.12-8.36.17-16.7-6.72-23,1.22-2.66,3.9-3.78,5.43-1.66,2.9,4,4.1,9.06,4.83,13.95C424.27,349.4,424,353.48,420.14,356.17Z"/><path class="cls-3" d="M183.45,444.54c2.6,0,4.47.84,4.27,3.92C185.27,448.28,183.12,447.77,183.45,444.54Z"/><path class="cls-3" d="M171.66,436.34c2-.43,3.3.45,4,2.33C173.59,439.14,172.31,438.28,171.66,436.34Z"/><path class="cls-2" d="M448,418.61c-.08.73-.15,1.46-.22,2.18-1.18,0-1.43-.79-1.1-1.68C446.74,418.82,447.49,418.77,448,418.61Z"/><path class="cls-3" d="M179.65,442.35c1.91-.28,3.36.26,4,2.24C181.35,445.6,180.41,444.13,179.65,442.35Z"/><path class="cls-3" d="M187.63,448.39c2.08-.62,3.4.14,4,2.18C189.28,451.76,188.35,450.28,187.63,448.39Z"/><polygon class="cls-3" points="419.78 518.36 419.37 518.72 419.91 518.46 419.78 518.36"/><path class="cls-3" d="M191.54,450.47c1.34,0,2.13.62,2.11,2C191.88,452.93,190.94,452.5,191.54,450.47Z"/><path class="cls-3" d="M175.45,438.5a2.28,2.28,0,0,1,2.25,2C176.32,440.56,175.33,440.14,175.45,438.5Z"/><path class="cls-3" d="M145.37,255.12c-.14.92-.5,1.6-1.61,1.43C144,255.68,144.37,255.07,145.37,255.12Z"/><path class="cls-3" d="M197.71,167.56a3,3,0,0,1-.7,1.22c-.22-.22-.65-.46-.63-.66C196.46,167.21,197,167,197.71,167.56Z"/><path class="cls-3" d="M177.57,440.42c1.32,0,2.15.6,2.19,2C178.45,442.4,177.63,441.82,177.57,440.42Z"/><path class="cls-4" d="M463.86,288.25c1.43,2,1.24,4.38,1.25,6.68.06,13.51.19,27,.12,40.53,0,3.13,1.11,6.73-2.33,9.06,2-4.42,1.09-9.12,1.12-13.68C464.1,316.64,463.93,302.45,463.86,288.25Z"/><path class="cls-4" d="M461.86,347.77c-1.85,7.32,1.33,15.16-2.29,22.3C461.06,362.71,458.29,354.91,461.86,347.77Z"/><path class="cls-4" d="M449.7,228.28c2.86,4.94,3.5,10.44,4,16A65.18,65.18,0,0,1,449.7,228.28Z"/><path class="cls-4" d="M455.73,388.55c-1,4.65.63,9.71-2.09,14.12C454.33,398,453.45,393,455.73,388.55Z"/><path class="cls-4" d="M457.65,376.86c-.81,3.79.32,7.9-1.85,11.47C456.43,384.51,455,380.36,457.65,376.86Z"/><path class="cls-4" d="M453.78,244.44c2.3,3.08,1.14,6.81,1.9,10.18C453.41,251.53,454.34,247.85,453.78,244.44Z"/><path class="cls-4" d="M445.74,216.29c1.95,1.63,1.55,4.05,2.05,6.17C446.13,220.73,446.07,218.46,445.74,216.29Z"/><path class="cls-4" d="M457.89,267.67c2.06,2.05,1.32,4.86,2,7.31A15.61,15.61,0,0,1,457.89,267.67Z"/><path class="cls-4" d="M443,210.2c2.54,1.35,2.33,3.93,2.77,6.21C444,214.75,444.14,212.19,443,210.2Z"/><path class="cls-4" d="M447.72,222.27c2.15,1.58,1.49,4.09,2,6.19C448.06,226.74,448,224.46,447.72,222.27Z"/><path class="cls-4" d="M196.07,186.57c-3.36-4.63-2.49-9.43-.54-14.27C195,177.08,194.67,181.86,196.07,186.57Z"/><path class="cls-4" d="M323.89,270.69c-3.48,2-6.93,2.53-10.29-.27Z"/><path class="cls-4" d="M276.56,242.52c-2.76-.92-4-3.21-5-5.66C274.34,237.78,274.8,240.73,276.56,242.52Z"/><path class="cls-4" d="M313.78,270.46c-2.15-.54-4.7.1-6.25-2.17A13.46,13.46,0,0,1,313.78,270.46Z"/><path class="cls-4" d="M296.38,262.56a8.15,8.15,0,0,1-4.72-2.3C293.55,260.37,294.93,261.53,296.38,262.56Z"/><path class="cls-4" d="M279.83,248.45c-1.5-1.14-2-2.82-2.35-4.55Z"/><path class="cls-4" d="M291.85,260.4l-2.22-3Z"/><path class="cls-4" d="M282.69,250.46a4.36,4.36,0,0,1-3-2.21Z"/></g></g></svg>