<svg xmlns="http://www.w3.org/2000/svg" viewBox="0 0 251.48 44.46"><defs><style>.cls-1{fill:#313330;}.cls-2{fill:#fbac09;}.cls-3{fill:#2a9dd5;}.cls-4{fill:#6ee54b;}</style></defs><g id="Layer_2" data-name="Layer 2"><g id="Layer_1-2" data-name="Layer 1"><path class="cls-1" d="M93.64,23.17c0,5.32-.12,10.64,0,15.95.11,3.78-1.4,5.38-5.25,5.34-11-.12-21.94-.08-32.9,0-2.9,0-4.27-1.16-4.26-4.08q0-18,0-35.9c0-3.06,1.8-3.82,4.52-3.81,11,.06,21.94.11,32.91,0,4.07-.05,5.06,2,5,5.57C93.54,11.86,93.64,17.52,93.64,23.17Z"/><path class="cls-2" d="M209.78,42.07a314.07,314.07,0,0,1,0-39c11.82-2.21,23.74-.49,35.6-1,3.22-.13,4.91,1.21,4.9,4.62q-.09,15.87,0,31.76c0,3.41-1.68,4.75-4.89,4.61C233.52,42.56,221.59,44.29,209.78,42.07Z"/><path class="cls-1" d="M.08,22.37c0-5.32.22-10.66-.06-16C-.22,1.88,1.83.73,6,.8,16.59,1,27.25,1,37.89.79c4.51-.09,5.69,1.87,5.62,6-.18,10.31-.21,20.63,0,30.94.09,4.47-1,6.75-6.07,6.61-10.64-.29-21.3-.26-31.94,0-4.59.11-5.64-1.93-5.48-6C.25,33,.08,27.7.08,22.37Zm20.74,20.7c5,0,10-.15,14.91,0,4.48.18,6.73-1.34,6.62-6.2-.2-9.6-.13-19.22,0-28.83.05-4-1.32-6.15-5.7-6.09Q21.72,2.2,6.81,2C2.37,1.94,1.16,4.22,1.2,8.18c.11,9.61.18,19.22,0,28.83-.11,5,2.31,6.29,6.72,6.1S16.51,43.07,20.82,43.07Z"/><path class="cls-1" d="M149.43,22.57c0,5.65-.08,11.31,0,17,.06,3.43-1.54,4.72-4.84,4.7-11.31-.06-22.62-.1-33.94,0-3.48,0-4.66-1.4-4.62-4.75q.15-17,0-33.93c0-3.39,1.32-4.77,4.72-4.74q17,.15,33.94,0c3.38,0,4.81,1.37,4.74,4.75C149.35,11.25,149.43,16.91,149.43,22.57Zm-1.14.53c0-5-.09-9.94,0-14.9.1-3.95-1.15-6.25-5.59-6.2q-14.89.18-29.81,0c-4.35-.05-5.76,2-5.71,6.09q.17,14.4,0,28.81c0,4,1.15,6.26,5.59,6.2q14.91-.18,29.81,0c4.35.06,5.83-2,5.71-6.09C148.19,32.38,148.29,27.74,148.29,23.1Z"/><path class="cls-1" d="M157.76,20.71c.94-5.56-3.25-14.36,1.69-18.74,4.28-3.81,12.74-.89,19.34-1.07,5.33-.14,10.66.09,16-.05,3.45-.08,4.7,1.44,4.67,4.78q-.13,17,0,34c0,3.49-1.56,4.66-4.84,4.63q-16.49-.1-33,0c-3.15,0-3.95-1.52-3.91-4.3C157.82,34,157.76,28,157.76,20.71Zm1.91-.05c0,6,.11,10.94,0,15.91-.12,4.11,1.43,6.09,5.77,6,9-.15,17.9-.09,26.85,0,3.63,0,5.55-1.33,5.52-5.19q-.12-14.92,0-29.84c0-4-2.19-5.07-5.7-5-4.3.08-8.64-.26-12.92.07C173,3.08,165.34-.25,161,4.33,157.17,8.43,160.23,15.77,159.67,20.66Z"/><path class="cls-1" d="M209.78,42.07c11.81,2.22,23.74.49,35.6,1,3.21.14,4.91-1.2,4.89-4.61q-.08-15.88,0-31.76c0-3.41-1.68-4.75-4.9-4.62-11.86.48-23.78-1.24-35.6,1C210,1.43,211,.9,212.49.9,223.77.89,235,1,246.31.83c3.88,0,5.22,1.52,5.17,5.29q-.21,16.41,0,32.82c0,3.76-1.28,5.37-5.17,5.32-11.27-.14-22.54-.06-33.82-.07C211,44.19,210,43.66,209.78,42.07Z"/><path class="cls-3" d="M20.82,43.07c-4.31,0-8.62-.14-12.92,0S1.07,42,1.18,37c.2-9.61.13-19.22,0-28.83,0-4,1.17-6.24,5.61-6.18q14.91.19,29.82,0c4.38-.06,5.75,2.06,5.7,6.09-.11,9.61-.18,19.23,0,28.83.11,4.86-2.14,6.38-6.62,6.2C30.77,42.92,25.79,43.07,20.82,43.07Z"/><path class="cls-4" d="M148.29,23.1c0,4.64-.1,9.28,0,13.91.12,4.05-1.36,6.15-5.71,6.09q-14.91-.2-29.81,0c-4.44.06-5.63-2.25-5.59-6.2q.15-14.4,0-28.81c0-4,1.36-6.14,5.71-6.09q14.91.2,29.81,0c4.44-.05,5.69,2.25,5.59,6.2C148.2,13.16,148.29,18.14,148.29,23.1Z"/><path class="cls-3" d="M159.67,20.66c.56-4.89-2.5-12.23,1.36-16.33C165.34-.25,173,3.08,179.14,2.6c4.28-.33,8.62,0,12.92-.07,3.51-.07,5.73,1,5.7,5q-.1,14.91,0,29.84c0,3.86-1.89,5.23-5.52,5.19-8.95-.07-17.9-.13-26.85,0-4.34.08-5.89-1.9-5.77-6C159.78,31.6,159.67,26.62,159.67,20.66Z"/></g></g></svg>