<svg xmlns="http://www.w3.org/2000/svg" viewBox="0 0 281.35 1053.96"><defs><style>.cls-1{fill:#020202;}.cls-2{fill:#6ee54b;}.cls-3{fill:#313330;}.cls-4{fill:#2a9dd5;}</style></defs><g id="Layer_2" data-name="Layer 2"><g id="Layer_1-2" data-name="Layer 1"><path class="cls-1" d="M269.11,160.28a83.19,83.19,0,0,1-5.1,38.9,86,86,0,0,0-5.16,23.14c-.9,11.23-3,22.05-7.66,32.61-7.14,16.06-6.48,31.63,7.65,44.41,4.76,4.31,6.21,10,6.66,16a37.69,37.69,0,0,0,6.58,19.3c5.21,7.48,7.72,16.11,8.62,25a122.76,122.76,0,0,1-.85,31.85c-2.19,13.76-14,25.1-30.45,25.1-10.84,0-21.17-3.83-32-4.3-2.39-5.06-7.4-2.83-11.13-4.17-4.09-1.47-3.57-5.74-3.63-9.23s2.32-4,5.31-4.25c6.35-.51,12.56-.48,18.48,2.22,10.08,4.6,25.61-2.29,30-12,.87-1.92,1.78-3.78,1.23-5.61-3.13-10.35-7.7-20.15-17.4-25.69-5.47-3.13-11.6.39-17.24,2.11-1.79.55-3.32,2-5,2.95-9.11,5.32-17.54,11.6-27.53,15.64-14.87,6-22,20.94-18.64,36.5,1.12,5.28,3.43,9.8,8.11,13.17a42.33,42.33,0,0,1,10.77,11.59c8.72,13.54,5.6,26.94-.23,40.21-6.39,14.54-15.46,27.44-25.38,39.78-3.51,4.38-7.25,8.66-10.11,13.45-5.59,9.35-4.93,13.28,2.46,21a70.54,70.54,0,0,1,12.09,17.94,20.48,20.48,0,0,1,.16,19c-3.7,7.81-4.95,16.23-6.63,24.72a6.11,6.11,0,0,0,5.05-2.19,55.34,55.34,0,0,1,3.84-4.49c2.83-2.55,6.37-3.79,10-2.73,3.92,1.14,3.94,5,4.17,8.28.63,9.4-1.3,18.44-4.12,27.32-.81,2.57-1.89,5-.46,7.67,7.67,14.34,9.33,30,10.67,45.88,1.46,17.16,2.66,34.38,6.75,51.26a59.92,59.92,0,0,1,.73,21.88c-.25,1.91-.81,4.34,1.37,5.3s4.29-.4,5.87-2c2.32-2.3,5.58-3.72,7.57-5.9,4.07-4.48,10-5.81,14.23-9.76,2.48-2.29,5.4-1.7,8.16.09,7.24,4.69,10.14,13.44,7.37,22.83-1.9,6.46-5.88,11.73-10.11,16.8a52.87,52.87,0,0,1-4.21,4.26c-21.5,20.21-19,19-18.6,46.08.34,22.29,2.27,44.6.69,66.87-1.07,15,2.93,28.64,8.33,42.28,6,15.22,12.65,30.26,15.91,46.45,2.39,11.87,3.71,23.54-3.43,34.41A64.31,64.31,0,0,1,215.56,1050c-13.83,9.45-28.3,1.25-32-15.25a167.45,167.45,0,0,1-3.94-30l3.32-.16c.58,1.46.35,3.39,2.36,4l.54,1.55.69-.84-1.38-.55c0-2.84.12-5.7,0-8.54,0-1-.14-2.77-2.07-1.41l-2.84-.32c-1.83-4.73.55-8.94,2.06-13.06,2.23-6.11,5.15-12.27,9.63-16.83,5.29-5.38,5.62-11.25,5.58-18a460.67,460.67,0,0,0-3.47-56.8,8.33,8.33,0,0,1,.6-4.86c7.18-.11,7.47-6.07,8-10.63,2.1-17.91,1.73-35.76-3.61-53.21-2.38-7.79-5.51-11-10-10.57s-7.81,5.47-8.2,13.18c-.15,3,.23,6,.29,8.94.05,2.63,0,5.26,0,7.9a29.23,29.23,0,0,0,1.17,18.23c5.34,12.54,3.54,24-3.86,34.62-3.74,5.36-5.38,11.13-7,17.18-2.91,10.72-5.48,21.44-11.82,31.06-4.75,7.2-11.38,11-18.78,13.33-10.68,3.32-21.15-4.06-23.08-15.13a84.4,84.4,0,0,1,.34-30.69c1.14-5.83,4.66-11.16,6.91-16.8,3.44-8.6,7.89-17,9.72-26s4.71-17.55,7-26.33c1.41-5.48,4.5-10,6.75-14.71a30.72,30.72,0,0,0,2.8-13.82,385.24,385.24,0,0,1,5.42-62.52c1.31-7.65,2.15-15.33,3.92-23,2-8.73,3.51-18-.29-27.28-1.23-3-2-7.82.43-11.58,2.28-.05,4.69.38,6.31-1.93,7.84-11.22,12.95-23.25,9.72-37.26-1.33-5.75-3.45-11.43-10.49-13.6a87.5,87.5,0,0,1-11.68,18.63c-5.74,3.66-9.55,8.73-12.21,15-1.86,4.43-3.77,9-8.92,11.3-7.3,3.21-12.82.19-14-7.72-1.5-10-.68-20,.33-29.8.73-7.11,5.71-13.52,10.6-18.22,6.69-6.43,11.55-13.69,15.89-21.55,2,1.43,2.81.6,2.93-1.53l-.09.15c.72-.61,1.78-1.08,2.1-1.85,6.64-15.9,4.33-30.94-4.66-45.22a15.72,15.72,0,0,0-4.06-4.27c-1.88-1.34-4.15-2.2-6.49-1a4.89,4.89,0,0,0-2.45,6c2.47,7.17.41,14.35.6,21.51-4,10.33-9.93,18.58-19.53,25.18S102,623.16,99.42,634.09c-1.63,6.76-2.55,13.54-7.85,18.76-4.79,4.72-11.2,4.69-14.68-.71-3.32-5.15-6-10.23-5.2-17.12,2.38-21.08,2.54-42.51,6.33-63.3,2.2-12.09,9.61-23.32,19.37-31.86,4.83-4.23,11.18-4.38,16.77-2.6,5,1.57,7.27-.07,9.77-3.73a387,387,0,0,0,27.41-47.9c4.15-8.45,3.64-18.06.53-27-1.3-3.77-4.34-6.44-9.07-5.8s-9.19,1-13.84,1.27c-11.08.66-19.2-12.58-17.59-23.73,2.39-16.52,13.51-28.57,19-43.36,3-8.08,5.81-16.06,4.62-24.87-.43-3.19-1.6-4.7-5.24-5.87-5.46-1.76-11.59-1.71-16.45-5.3a2.93,2.93,0,0,0-1.6-.72c-3.43.16-4.31,4.6-8.39,4.52-3.7-.08-3.56,3.76-4.36,6.69C95.14,375.28,85.74,382,71,382.35c-16.78.42-27.64-8-35.24-22.2-7.52-14-5.28-28.68-3.39-43.33.42-3.3,1.35-6.5.69-9.86-2.6-13.34-1.62-26.49,1.95-39.54.41-1.49-.12-3.24-.22-4.87,6.72,2.37,13.67,3.11,20.52,1.31C73,259.22,86.5,249,95.32,233c5.61-10.2,10.77-20.62,14-31.93,2.61-9.29,5.64-18.46,8.65-27.64,5.23-15.94,12-31,23.59-43.6a24.78,24.78,0,0,0,6.36-15.4c.54-7,.39-13.84-2-20.44,12.87-5.51,32.23-5.42,46.06,0a146.1,146.1,0,0,1,37.1,21.38c1.9,1.5,3.48,4.17,6.61,3.19,4.41-22.37.66-49.46-9.3-68a51,51,0,0,0-18.93-20.11,13.11,13.11,0,0,0-11.25-1.64c-4.78,1.35-9.55,3.08-14.68,2.17,2.73-16,8.9-21.33,25.55-21.36,23.49,0,41.84,9.92,55.22,29.15,1.5,2.15,2.9,4.38,4.35,6.57,10.52,16,13.62,33.33,7.87,51.7-2.62,8.37-4.49,17.22-10.67,24.09-1,1.14-.51,2.51-.31,3.8-4.72,1.9-6,6.84-9.07,10.22-1.48,1.64-1.83,3.65-.24,5.4C259.79,146.7,262.65,154.85,269.11,160.28Zm-98.19,652c-.61.5-1.64,1-.4,1.79.14.09.81-.6,1.22-.94l2-2c2.73-2.7,6.33-4.8,7.49-9.65-5.81,1.1-8.28,3.91-8.38,8.78Zm2.61-111.31c3.14-1.63,4.09-4.47,4.26-7.74l2.05-2A18.66,18.66,0,0,0,182.4,690c1.33-.88,3-2.38,2-3.72-1.76-2.19-3.27-.09-4.43,1.3a10.59,10.59,0,0,0-1.18,2.57l-2,2c-2.91,2-3.61,5-3.76,8.28l-.65,1.17ZM207,1014.45c-.62-4.67,3.73-7.52,4.28-11.76a12.92,12.92,0,0,0,1.18-1.16c.07-.09-.15-.43-.24-.66l-.77,2-3,2.8-2.6-2c1.93-13.49,2.28-26.85-3.49-39.66,1.53,4.35,1.36,9,2.29,13.51a54.45,54.45,0,0,1-1.54,27.48c-2.5,8-4.9,9.52-13,9.18.87,3,5,1.37,6.31,3.13-1.59,2.72-4,.64-5.36,2.47,1.45,2.42,4,1.88,6.17,2.51.41,1.4-.29,3.88,2.09,3.65,4.15-.41,9.19-5.59,9.75-9.71C209.06,1015.74,207.7,1015.05,207,1014.45ZM162.54,301.84c.12,6.46,3.56,10.94,9.58,11.93,11.63,1.91,23.37,2.94,34.56-2.82,2.34-1.21,2.9-3.38,4.4-5,7.22-1.24,9.27-7.9,12.94-12.68,16.34-21.35,12.8-46.53-1.8-65-2.89-3.66-6.47-7.06-11.3-7.66-11.79-1.46-23.13-1-32.65,7.88a63.26,63.26,0,0,0-15,20.82c-5,11.14-6,23.08-7.21,34.9-.5,4.79,1,9.85,2,14.71A3.58,3.58,0,0,0,162.54,301.84Zm-29.31-54.16c.22,3.76-.76,7.39,2.81,8.7,3.75,1.37,6.4-1,8-4.2,4.49-8.89,6.83-18.72,11.85-27.39a4.22,4.22,0,0,0-1.06-5.44,4,4,0,0,0-5.52.12C141.68,227.85,134.36,236.5,133.23,247.68ZM90.38,567c.34,5.32,1.76,9.48,6,10.6,3.58,1,5.84-2.61,7.4-5.53,2-3.79,3.76-7.75,5.41-11.73,2.36-5.68,1.73-8.39-2-10-4-1.77-10.57-.18-12.23,3.57C92.9,558.41,91.64,563.26,90.38,567ZM143.7,909.74c-.57-2.37,2-7.15-2.1-8.91-5.23-2.25-5.83,4-8.63,6.35a7.22,7.22,0,0,0-2.07,2.13c-2.37,5.06-2.73,10.28,0,15.27,2.45,4.53,6.47,4.7,9.41.52S143.57,915.79,143.7,909.74ZM259.45,80.81c-.81-7-1.36-12.9-2.22-18.76-.53-3.64-2.42-6.8-4.61-9.73a3.36,3.36,0,0,0-3.31-1.67c-1.68.27-1.92,1.68-1.77,3,1.13,9.78,3.73,19.36,3.9,29.29a3.83,3.83,0,0,0,4.09,3.54c2.43,0,3.32-1.79,3.77-3.81A6.41,6.41,0,0,0,259.45,80.81Zm-8.38,243.58c-.11-4.81-2.07-9.11-4.36-9.86-4-1.31-7,.37-9.66,3.16a54.66,54.66,0,0,0-4.46,5.18,4.11,4.11,0,0,0-.1,4.62c1.49,2.76,8.92,5.49,13.29,4.53S251,327.57,251.07,324.39Zm-109.9,323.7c-.39-3-1.59-3.87-3.53-3.37-4.56,1.17-9.11,8.57-8.37,13.16.55,3.42,3.45,4,4.85,2.26C137.14,656.33,139.13,651.71,141.17,648.09ZM41.27,328.51c-.19,2.73-.42,4.65-.44,6.57,0,2.55-.83,5.42,2.12,7a2.08,2.08,0,0,0,1.8-.28c2.89-2.16,2.39-5.25,1.86-8.16C46.18,331.36,45,329.33,41.27,328.51Zm85.67,102.35c2.85-.08,5.89-3.41,6.65-7.38.31-1.63.42-3.89-1.07-4.41-3.75-1.29-4.74,2.53-6.62,4.49a10.75,10.75,0,0,0-1.7,3.48C123.14,429.69,124.73,430.51,126.94,430.86Zm73.32,339.76c-.22.23-.66.5-.62.66a6,6,0,0,0,.62,1.34c.23-.22.67-.49.63-.65A5.88,5.88,0,0,0,200.26,770.62Z"/><path class="cls-2" d="M181.53,31c5.13.91,9.9-.82,14.68-2.17a13.11,13.11,0,0,1,11.25,1.64,51,51,0,0,1,18.93,20.11c10,18.53,13.71,45.62,9.3,68-3.13,1-4.71-1.69-6.61-3.19A146.1,146.1,0,0,0,192,94c-13.83-5.45-33.19-5.54-46.06,0,2.35,6.6,2.5,13.48,2,20.44a24.78,24.78,0,0,1-6.36,15.4c-11.54,12.56-18.36,27.66-23.59,43.6-3,9.18-6,18.35-8.65,27.64-3.19,11.31-8.35,21.73-14,31.93-8.82,16-22.37,26.24-40,30.88-6.85,1.8-13.8,1.06-20.52-1.31-8.11.48-10.07-6-11.06-11.48-2-11-1-22.21,1.65-33.23,1.18-4.91,1.74-10,4.21-14.5,1.95-.24,3.9-.57,5.87-.71,21.23-1.47,36.92-10.66,45.51-31,5.23-12.42,10.13-25.14,19.94-35.15,2.91-3,4.8-7.15,6.49-11.06,4.06-9.36,1.94-13.42-8.15-16.79.63-2.85,4.6-4.52,2.93-8.19A37.66,37.66,0,0,0,108,85.21,12.9,12.9,0,0,0,110,82.94c2-3.83,7.55.11,9.27-4.26,1.34-3.39,2.5-6.87,4-10.16,2.43-5.19,7.07-8.3,11.34-11.83C148.63,45.1,164,36.13,181.53,31ZM38.12,228.15a8.19,8.19,0,0,0-4.2,7.14c-.08,1.64.29,3.64,2.07,4,2,.44,2.67-1.51,2.9-3C39.29,233.76,39.7,231.14,38.12,228.15Z"/><path class="cls-1" d="M108,85.21a37.66,37.66,0,0,1-5.8,15.19c-5.12,1.72-7.87,6.76-12.79,8.94-4.4,2-9.94,2-14.07,7.32,9.87.19,16.72-4.48,23.93-8.07,10.09,3.37,12.21,7.43,8.15,16.79-1.69,3.91-3.58,8.09-6.49,11.06-9.81,10-14.71,22.73-19.94,35.15-8.59,20.38-24.28,29.57-45.51,31-2,.14-3.92.47-5.87.71A59.57,59.57,0,0,1,9.13,187.1c-2.11-2.54-4.41-4.7-3.22-8.62,1.36-4.5-5.62-9-.27-13.66-1-10.25,6.14-16.75,11.22-24.15,2.62-3.8,5.76-7.24,8.7-10.82,3.54-4.29,7.43-7.82,13.29-9,3.74-.76,8.29-3.4,8-7.09-.3-4.35-.22-10-5.35-12.74-3.59-2-6.7-4.17-11.21-4.93-7.11-1.2-14.67-3.2-16.59-12.56-.83-4-1.7-3.87,1.74-10.63C10.22,68.19,3.71,65.28.86,57.5-1.2,51.9.67,48.73,4.1,46.93s3.62-3.28,2.75-6C5,35.09,5.15,29.12,5.43,23.12c.48-10.38,4.7-17,14.77-19.83,22.4-6.3,44-3.6,64,8.49,9,5.46,12.33,14.6,12.84,24.67a100.38,100.38,0,0,1-1.4,24.88c-1.05,5.29-1.9,10.32,5.64,12.43C106.27,75.15,106.88,80.7,108,85.21ZM13,47c.55.66,1.06,1.7,1.92.39.08-.13-.72-.82-1.1-1.25-.36-.95-.33-2.89-1.81-2C10.81,44.86,12,46.21,13,47ZM50.82,72.13a113.78,113.78,0,0,1-28-1.33c9.51,6.82,20.41,7.6,28.94,2.58,1.16-.27,3-1,2.53-1.85C53.18,69.55,51.87,71.09,50.82,72.13ZM32.39,173.54c5.53-.5,10.15-2.33,12.93-7.66,3.27-6.27,1.15-11.44-2.75-16.38-5.9-7.47-14-6.82-17.82,1.84a33.19,33.19,0,0,0-2.6,12.39C22,169.38,26.94,173.6,32.39,173.54ZM58.82,26.93a21.56,21.56,0,0,0,2.29,0c2.83-.24,6.26,1,7.88-2.59,1.74-3.89,0-7.12-2.44-10C61.74,8.53,55.19,8.18,48.36,8.47c-5,.22-7.1,3.16-7.67,7.55s1.15,7.59,5.64,9.26C50.2,26.71,54.17,26.49,58.82,26.93ZM80.4,59.31a8.78,8.78,0,0,0,5.91-6.92c.39-1.88-1.57-2.42-2.48-2.16-3.27.9-6.07,2.61-6.17,6.58C77.63,58.36,78.65,59.09,80.4,59.31ZM93.71,90.49c-.65-1.07,0-3.51-2.31-3.37-3.69.23-5.75,2.62-6.24,6.23-.24,1.72.07,3.35,2.33,3.31C91.31,96.59,93.54,94.75,93.71,90.49ZM18.6,48.62,17.2,51c4.74,3.54,10,5.68,16.76,4.08Z"/><path class="cls-2" d="M181.13,844.47c0-2.64.06-5.27,0-7.9-.06-3-.44-6-.29-8.94.39-7.71,3.6-12.69,8.2-13.18s7.63,2.78,10,10.57c5.34,17.45,5.71,35.3,3.61,53.21-.54,4.56-.83,10.52-8,10.63-2.22-11-2.58-22.3-6.92-32.85C186,851.84,185.15,847.28,181.13,844.47Z"/><path class="cls-2" d="M154.57,656.93a87.5,87.5,0,0,0,11.68-18.63c7,2.17,9.16,7.85,10.49,13.6,3.23,14-1.88,26-9.72,37.26-1.62,2.31-4,1.88-6.31,1.93q-1.89-13.33-3.79-26.66C156.55,661.8,156.48,659.08,154.57,656.93Z"/><path class="cls-2" d="M134.13,579.76c-.19-7.16,1.87-14.34-.6-21.51a4.89,4.89,0,0,1,2.45-6c2.34-1.23,4.61-.37,6.49,1a15.72,15.72,0,0,1,4.06,4.27c9,14.28,11.3,29.32,4.66,45.22-.32.77-1.38,1.24-2.1,1.85C150.57,592.42,140.88,587,134.13,579.76Z"/><path class="cls-2" d="M269.11,160.28c-6.46-5.43-9.32-13.58-14.88-19.71-1.59-1.75-1.24-3.76.24-5.4,3-3.38,4.35-8.32,9.07-10.22a21.5,21.5,0,0,1,5.84,15.81C269.15,147.27,270.45,153.79,269.11,160.28Z"/><path class="cls-3" d="M183,1004.55l-3.32.16a6.92,6.92,0,0,1,.62-6.28l2.84.32C183.06,1000.68,183,1002.62,183,1004.55Z"/><path class="cls-2" d="M149.18,604.45c-.12,2.13-.93,3-2.93,1.53C146.44,603.91,147.86,604.29,149.18,604.45Z"/><path class="cls-2" d="M162.54,301.84a3.58,3.58,0,0,1-4.42-3c-1-4.86-2.53-9.92-2-14.71,1.23-11.82,2.23-23.76,7.21-34.9a63.26,63.26,0,0,1,15-20.82c9.52-8.84,20.86-9.34,32.65-7.88,4.83.6,8.41,4,11.3,7.66,14.6,18.52,18.14,43.7,1.8,65-3.67,4.78-5.72,11.44-12.94,12.68,0-6.94.19-13.89.06-20.84-.17-8.6-4.1-16.35-11.47-19.48s-15-.67-21.92,5.18C167.88,279.18,163.25,289.36,162.54,301.84Z"/><path class="cls-4" d="M197.16,1022.3c-2.12-.63-4.72-.09-6.17-2.51,1.35-1.83,3.77.25,5.36-2.47-1.33-1.76-5.44-.08-6.31-3.13,8.13.34,10.53-1.21,13-9.18a54.45,54.45,0,0,0,1.54-27.48c-.93-4.51-.76-9.16-2.29-13.51,5.77,12.81,5.42,26.17,3.49,39.66-.72,1.69-2.24,3.9-.12,5,1.66.84,2.13-1.64,2.72-3l3-2.8-.16-.16c-.56,4.24-4.91,7.09-4.29,11.76h.3c-1.93-.58-2.61.7-3.17,2.14l-.77.11-.13.77c-1.46.53-3,1-2.12,3.12l.15-.15c-2.36-1.24-3.48,0-4.13,2.1Z"/><path class="cls-3" d="M203.22,1017.48l.13-.77.77-.11a4.63,4.63,0,0,0,3.17-2.14H207c.71.6,2.07,1.29,2,1.79-.56,4.12-5.6,9.3-9.75,9.71-2.38.23-1.68-2.25-2.09-3.65l0,.24c1.72,0,3.32-.28,4.13-2.09l-.15.15A3.83,3.83,0,0,0,203.22,1017.48Z"/><path class="cls-3" d="M172.83,810.21c.1-4.86,2.57-7.67,8.38-8.77-1.16,4.85-4.76,6.95-7.49,9.65Z"/><path class="cls-3" d="M178.76,690.11a10.7,10.7,0,0,1,1.18-2.56c1.16-1.39,2.67-3.49,4.43-1.3,1.07,1.34-.64,2.84-2,3.72a17.51,17.51,0,0,1-2.56,1.18C179.46,690.82,179.1,690.47,178.76,690.11Z"/><path class="cls-4" d="M183,1004.55c0-1.93.1-3.87.14-5.8,1.93-1.36,2,.39,2.07,1.41.12,2.84,0,5.7,0,8.54l.15-.16C183.31,1007.94,183.54,1006,183,1004.55Z"/><path class="cls-3" d="M177.79,693.2c-.17,3.27-1.12,6.11-4.26,7.74l-.55-.55c.16-3.26.86-6.27,3.77-8.27C177.11,692.47,177.46,692.83,177.79,693.2Z"/><path class="cls-4" d="M211.44,1002.85l.77-2c.09.23.31.57.24.66a14.22,14.22,0,0,1-1.17,1.16Z"/><path class="cls-4" d="M185.17,1008.7l1.38.55-.69.84-.54-1.55Z"/><path class="cls-3" d="M171.75,813.11c-.42.33-1.09,1-1.23.93-1.24-.83-.21-1.29.4-1.79Z"/><path class="cls-3" d="M173.72,811.09l-2,2-.83-.85c.63-.68,1.27-1.35,1.91-2C173.13,810.5,173.42,810.8,173.72,811.09Z"/><path class="cls-2" d="M200.26,770.62a5.88,5.88,0,0,1,.63,1.35c0,.16-.4.43-.63.65a6,6,0,0,1-.62-1.34C199.6,771.12,200,770.85,200.26,770.62Z"/><path class="cls-3" d="M173.53,700.94l-1.19.63c.22-.39.43-.78.64-1.18Z"/><path class="cls-3" d="M176.75,692.12l2-2c.34.35.7.7,1.08,1l-2.05,2.05C177.46,692.83,177.11,692.47,176.75,692.12Z"/><path class="cls-3" d="M99.29,108.59c-7.21,3.59-14.06,8.26-23.93,8.07,4.13-5.35,9.67-5.36,14.07-7.32,4.92-2.18,7.67-7.22,12.79-8.94C103.89,104.07,99.92,105.74,99.29,108.59Z"/><path class="cls-3" d="M51.76,73.39c-8.53,5-19.43,4.23-28.94-2.59a113.78,113.78,0,0,0,28,1.33A9,9,0,0,1,51.76,73.39Z"/><path class="cls-3" d="M18.6,48.62,34,55.05c-6.75,1.6-12-.54-16.76-4.08Z"/><path class="cls-3" d="M50.82,72.13c1-1,2.36-2.58,3.47-.6.49.88-1.37,1.58-2.53,1.85A9.5,9.5,0,0,0,50.82,72.13Z"/><path class="cls-3" d="M13,47c-.95-.77-2.14-2.12-1-2.83,1.48-.92,1.45,1,1.81,2Z"/><path class="cls-3" d="M13.77,46.12c.38.43,1.18,1.12,1.1,1.25C14,48.68,13.5,47.64,13,47Z"/><path class="cls-1" d="M201.25,1020.45c-.81,1.81-2.41,2.06-4.13,2.09C197.77,1020.41,198.89,1019.21,201.25,1020.45Z"/><path class="cls-1" d="M208.41,1005.65c-.59,1.36-1.06,3.84-2.72,3-2.12-1.07-.6-3.28.12-5Z"/><path class="cls-1" d="M203.22,1017.48a3.83,3.83,0,0,1-2.12,3.12C200.2,1018.47,201.76,1018,203.22,1017.48Z"/><path class="cls-1" d="M207.29,1014.46a4.63,4.63,0,0,1-3.17,2.14C204.68,1015.16,205.36,1013.88,207.29,1014.46Z"/></g></g></svg>