<svg xmlns="http://www.w3.org/2000/svg" viewBox="0 0 315.92 453.53"><defs><style>.cls-1{fill:#2a9dd5;}.cls-2{fill:#fbac09;}.cls-3{fill:#313330;}.cls-4{fill:#6ee54b;}</style></defs><g id="Layer_2" data-name="Layer 2"><g id="Layer_1-2" data-name="Layer 1"><path class="cls-1" d="M28.07,53.31c6.53-6,14-9.92,23-9.19,5.61.46,8.14-2.2,11-6.39A70.61,70.61,0,0,1,96.24,11.06c10.32-3.78,20.9-7.15,32-9,31-5.18,60.18-.8,87.43,15.05,5.1,3,9.21,4.25,15.28.83,8.8-4.94,19-5.46,29.14-4.28,6.64.77,11.09,4.15,13.24,10.44.65,1.87.71,3.95,2.17,5.49-2.27-.39-4.54-.85-6.83-1.18-11.12-1.61-15.21,2-14.69,13.43.65,14.08,8.36,24.14,19.29,32.05,3.91,2.82,8.72,3.17,13.4,2.81,5.33-.41,8.36-3.5,8.83-8.93a45,45,0,0,0-.43-6.93c.51-3.06,2.66-3.57,5.26-3.38a18,18,0,0,1,9,4c8.22,6.4,8.89,16.87,1.56,24.13a34.71,34.71,0,0,1-4.61,3.78c-8.14,5.66-9,5.93-5.6,15,4.92,13.32,4.61,27.27,6.49,40.93a536.5,536.5,0,0,1,4.4,87.4c-.55,20.8-2.08,41.58-3.45,62.36-.2,3.06-1,5.88,1.33,8.39-10.8,10.5-16.89,23-15.82,38.36-6.93,1.42-11.31,5.47-14.71,11.82-3.57,6.67-8.8,12.4-14,18-10.39,11.29-22.4,20.8-33.5,31.32-6.46,6.12-11.51,13.72-19.69,18.06-3,1.57-4.79,4.72-6,7.81-2.69,7.16-7.89,12.19-13.44,17a30.67,30.67,0,0,1-3.57-1.57c-13.5-8.13-27.56-8.77-42-3-3,1.19-6.38,2.47-6.6,6.64-3.44-5.2-6.55-10.67-10.43-15.52-2.75-3.42-1.48-7.57-3.45-11.08-10-17.89-22.75-34-33.91-51.16-4.63-7.12-11.35-15.05-22.16-14.73,2.81-.91,5.57-1.43,4.5-5.82-4.46-18.17-13.78-32.88-30-42.55-2.73-1.63-5.85-2.67-8.3-4.84l-4.45-3c-.34-1.61-.78-3.23.08-4.82,7.76-14.16,7.63-29.93,8.85-45.32,1.06-13.26,2.15-26.69,1.11-39.89-.65-8.27,0-16.69-1.58-24.81-2.05-10.76-5-21.35-7.81-31.95-.41-1.56-1.17-2.95-1.05-4.69.43-6.15-3-8.47-8.63-10-7.38-2-15.18-4-19.36-11.67-.75-2.67-1.45-5.5,3-4.63,4,.77,7.68,1,11.12-1.47,7.42-3.79,14.79-7.68,18.13-16,3.46-8.62,6.92-17.27,5.5-26.9C43.08,65.7,38.32,58,28.07,53.31ZM195.44,220l-.19.09c1.92-1.19,4.74-.11,6.23-2.44,12.13-6.63,24.33-13.15,36.37-19.94,5.26-3,9.13-6.22,7.63-14-1.77-9.25-3.7-18.73-2.23-28.43.72-4.76,1.14-9.21,6.32-11.39,2.77-1.17,1.94-2.92.34-4.57-.63-3.8-3.67-6.22-5.38-9.4-2.76-5.1-1.91-7.63,3.19-10.52,3-1.69,6.89-1.6,9.77-5-9.44-5.52-10.73-14-9.69-23.44.55-1.53.67-3.47,1.7-4.51,4.17-4.23,3.37-7.49-.64-11.52C243,69,239.33,61.4,237,53.45c-1.76-6-5.47-8.39-11.33-9-8.51-.87-17.1-1.46-25.25-4.47-6-2.49-12.2-4.78-18.14-7.51-12.24-5.62-19.16-1.67-21,12.22,0,1.66.06,3.33-.06,5-1,14-.51,27.83,4.38,41.3,3.64,10,5.51,20.57,7.12,31.09,1.84,12-.07,23.07-9.54,31.78-6.1,1.94-12.16.67-18.11.59-.52-3.31,3.94-2,2.77-5.45-9-.05-15.77,4.95-22.49,10.32-2.73,2.19-3.75,6.43-8,6.78-2-6,3.26-8.55,6-12.23a27.62,27.62,0,0,1,3.66-3.3c1.22-1.13,3.17-1.85,3-5.05-9.11,4.54-14.17,11.44-18.23,19,1.75,2.25,4.12-.56,5.58,1.48,1,3.76-1,5.34-4.3,6-2.84-3.44-6.5-2.26-9.87-1.5a144.21,144.21,0,0,1-27,3.47c-.53-.36-1.26-.59-1.55-1.09-2.52-4.31-6.78-5.43-10.94-4.41-3.78.92-3.22,5.4-3.84,8.41-2.58,12.56-4.15,25.22-2.46,38.06a136.41,136.41,0,0,1,2.23,18.8,98.36,98.36,0,0,0,1.92,14.82c1.88,8.45,7.37,10.77,14.53,6.24,6.43-4.07,12.64-8.49,18.94-12.76,5.26.67,4.89,6.31,7.91,9,4.78,4.2,3.82,8.62.45,13.12-14.17,10.56-31.07,16.52-45.64,27,4,3.88,9,5.79,13.41,8.68,12.19,8,20.56,18.5,22.25,33.47-1.7,3.43-2.18,6.76.43,10.05,3,3.82,4.9,8.53,8.85,11.67,4.46,7.39,8.63,14.95,12.94,22.42,5.69,9.88,8.44,22,19.43,28.25.53.31.83,1,1.24,1.55,4.67,6.09,5.61,6.47,12,3.73s9.47-7.87,9.3-14.79c-.31-13-.41-26-1.22-38.94-.39-6.26,1.39-12.7-1.33-18.78.51-8.55,1-17.09-3.06-25.08-3.26-11.45-8.36-22.33-10.81-34-.88-4.83-1.2-10.29-7.71-10.84a16.14,16.14,0,0,1-12.94-7.66c-1.11-1.7-2.54-2.94-4.79-2.87-5.76.19-6.68-4.08-7.6-8.34,1.84-4.45.89-6.21-3.16-5.85-4.15-3-8.5-6-2.27-11.22a3.9,3.9,0,0,0,.88-2.71c.14-11.35,5.41-20.17,13.33-27.81,3.66-3.52,4.11-7.36.15-11.12q-1.66-7.32-3.31-14.63c3-3,6.22-5.69,8.88-9.09a53.23,53.23,0,0,1,9.86-9.75c3.15-2.35,6.88-5.92,10.89-.45,1.19,1.61,3.76,1,5.69.84a27.14,27.14,0,0,1,14.36,3.26c5.37,2.54,7.28,7.24,7.92,12.73.12,6.91.92,13.87-1.93,20.52-1.27,2.95-.06,4.89,2.54,6.58a48.67,48.67,0,0,1,14.25,15c1.8,2.81,4.19,3.86,7.19,4.24l-.23-.11C194,221,194.72,220.84,195.44,220Zm-11.78,12c-.56,2.05-2.52,3.75-1.84,6.09s1.71.05,2.57,0a5.11,5.11,0,0,0,2.25-5.64C186.11,230.17,185,230.38,183.66,232Zm-58.34-56.88c.22,1.55-2,3.11-.65,4.34,2,1.79,3.21-.87,4.8-1.52,1.59-1.46,2.21-3.32.39-4.69C127.78,171.69,126.65,174,125.32,175.13Zm125.87,47.12c.92-3.88,8-1.75,7.11-8.31-5.89,4.2-12.85,3.85-19,6.49-11.49,8.63-24.44,14.48-37.69,19.75-3.43.84-5-.51-4.86-4,.13-3.74.71-7.55-.48-11.18-2.66.41-2.42,2-2.49,3.13-.69,13.12-3.18,24.68-17.66,30.27-6.42,2.48-7.23,7.69-5.18,14.6q1.08,16.53,2.14,33.06c.78,9.07.5,18.32,4.49,26.86-.66,9.25,2.88,18,3.35,27.15.63,12.57,2.48,25.12,4.48,37.57,1.14,7.06,3.29,7.83,9.54,4.25a87.94,87.94,0,0,0,22.33-18.22c7.91-9,15.29-18.41,24-26.67,1.07-.78,2.05-1.62,1.93-3.13l-.42.07c5.42-2.68,18.11-14.3,21.54-19.72,4.75-5,9.56-10,14.21-15.06,4.06-4.45,5.26-9.4,3.47-15.49-1.55-5.29-3.38-10.7-2.88-16.42-1.14-6.49-2.09-13.08-9.31-16-7.81-12.24-11.25-26.08-14.69-39.93-1-3.27.11-5.07,3.56-5.35,3.07-.24,5.57-1.14,6.06-6.22-4.71,3.14-9.06,3.93-13.59,2.39Zm-83.83,23.88c3.2-6.89,2.71-13.81.17-20.75-.93-2.84-1.64-5.78-2.83-8.51-3.4-7.77-9.44-11.71-17.95-12.08s-16.05,2.05-20.48,9.79c-6.21,10.85-7.26,22,0,33,1.44,2.2,3,4.33,4.49,6.49.64,1,1.39,1.93,2.77,1.87l-.06-.06c4.94,7.85,12.72,8.16,19.95,5.66,6.94-2.39,14-6.24,14-15.55ZM291.5,156.72c1.68-1.51,1.42-3.58,1.67-5.54,1.51-11.87-2.35-23-4.77-34.31-.58-2.69-1.24-6.59-4.91-6.67s-5.58,3.22-6.85,6.35a35.9,35.9,0,0,0-1.31,5.8,102,102,0,0,0-2,24.78c-5.67,7.48-4.94,15.78-3.49,24.34a25.31,25.31,0,0,1-.48,8.91c-1.62,8.13-.05,15.74,2.88,23.28a334.37,334.37,0,0,1,13.8,43.45c1.23,5.18,2.77,10.61,7,14.77a6.21,6.21,0,0,0,2.5-5.69c-.25-8.63-.4-17.27-1-25.88C292.89,205.8,291.48,181.29,291.5,156.72ZM60,122.12a76,76,0,0,1,6.44,6.11c5.06,6,11.5,10,18.53,13.18,15.3,6.88,28,3.13,37.12-10.69,6.05-9.13,7.84-19.31,9.57-30,2.58-16-2-30.26-7.12-44.59-2.47-6.95-4.8-7.4-12.47-6.31C96,52.13,84.37,62.07,73,72.28c-5.38,4.81-7.89,11-7.81,18.63.08,7.19-.29,14.67-4.71,21-5.63,6.93-10,15-17.82,20.05,4.5.45,6.66-2.57,9.29-4.88C54.31,125,56,121.64,60,122.12ZM143.7,171c-2.14.14-2.48,1.85-2.6,3.46-.14,1.91.81,3.28,2.87,3,1.7-.22,3.16-1.1,3-3.2S145.39,171.5,143.7,171Z"/><path class="cls-2" d="M295,60.85a45,45,0,0,1,.43,6.93c-.47,5.43-3.5,8.52-8.83,8.93-4.68.36-9.49,0-13.4-2.81C262.31,66,254.6,55.93,254,41.85c-.52-11.45,3.57-15,14.69-13.43,2.29.33,4.56.79,6.83,1.18l0,.49a2.21,2.21,0,0,0,1.95,1.77l.13.08,2,1.69.21.21a13.72,13.72,0,0,0,5.78,5.9l.15.16c.58.67,1.17,1.33,1.75,2l.1.13a4.14,4.14,0,0,0,2.07,3.7l.13.24a4.09,4.09,0,0,0,1.89,3.75l.08.29a4.72,4.72,0,0,0,1.85,4.1.72.72,0,0,1,.19,1C293.76,57.09,292.94,59.3,295,60.85Zm-9.55,3c1.25-.29,3-.35,2.73-2-.35-2.19-2.61-2.48-4.33-3-1.09-.35-1.8.58-1.88,1.56C281.81,62.84,283.33,63.72,285.49,63.87Zm-10.1-19.21a19,19,0,0,0-1.89-2.08,1,1,0,0,0-1.67.43,1.84,1.84,0,0,0,1.82,2.62C274.14,45.67,274.67,45.09,275.39,44.66Z"/><path class="cls-2" d="M41.2,77.08c1.42,9.63-2,18.28-5.5,26.9-3.34,8.34-10.71,12.23-18.13,16-6.27-.24-10.36-3.87-13.64-8.76-2.06-7.75-.57-14.8,3.93-21.39,1.62-2.37,3.63-4.71,3.32-7.95l2.55-2.09c1.12.14,2.18.08,2.85-1a15.77,15.77,0,0,1,8.81-7.63c.32,0,.65,0,1,0,4-.24,6.16-5.84,10.21-4.29S38.53,74.12,41.2,77.08ZM13.27,95.92a4.53,4.53,0,0,0-1.49,5.28c1.32,3.32,3.29,3.67,5.27.35A20.44,20.44,0,0,0,18.72,98c.47-1.86,1.2-4.26-1.16-5.17S14.34,94.35,13.27,95.92Z"/><path class="cls-2" d="M36.34,302.24c2.45,2.17,5.57,3.21,8.3,4.84,16.26,9.67,25.58,24.38,30,42.55,1.07,4.39-1.69,4.91-4.5,5.82-3.41,1.77-5.8-2.09-9-1.61-2.33-6.66-9.49-6-14.07-9.34l-.2-.22c-2.66-3.13-4.57-7.18-9.36-7.74-1.5-3.68-4.27-6.84-4.55-11-.14-5.82-.33-11.64-.39-17.47C32.61,305.39,32.84,302.73,36.34,302.24Zm7.4,29.52c1.12,2.22,2.95,2.68,4.49.9,1.68-2,.35-3.46-1.67-4.38a1.36,1.36,0,0,1-1.07-1.15c-1.17-1.49-2.3-3.78-4.51-1.77-1.93,1.77-.61,3.5,1,4.87Z"/><path class="cls-2" d="M140.13,447.94c.22-4.17,3.61-5.45,6.6-6.64,14.44-5.76,28.5-5.12,42,3a30.67,30.67,0,0,0,3.57,1.57c-3.59,4.16-7.94,6.19-13.56,6.72-10,.95-19.93,1.72-29.9-.59C145.55,451.25,142.93,449.52,140.13,447.94Z"/><path class="cls-2" d="M293.58,341.85c-1.07-15.4,5-27.86,15.82-38.36q1.2,2.5,2.38,5-.07,7.61-.14,15.23C308.53,332.66,299.93,336.14,293.58,341.85ZM302.33,325c2.77-.74,4.31-2.43,4.38-5.33,0-.32-1-1-1.39-.92C302.5,319.71,300.92,321.45,302.33,325Z"/><path class="cls-3" d="M41.2,77.08c-2.67-3-.46-8.6-4.63-10.19s-6.24,4-10.21,4.29c-.32,0-.65,0-1,0a25.47,25.47,0,0,1,2.68-17.83C38.32,58,43.08,65.7,41.2,77.08Z"/><path class="cls-3" d="M3.93,111.24c3.28,4.89,7.37,8.52,13.64,8.76-3.44,2.5-7.17,2.24-11.12,1.47-4.4-.87-3.7,2-2.95,4.63-4.83-4.66-4.35-9.48-.44-14.39,0,0,.59.14.59.14Z"/><path class="cls-4" d="M3.93,111.24l-.28.61s-.59-.13-.59-.14c-4.77-12,.32-21.26,8.13-29.81.3,3.24-1.71,5.58-3.33,7.95C3.36,96.44,1.87,103.49,3.93,111.24Z"/><path class="cls-3" d="M36.34,302.24c-3.5.49-3.73,3.15-3.71,5.8.06,5.83.25,11.65.39,17.47-2.8-8.64-1.08-17.47-1.13-26.24Z"/><path class="cls-4" d="M47.13,344.5c4.58,3.29,11.74,2.68,14.07,9.34-4.22-2-8.43-4.09-12.66-6.09C47.05,347.05,47.19,345.76,47.13,344.5Z"/><path class="cls-4" d="M37.57,336.54c4.79.56,6.7,4.61,9.36,7.74C41.49,344.51,39.92,340,37.57,336.54Z"/><path class="cls-4" d="M311.64,323.72q.06-7.62.14-15.23A15.19,15.19,0,0,1,311.64,323.72Z"/><path class="cls-4" d="M295,60.85c-2.1-1.55-1.28-3.76-1.29-5.78l6.57,2.4C297.7,57.28,295.55,57.79,295,60.85Z"/><path class="cls-4" d="M285.54,39.74a13.72,13.72,0,0,1-5.78-5.9A6.56,6.56,0,0,1,285.54,39.74Z"/><path class="cls-4" d="M293.56,54.1a4.72,4.72,0,0,1-1.85-4.1C293.83,50.68,293.57,52.45,293.56,54.1Z"/><path class="cls-4" d="M291.63,49.71A4.09,4.09,0,0,1,289.74,46C291.84,46.46,291.88,48,291.63,49.71Z"/><path class="cls-4" d="M289.61,45.72a4.14,4.14,0,0,1-2.07-3.7C289.48,42.55,289.87,44,289.61,45.72Z"/><path class="cls-4" d="M16.58,78.78c-.67,1.11-1.73,1.17-2.85,1C14.18,78.07,15.41,78.5,16.58,78.78Z"/><path class="cls-4" d="M277.44,31.86a2.21,2.21,0,0,1-1.95-1.77C276.63,30.15,277.39,30.62,277.44,31.86Z"/><path class="cls-4" d="M279.55,33.63l-2-1.69C278.78,31.85,279.57,32.27,279.55,33.63Z"/><path class="cls-4" d="M287.44,41.89c-.58-.66-1.17-1.32-1.75-2C287.08,39.85,287.51,40.65,287.44,41.89Z"/><path class="cls-3" d="M108.23,249.59c.92,4.26,1.84,8.53,7.6,8.34,2.25-.07,3.68,1.17,4.79,2.87a16.14,16.14,0,0,0,12.94,7.66c6.51.55,6.83,6,7.7,10.83-1.11-.23-2.71-1.58-3.15.33-1.09,4.78-2.32,9.63-2.54,14.49-.49,10.62,5.25,17,16.51,19.23,4.06,8,3.57,16.53,3.06,25.08-12.07-7.46-24.7-5.84-36.86-1.05-7.67,3-14,8.49-15.51,17.61-4-3.14-5.82-7.85-8.85-11.67-2.61-3.29-2.13-6.62-.43-10.05,3.94,2.16,7.6.42,10-2.16,8.47-9.2,15.24-19.43,13.82-32.81-1.34-12.65-6.32-23.93-13.81-34.15,3.37-4.5,4.33-8.92-.45-13.12-3-2.65-2.65-8.29-7.91-9,1.13-4.49-1.2-8.15-4-10.7C81.53,222.74,71.32,215,57.49,215c-1.69-12.84-.12-25.5,2.46-38.06.62-3,.06-7.49,3.84-8.41,4.16-1,8.42.1,10.94,4.41.29.5,1,.73,1.55,1.09a40.56,40.56,0,0,0,14.66,11.37c8.18,4,16.43,8.73,26.22,5.52,4,3.76,3.51,7.6-.15,11.12-7.92,7.64-13.19,16.46-13.33,27.81a3.9,3.9,0,0,1-.88,2.71c-6.23,5.22-1.88,8.18,2.27,11.2C104.75,246.41,106.32,248.09,108.23,249.59Z"/><path class="cls-3" d="M193.5,220.12c-3-.38-5.39-1.43-7.19-4.24a48.67,48.67,0,0,0-14.25-15c-2.6-1.69-3.81-3.63-2.54-6.58,2.85-6.65,2-13.61,1.93-20.52,2.17,2.61,4.13,1,5.93-.43,9.42-7.43,18.35-15.43,25.49-25.11,12.54-17,15.25-35.69,8.5-55.71C204.26,71.47,192,54.93,170.72,46.27c-3-1.23-5.91-3.34-9.44-1.57,1.84-13.89,8.76-17.84,21-12.22,5.94,2.73,12.09,5,18.14,7.52-.24.61-.84,1.36-.66,1.82,5.61,14.53,12,28.68,24.67,38.61,6.86,5.36,13.64,11.34,23.37,10.49-1,9.41.25,17.92,9.69,23.44-2.88,3.45-6.8,3.36-9.77,5-5.1,2.89-5.95,5.42-3.19,10.52,1.71,3.18,4.75,5.6,5.38,9.4-15,5.41-27.56,14.5-38.21,26.07-12.3,13.38-21.33,28.5-23,47.25C188.26,217,190.46,218.56,193.5,220.12Z"/><path class="cls-3" d="M264.36,334.19c-3.43,5.42-16.12,17-21.54,19.71-.74-2.15.79-3.75,1.42-5.54,4.29-12.11,2-18.43-9.23-24.44-6.81-3.63-14.24-6.51-21.94-5.48-12.93,1.72-25.42,5.27-35.45,14.45-4-8.54-3.71-17.79-4.49-26.86,2.1,2.13,4.43,2.6,7.12,1.15,4.23-2.27,9.1-12,8.36-16.85-1.74-11.23-5-14.44-17.62-17.36-2.05-6.91-1.24-12.12,5.18-14.6,14.48-5.59,17-17.15,17.66-30.27.07-1.16-.17-2.72,2.49-3.13,1.19,3.63.61,7.44.48,11.18-.13,3.52,1.43,4.87,4.86,4-1.6,1.14-3.23,2.25-4.81,3.43-7.16,5.37-7.38,6.37-3.9,14.9a85.52,85.52,0,0,0,10.29,18.07c5.43,7.44,12.66,13.43,22,13.83,17.68.77,33.23-4.67,44.57-19.23,7.22,3,8.17,9.55,9.31,16-.93-.16-2.39-.78-2.7-.41-4.68,5.51-10.41,10.14-14.12,16.47C255.62,314.75,256.22,323.36,264.36,334.19Z"/><path class="cls-2" d="M130.73,254.07c-1.5-2.16-3-4.29-4.49-6.49-7.23-11-6.18-22.15,0-33,4.43-7.74,11.86-10.16,20.48-9.79s14.55,4.31,17.95,12.08c1.19,2.73,1.9,5.67,2.83,8.52q-.08,10.38-.17,20.74l.07-.14c-9.54,8.4-19.71,14.55-33.12,9.46-.21-.07-.58.28-.87.43l.06.06C133.75,253.59,132.33,253.7,130.73,254.07Zm5.77-31.82c-2.49.22-3.1,2-3.46,4.06-.32,1.8.09,3.51,2.08,3.69,2.47.22,3.3-1.73,3.45-3.81C138.69,224.55,138.44,222.9,136.5,222.25ZM159,240.3c0-2.22-.52-3.08-1.65-2.62a3.16,3.16,0,0,0-1.59,2c-.23.94.29,1.92,1.55,1.54A6.51,6.51,0,0,0,159,240.3Z"/><path class="cls-3" d="M291.5,156.72c-4-7.06-9.59-11.14-18.15-9.59a102,102,0,0,1,2-24.78,35.9,35.9,0,0,1,1.31-5.8c1.27-3.13,3.13-6.43,6.85-6.35s4.33,4,4.91,6.67c2.42,11.3,6.28,22.44,4.77,34.31C292.92,153.14,293.18,155.21,291.5,156.72Z"/><path class="cls-3" d="M113.85,176.25c-.25-1.41-.49-2.82-.73-4.23,3.29-.66,5.32-2.24,4.3-6l-.07.07c4.25-.35,5.27-4.59,8-6.78,6.72-5.37,13.45-10.37,22.49-10.32,1.17,3.43-3.29,2.14-2.77,5.45,6,.08,12,1.35,18.11-.59-1.57,2.48.65,4.78.35,7.21a27.14,27.14,0,0,0-14.36-3.26c-1.93.13-4.5.77-5.69-.84-4-5.47-7.74-1.9-10.89.45a53.23,53.23,0,0,0-9.86,9.75C120.07,170.56,116.86,173.27,113.85,176.25Z"/><path class="cls-3" d="M133.44,255.88c.29-.15.66-.5.87-.43,13.41,5.09,23.58-1.06,33.12-9.46-.07,9.31-7.1,13.16-14,15.55C146.16,264,138.38,263.73,133.44,255.88Z"/><path class="cls-3" d="M117.42,166c-1.46-2-3.83.77-5.58-1.48,4.06-7.59,9.12-14.49,18.23-19,.14,3.2-1.81,3.92-3,5.05a27.62,27.62,0,0,0-3.66,3.3c-2.77,3.68-8,6.19-6,12.23Z"/><path class="cls-3" d="M60.45,111.94c-1,3.35-2.3,6.69-.48,10.18-4-.48-5.66,2.88-8,5-2.63,2.31-4.79,5.33-9.29,4.88C50.49,126.91,54.82,118.87,60.45,111.94Z"/><path class="cls-3" d="M255.16,231.25c-1.39-3-4.23-5.43-4-9.18,4.53,1.54,8.88.75,13.59-2.39-.49,5.08-3,6-6.06,6.22C255.27,226.18,254.11,228,255.16,231.25Z"/><path class="cls-3" d="M251.19,222.25c-3.72-2-7.46-4-11.84-1.83,6.1-2.63,13.06-2.28,19-6.48C259.16,220.5,252.11,218.37,251.19,222.25Z"/><path class="cls-3" d="M167.36,246.13q.09-10.37.17-20.74C170.07,232.32,170.56,239.24,167.36,246.13Z"/><path class="cls-4" d="M108.23,249.59c-1.91-1.5-3.48-3.18-3.16-5.87C109.12,243.38,110.07,245.14,108.23,249.59Z"/><path class="cls-3" d="M184.39,238.14c1.14-2.21,2.48-4.45-.73-6.13,1.29-1.63,2.45-1.84,3,.49A5.11,5.11,0,0,1,184.39,238.14Z"/><path class="cls-3" d="M129.47,178c.34-3.48-.63-5-4.15-2.82,1.33-1.13,2.46-3.44,4.54-1.87C131.68,174.63,131.06,176.49,129.47,178Z"/><path class="cls-3" d="M195.25,220.09l6.23-2.44C200,220,197.17,218.9,195.25,220.09Z"/><path class="cls-3" d="M193.27,220h2.17C194.72,220.84,194,221,193.27,220Z"/><path class="cls-3" d="M241.31,357c.44-1.17-.38-3.12,1.93-3.13C243.36,355.35,242.38,356.19,241.31,357Z"/><path class="cls-3" d="M130.73,254.07c1.6-.37,3-.48,2.77,1.87C132.12,256,131.37,255.11,130.73,254.07Z"/><path class="cls-4" d="M285.49,63.87c-2.16-.15-3.68-1-3.48-3.49.08-1,.79-1.91,1.88-1.56,1.72.56,4,.85,4.33,3C288.48,63.52,286.74,63.58,285.49,63.87Z"/><path class="cls-4" d="M13.27,95.92c.48,2.4-2.13,6.88,3.78,5.63-2,3.32-4,3-5.27-.35A4.53,4.53,0,0,1,13.27,95.92Z"/><path class="cls-4" d="M43.74,331.76c3.21.69,4.09-.52,2.82-3.47,2,.91,3.35,2.42,1.67,4.37C46.69,334.44,44.86,334,43.74,331.76Z"/><path class="cls-3" d="M45.49,327.13c-1.3-.7-2.8-1.81-3.9-.19-.46.69.23,2.17.39,3.29-1.61-1.37-2.93-3.1-1-4.87C43.19,323.35,44.32,325.64,45.49,327.13Z"/><path class="cls-4" d="M302.33,325c-1.41-3.54.17-5.28,3-6.25.34-.12,1.4.6,1.39.92C306.64,322.56,305.1,324.25,302.33,325Z"/></g></g></svg>