<svg xmlns="http://www.w3.org/2000/svg" viewBox="0 0 598.9 764.1"><defs><style>.cls-1{fill:#020202;}.cls-2{fill:#6ee54b;}.cls-3{fill:#313330;}</style></defs><g id="Layer_2" data-name="Layer 2"><g id="Layer_1-2" data-name="Layer 1"><path class="cls-1" d="M482.9,14.07c1.79-7.29,5.78-12,13.83-12.56,6.27-.45,11,1.22,13.87,7.21,2.3,4.76,5.39,9,10.12,11.75,9.11,21,13.12,43.27,16.75,65.72,4.4-17.29,7.94-34.54,3-52-2.73-9.71-3.83-20.24-11.4-28,4.55-6.47,8.87-7.6,16.17-4.3,7,3.17,11.33,9,14.94,15.39,6.92,12.17,10.06,25.64,12.22,39.29,2.56,16.14,2.76,32.4,1.71,48.7-.74,11.52-2.19,23.09,5.79,33.4,1.65,2.13,4.51,6.18,1.63,10-7.37-3.66-10.06-11.29-14.26-17.48s-9.51-8.73-16.64-9.16c-12.54-.76-23,5-28.1,18.12-8.83,22.67-6.36,45.07,5.9,66.2,3.31,5.7,8.23,10,14.57,11.41,14.16,3.11,28.49,5.57,39.36-8.09.36-.46,1.19-.55,1.8-.81,2.44,4.51,1.24,8.82-.76,13.06-2.14,4.55-4.47,9.42-8.6,12-5,3.13-4.83,7-4.49,11.73,1.62,22.59,3.93,45.17,3.27,67.84-1.2,40.94-2.81,81.87-4.38,122.8-.58,15.3-.45,30.62-2,45.9-2.61,25.51-4.42,51.09-7.18,76.57-3.48,32-1.43,63.79,3.39,95.53,4.38,28.89,14.05,55.91,27.06,81.92,3,6.1,5.37,12.57,8.44,19.85-12.78-1-24.69-1.85-36.65-1.72-35.62.4-71.25,1.32-106.85,2.25-41.2,1.06-82.41,1.45-123.61,2.37-62.6,1.39-125.2,3-187.83,3-15.3,0-30.55,1.87-45.88,2.11-17.73.29-35.31-.62-52.67-4.09S13,748.65,3.09,733.07c-5.17-8.12-3.64-25.75,3-32.23a18.43,18.43,0,0,1,9.11-4.8c9.31-2.18,18.48-3.89,28.25.58-1.47-6.14-6.46-6.89-9.3-10-12.06-13-15.43-28.25-13.78-45.42,1.21-12.56,6.84-21.87,17.11-29.07,12.88-9,25.95-8.83,37.6,1.3a12.32,12.32,0,0,0,1.67,1,274.51,274.51,0,0,1,30.62,29.69c13.23,15,29.94,24,48.13,31,1.49.57,3.17,1.14,4.48-1.39-4.68-3.88-9.56-7.7-14.19-11.8-11.24-10-20.94-21.42-30.63-32.82s-18.1-23.82-20.5-39.2c8.1-7.31,17.58-4.54,26.58-3.11,4.66.74,9,3.52,13.48,5.37,12.1,9.67,24.09,19.49,36.34,29C185,632,199.23,642.32,216.61,647c2.46.67,4.91,1.88,7-.27a2.4,2.4,0,0,0-1.28-2.76c-14.24-8.54-25.38-21.09-39.68-29.76-12.41-7.51-22.25-18.72-33-28.52-2.42-2.19-5.19-4.34-4.68-8.26,9-4.46,17.72-3.12,26.6.45,2.94,1.18,5.69,3.57,9.28,2.61,1,2.46,3.27,3.18,5.35,4.14a125.08,125.08,0,0,1,23.92,14.26c14,10.72,29.89,17,46.5,22,2.08.63,4.12,1.9,7-.24a265,265,0,0,1-29.69-21.93c-13.08-10.82-23.79-24.14-37.45-34.26-2.22-1.65-3.87-3.65-3.85-6.61l0,0a2,2,0,0,0,2.23-1.31c13.59-6.94,26.55-4.05,39.41,2.29,4,2,7.48,5.52,12.5,5.12,1.13,4.29,5.12,5.81,8.17,8.08,14.53,10.82,29.21,21.44,43.83,32.13a2.08,2.08,0,0,0,2.48,1.25l.07.06c0,1.44.68,2,2.1,1.62l.25.21c-.26,1.55.31,2.11,1.83,1.55l.41.4c-.5,1.59.06,2.1,1.62,1.6l.32.24c-.6,2.77,1.23,2.82,3.13,2.8l2,1.73c-.56,4.46,3,6.43,5.56,8.86,12.42,12,24.18,24.59,37.28,35.93,15.33,13.27,30.85,26.14,47.71,37.4,8.57,5.71,17.8,10.22,26.93,14.88,11.12,5.68,23,2.71,34.19.95,16.28-2.56,29.78-10,37.72-26,6.39-12.9,6.75-25.57,4.92-39.54-3-23.09-13.09-42.16-28.5-58.92-2.19-2.37-4.19-5.35-8.11-5.13-24.18-26.79-54.78-39.86-90.38-41.68-15.56-.8-31.17-.46-46.76-.75-17.09-.31-31.12-7.72-43.42-19a10.39,10.39,0,0,1-4.87-3.2c-8.95-9.15-15.75-19.89-19.28-32a72.52,72.52,0,0,1-2.57-23.54c.64-13.69,10.93-23.15,24.84-22.23,5.42,1.47,11.1,2.54,15.45,6.34,4,3.5,7.59,7.48,11.36,11.25-1.69-10.17-7.54-16.87-16.29-20.76-3.32-1.47-6-2.67-6.07-6.69,6-6.22,13-5.72,20.27-3.05,2.78,3.49,7.3,4.7,10,9,2.93-11.24,2.24-13.66-4.48-17.79.09-13.87,5.21-26.62,8.59-39.78,3.23-12.58,4.42-25.54,5.84-38.43.51-4.59-.19-9.35,1.74-13.76,6-.21,12.55,1.21,17.89-5.67-7-1.48-11.23-6.71-17.42-8.38-1.45-4.88-5.92-7.61-8.77-11.44A36.56,36.56,0,0,1,318.69,282a123.65,123.65,0,0,1,.66-20.91c.07-.65-.23-1.37-.07-2C322.41,247,347,226.63,360,225.6c4.5-.36,9.4-1.43,12.44,3.68s1.6,9.39-1.75,13.58c-4.08,5.09-5.27,11.17-6.21,17.45-1.05,7,1.45,12.19,6.87,16.48,5.91,4.67,13.25,2.92,15.51-4.39s4.7-14.95,6.06-22.46a18.21,18.21,0,0,1,4.72-10c5.07-5.29,9.93-5.23,14.17.73,12.3,17.27,16.55,36,8,56.26-3.47,8.29-10.71,13.5-17.33,19s-13.72,10.57-20.73,15.65c-20,14.51-27.36,34.39-25.05,58.46,2.65,27.47,13.13,51.17,32.5,71.18,8.86,9.15,19.11,11.62,30.84,10a51.14,51.14,0,0,0,31.18-16.48c18.7-20.3,30.43-44.43,37.29-70.86,4.37-16.82,8.15-33.88,7.55-51.51-.87-25.32-1.64-50.72-9.48-75.06-5.39-16.71-10-33.8-17.9-49.58-4.54-9-8-18.5-12.37-27.61-11.56-24.21-28.86-43.3-51.15-58.11-8.4-5.59-17.88-9.68-23.35-19.25-4.63-8.1-4.18-16.19-2.44-24.56.56-2.72,3.36-2.88,5.77-2.76,7.29.35,14.65-.44,21.8,1.89,2.15.7,4.58.53,6.88.76l-.28-.21,2.79,1.39c1.6,2.9,4,3,7.93,1.44-6-9.24-11.66-18.26-19.86-25.4-1.57-1.37-3.61-1.45-5.62-1.31.33-8.95,1-9.9,8.72-11.25,6.66-1.16,13,.06,19.26,2.67,3.26,1.35,5.75,4.62,9.74,4.18,6.49,5.05,12.8,10.34,19.5,15.1,15.26,10.85,26.72,24.21,29.86,44.91,2.08-21.93-5.15-39.69-21.38-52.19-9.89-7.62-20.35-14.5-29.08-23.54,1.33-8.52,7.1-12.78,15.59-11,6.56,1.35,11.89,5.12,16.81,9.56,2.61,2.35,4.7,5.66,8.86,5.63,2.58,8.17,10.23,12.6,14.48,19.58,2.38,3.91,4.35,8.43,9,11.25C500.73,55.57,497.21,44.57,482.9,14.07ZM534.69,238c.3,1,.6,1.19.76.51,0-.07-.55-.28-.84-.43-.87-1.58-2.35-1.94-4-2-.28-1-.57-1.18-.73-.52,0,.07.52.29.81.44C531.58,237.56,533.05,237.92,534.69,238ZM519.57,603.72c1.61-6.9,0-14,1.81-20.77,5.79-21.8-8.3-46.41-32.57-54.51-6.59-2.2-13.43-3.64-20.17-5.4-1.78-.46-3.78-1.81-5.58,2.19,16.77,5.48,30.24,15.34,40,30.27C512.74,570.21,519.88,585.51,519.57,603.72ZM302.21,499.16a31.44,31.44,0,0,0-12-18.21,4.51,4.51,0,0,0-6.27.6c-1.8,1.85-.82,3.58.07,5.37,3.11,6.25,6.85,12,13.17,15.48C300.4,504.15,302.37,503,302.21,499.16Zm40.88-250.95c-7.44,5.43-10.89,11.06-7.95,19.81C342.06,263,339.1,254.94,343.09,248.21ZM70,638.52c1.16-.51,2.44-.87,2.58-2.55.28-3.26-4.83-10.07-7.89-10.47A1.82,1.82,0,0,0,62.57,627C61.48,630.83,66.4,638.43,70,638.52Zm54.36-37.13c-1.09,2.64.21,5.2,1.41,7.25,1.32,2.26,4.24,2.2,6.13.81,1.59-1.18.13-3-.89-4.2C129.43,603.3,128.11,600.73,124.4,601.39ZM180,593.73a2,2,0,0,0,2.24-1.43c.15-.54,0-1.56-.32-1.76-3-1.74-5.53-4.75-9.55-3.67a1.81,1.81,0,0,0-.84,1.56C172.87,592.56,176.55,593,180,593.73ZM540.36,241c7.33,3.83,7.94,3.81,13,0C549,242.39,544.74,241.26,540.36,241ZM228.57,571.31c-.7-1.81-1.6-3.3-3.28-3.47s-1.85,1.2-1.32,2.51,1.15,3.19,3.14,2.9C227.72,573.17,228.15,571.91,228.57,571.31Zm-5.33-4.86a2.51,2.51,0,0,0-2.75-2c-.91.09-1.43,1-.68,2s1.35,2.12,2.88,1.55A.91.91,0,0,0,223.24,566.45ZM228,648.76c0,.2,0,.5.15.58a.89.89,0,0,0,.74.14c.64-.36.56-.75-.2-1C228.45,648.48,228.19,648.68,228,648.76Z"/><path class="cls-2" d="M312.84,615.66l-2-1.73c-.41-1.65-1.65-2.36-3.13-2.8l-.33-.24-1.61-1.6-.41-.39c-.62-.51-1.22-1-1.83-1.56l-.25-.2a2.26,2.26,0,0,0-2.1-1.63l-.07-.06a1.78,1.78,0,0,0-2.48-1.25c-14.62-10.69-29.3-21.31-43.83-32.13-3.05-2.27-7-3.79-8.17-8.08.12-8.58-.36-17.16,4.26-25.09,4.51-7.74,10.39-12.42,19.65-13.77,6.46-.94,13.25.43,19.43-2.49,12.31,11.32,26.34,18.73,43.43,19,15.59.29,31.2,0,46.76.75,35.6,1.82,66.2,14.89,90.38,41.68a67.87,67.87,0,0,1,6.18,32.9c-2.06,33.48-24.62,55.08-57.76,54.55-23.81-.38-44.84-9.36-63.94-22.63-11.71-8.14-22.18-18-33.28-27.07C318.94,619.58,316.65,616.51,312.84,615.66Zm81.49-46.43c-6.18-.05-10.56,3.44-11,9.11s3.48,7.22,8.13,7.82c5.25.69,8.91,4,12.46,7.51,2.78,2.8,5.52,5.75,9.44,7.05,5.72,1.9,10.38-2,8.63-7.79C418.21,580.36,406,569.72,394.33,569.23Zm.32,66.87c-.1-3.63-4.31-8.13-7.47-7.68a4.78,4.78,0,0,0-4.36,5.52c.74,4.18,4.87,4.73,8.25,5.52C393.45,640,394.61,638.45,394.65,636.1Z"/><path class="cls-2" d="M584.16,208.81c-.61.26-1.44.35-1.8.81-10.87,13.66-25.2,11.2-39.36,8.09-6.34-1.39-11.26-5.71-14.57-11.41-12.26-21.13-14.73-43.53-5.9-66.2,5.12-13.14,15.56-18.88,28.1-18.12,7.13.43,12.44,3,16.64,9.16s6.89,13.82,14.26,17.48c4.84,11.64,5.34,24.12,7,36.36C589.65,193.3,587.19,201.15,584.16,208.81Zm-9.9-44.44c-1-3.73-2.06-8.55-3.51-13.26a19.12,19.12,0,0,0-6.4-9.8c-1.87-1.45-4.14-2.51-6.27-.64-1.78,1.57-1.05,3.74-.2,5.5a129,129,0,0,1,7.7,21.33c.7,2.45,1.79,5.45,5.35,4.44C574.05,171.06,574.22,168.21,574.26,164.37Zm-3.43,39.08c-.4-1-.11-2.93-2.05-2.51-2.51.54-3.7,2.41-3.85,4.94a1.78,1.78,0,0,0,1.74,1.94C569.66,208,570.42,205.9,570.83,203.45Z"/><path class="cls-3" d="M94.67,590c2.4,15.38,10.79,27.76,20.5,39.2s19.39,22.85,30.63,32.82c4.63,4.1,9.51,7.92,14.19,11.8-1.31,2.53-3,2-4.48,1.39-18.19-7-34.9-16-48.13-31a274.51,274.51,0,0,0-30.62-29.69c3-6.62,4.24-14.08,10-19.35C89.11,593,91,590.17,94.67,590Z"/><path class="cls-3" d="M192.53,557.86c0,3,1.63,5,3.85,6.61,13.66,10.12,24.37,23.44,37.45,34.26a265,265,0,0,0,29.69,21.93c-2.84,2.14-4.88.87-7,.24-16.61-5-32.52-11.26-46.5-22a125.08,125.08,0,0,0-23.92-14.26c-2.08-1-4.4-1.68-5.35-4.14C178.88,570,184.34,563.2,192.53,557.86Z"/><path class="cls-3" d="M144.91,577.46c-.51,3.92,2.26,6.07,4.68,8.26,10.79,9.8,20.63,21,33,28.52,14.3,8.67,25.44,21.22,39.68,29.76a2.4,2.4,0,0,1,1.28,2.76c-2.07,2.15-4.52.94-7,.27-17.38-4.71-31.62-15-45.54-25.77-12.25-9.47-24.24-19.29-36.34-29,2.43-4.94,3.44-10.66,8-14.47C143.48,577.19,144,576.66,144.91,577.46Z"/><path class="cls-3" d="M529.07,6.1c7.57,7.8,8.67,18.33,11.4,28,4.94,17.51,1.4,34.76-3,52.05-3.63-22.45-7.64-44.75-16.75-65.72C522.59,15.15,523.41,9.22,529.07,6.1Z"/><path class="cls-3" d="M435.4,33.86c8.73,9,19.19,15.92,29.08,23.54,16.23,12.5,23.46,30.26,21.38,52.19-3.14-20.7-14.6-34.06-29.86-44.91-6.7-4.76-13-10.05-19.5-15.1C435,44.42,433.06,39.29,435.4,33.86Z"/><path class="cls-3" d="M482.9,14.07c14.31,30.5,17.83,41.5,17.27,54.78-4.68-2.82-6.65-7.34-9-11.25-4.25-7-11.9-11.41-14.48-19.58C476.49,29.46,476.87,21,482.9,14.07Z"/><path class="cls-3" d="M398.78,54c2-.14,4.05-.06,5.62,1.31,8.2,7.14,13.82,16.16,19.86,25.4-4,1.51-6.33,1.46-7.93-1.44-1.4.47-2.24-.17-2.79-1.39l.28.21c-4.23-4-8.62-7.83-12.65-12C397.94,62.68,395.9,58.73,398.78,54Z"/><path class="cls-3" d="M292.55,431.83c.09,4,2.75,5.22,6.07,6.69,8.75,3.89,14.6,10.59,16.29,20.76-3.77-3.77-7.35-7.75-11.36-11.25-4.35-3.8-10-4.87-15.45-6.34C290.21,438.68,287.6,433.55,292.55,431.83Z"/><path class="cls-3" d="M335,313.93c6.19,1.67,10.4,6.9,17.42,8.38-5.34,6.88-11.86,5.46-17.89,5.67C334.59,323.29,333.85,318.58,335,313.93Z"/><path class="cls-3" d="M318.37,420c6.72,4.13,7.41,6.55,4.48,17.79-2.73-4.26-7.25-5.47-10-9,.64-2.13,2.37-3.79,2.15-6.33C314.78,420.29,316.65,420,318.37,420Z"/><path class="cls-3" d="M194.72,556.58a2,2,0,0,1-2.23,1.31C192.8,556.71,193.2,555.7,194.72,556.58Z"/><path class="cls-3" d="M312.84,615.66c3.81.85,6.1,3.92,8.9,6.2,11.1,9,21.57,18.93,33.28,27.07,19.1,13.27,40.13,22.25,63.94,22.63,33.14.53,55.7-21.07,57.76-54.55a67.87,67.87,0,0,0-6.18-32.9c3.92-.22,5.92,2.76,8.11,5.13,15.41,16.76,25.49,35.83,28.5,58.92,1.83,14,1.47,26.64-4.92,39.54-7.94,16-21.44,23.42-37.72,26-11.22,1.76-23.07,4.73-34.19-.95-9.13-4.66-18.36-9.17-26.93-14.88-16.86-11.26-32.38-24.13-47.71-37.4-13.1-11.34-24.86-24-37.28-35.93C315.88,622.09,312.28,620.12,312.84,615.66Z"/><path class="cls-3" d="M519.57,603.72c.31-18.21-6.83-33.51-16.48-48.22-9.79-14.93-23.26-24.79-40-30.27,1.8-4,3.8-2.65,5.58-2.19,6.74,1.76,13.58,3.2,20.17,5.4,24.27,8.1,38.36,32.71,32.57,54.51C519.58,589.72,521.18,596.82,519.57,603.72Z"/><path class="cls-3" d="M540.36,241c4.38.23,8.63,1.36,13,0C548.3,244.84,547.69,244.86,540.36,241Z"/><path class="cls-2" d="M228.57,571.31c-.42.6-.85,1.86-1.46,1.94-2,.29-2.55-1.45-3.14-2.9s-.39-2.67,1.32-2.51S227.87,569.5,228.57,571.31Z"/><path class="cls-2" d="M223.24,566.45a.91.91,0,0,1-.55,1.49c-1.53.57-2.17-.59-2.88-1.55s-.23-1.88.68-2A2.51,2.51,0,0,1,223.24,566.45Z"/><path class="cls-3" d="M228,648.76c.23-.08.49-.28.69-.23.76.2.84.59.2,1a.89.89,0,0,1-.74-.14C228,649.26,228,649,228,648.76Z"/><path class="cls-3" d="M530.62,236.06c1.64.05,3.12.41,4,2l.08-.08c-1.64-.05-3.11-.41-4-2Z"/><path class="cls-3" d="M307.71,611.13c1.48.44,2.72,1.15,3.13,2.8C308.94,614,307.11,613.9,307.71,611.13Z"/><path class="cls-3" d="M534.61,238.05c.29.15.86.36.84.43-.16.68-.46.5-.76-.51Z"/><path class="cls-3" d="M530.7,236c-.29-.15-.83-.37-.81-.44.16-.66.45-.47.73.52Z"/><path class="cls-3" d="M298.63,604.2a1.78,1.78,0,0,1,2.48,1.25A2.08,2.08,0,0,1,298.63,604.2Z"/><path class="cls-3" d="M301.18,605.51a2.26,2.26,0,0,1,2.1,1.63C301.86,607.52,301.19,607,301.18,605.51Z"/><path class="cls-3" d="M303.53,607.34c.61.52,1.21,1,1.83,1.56C303.84,609.45,303.27,608.89,303.53,607.34Z"/><path class="cls-3" d="M305.77,609.29l1.61,1.6C305.83,611.39,305.27,610.88,305.77,609.29Z"/></g></g></svg>