<svg xmlns="http://www.w3.org/2000/svg" viewBox="0 0 242.5 397"><defs><style>.cls-1{fill:#020202;}.cls-2{fill:#6ee54b;}.cls-3{fill:#313330;}</style></defs><g id="Layer_2" data-name="Layer 2"><g id="Layer_1-2" data-name="Layer 1"><path class="cls-1" d="M159.41,11.71c7.44-6.21,10.54-6,16.69,2.41a92.19,92.19,0,0,1,18.11,56.54A15.72,15.72,0,0,0,199,82.82c13.36,14.27,24.62,30.28,35.87,46.21,4.49,6.35,6.19,14.46,7.48,22.23,1,5.81-2,8.44-8,8.52-7,.1-11.22-4.23-15-9.67-6.46,14.72-10.19,15.69-22.22,5.56-2.59-2.18-4.58-2.09-7-.95-8,3.73-11.51,3.46-16.81-2.94-3.6-4.36-8-7.7-12.2-11.27-7.6-6.44-15.86-6.19-24.57-2.18-9.69,4.46-19.83,8.13-26.89,16.78-15.62,19.15-22.93,40.78-18.57,65.47,3.19,18,19.76,29.71,35.24,31.58a62.41,62.41,0,0,1,16.29,4.09c7.12,2.93,7.88,4.23,7.69,12.93,4.18,1.46,8.53.17,12.79.56,3.3.3,6.64.43,9.91.95,4.42.7,6.47,7.34,9.62,6.68,3.37-.7,6.62-3,10.64-3.05,5.28,0,10.14.44,12.48,6,1.85,4.42-.29,9.57-5.58,13.8a85.67,85.67,0,0,1-7.91,5.79c-6.14,3.84-12.22,7.54-14.26,15.31-.78,3-3.57,4.68-6.09,6.36-8.23,5.45-16.6,10.71-24.62,16.46-7.1,5.08-13.18,11.33-15.39,20.12-.83,3.31-2.94,5-5.1,7-4-2.1-2.24-6.6-4.23-9.87-3.92,3.38-4.69,7.8-4.54,12.49s.36,9.33.77,14c.2,2.34.69,4.55-.8,6.71a2.59,2.59,0,0,1-2.43,1.27c-1.26-.05-1.39-1-1.43-2-.21-5-.45-10-2.13-14.75a17.41,17.41,0,0,1-.49-2.53c0,.07.06.16,0,.2-.51.67-.9,1.57-1.57,1.95-2.55,1.42-2.72-2.64-5.23-2.18-1,2.9-2.12,5.94-3,9.06-.57,2.06-1.89,2.51-3.69,2.38a3.73,3.73,0,0,1-3.53-2.92,16.4,16.4,0,0,1-.28-6.92c1.84-7.4.5-15.27,4-22.75-7.49,3.21-14.56,9.88-18.9,17.62-1.61,2.87-2.89,5.93-4.64,8.7-1.44,2.28-1.47,6.87-5.49,5.7-3.15-.92-1.45-4.56-1.49-7,0-1.94.2-3.89.39-6.94-11,7.25-13.07,19.89-21.2,29.73-3.88-15.2,2.21-26.49,9.67-37.61-9.44,3.26-13.11,12.15-21.09,17.76-2.88-12.35,4.42-19.58,10.83-28.5-6.85-.82-12.49,1.1-18.22,2.92-7.78,2.46-13.48,7.71-19,13.32A34.88,34.88,0,0,1,4.9,369c-1.27.9-3.2,1.66-4.36,0a4.74,4.74,0,0,1-.29-3.76c2.75-7.62,7-14.25,13.54-19.23,1.49-.13,2.75-.41,1.58-2.34l1.55-.67c-.41.31-.81.63-1.21.95-1,.38-3.06,0-1.68,2.24-4.45-1.17-9.13,1.84-13.51-.73,2.36-6.37,2.36-6.37,14.81-13.75-1.05-2.54-3.63-1.38-5.41-2.15a2.56,2.56,0,0,1-1.83-2c-.27-1.58.63-2.24,2-2.88,5.42-2.62,11.29-3.2,17.11-4.12,2.74-.43,5.75.22,8.07-1.2.07-2.43-1.23-2.92-2.47-3.37C12.23,308.53,5.51,292.09,7.9,273.4a4.79,4.79,0,0,1,4.34-4.62c2.6-.44,5.24-.62,8.43-1a102.8,102.8,0,0,1-.9-10.36c.05-6.92,1.78-8.82,8.67-9.54,3.56-.37,7-.34,10.45,1.85,5.19,3.28,11,5.6,17,8.55.94-5.31-3.59-8.17-3.95-12.75-.85-10.67-4.9-21.38-4.12-31.81.7-9.36.88-18.9,2.29-28.27,4.19-27.91,18.08-49,43.59-61.86,5-2.52,10.34-4.41,15.4-6.93,2.93-1.46,3.74-3.24,2.17-4.91-3.84-4.06-6.31-8.9-12.88-11C81.25,95.23,71.51,81.84,66.14,65.09c5.25,2,7.59,7.26,11.94,10.28,19.28,13.4,39.42,14.48,60.59,4.93,2.84-1.29,3-2.88,2.8-5.41-.34-4.06-.46-8.6,4.26-10.1,5.19-1.64,6.5,3.25,8.63,6.45.12.19.5.22,1.25.53,7.65-7,11.38-15.82,12.19-26.18C168.75,33.34,167.61,21.66,159.41,11.71Zm-103,343.42.67.16s-.44-.09-.35,0c-.22.95-1.34,1.94.11,2.8a.86.86,0,0,0,.82-.21C58.29,356.5,57.48,355.74,56.42,355.13ZM87.8,316.69c6.59-.21,13.25.43,19.62-2.17,4-1.62,5.29-3.82,2.31-7.4-2-2.37-3.76-4.52-1.33-7.77,3.3-4.4.55-7-3.43-8-10.7-2.74-19.91-8.52-29.67-13.28-13.61-6.65-21.19-3.3-27.95,10.19a12.61,12.61,0,0,0,.53,13.16,27.15,27.15,0,0,0,9.2,8.85C66.57,316.22,77.21,316.23,87.8,316.69ZM191.09,97.19c-3.47-1-5.29.64-5.45,4.49a108.9,108.9,0,0,0-.44,11c.38,6.36,4.73,12.15,10.94,12.37,7.46.27,13.34,3.4,19.42,6.84a18.11,18.11,0,0,0,6.55,2.18c4.46.55,6.19-1.83,4.34-6a47.08,47.08,0,0,0-11.77-16C207.84,105.94,201.33,98.86,191.09,97.19Z"/><path class="cls-2" d="M159.41,11.71c8.2,10,9.34,21.63,8.39,33.88C167,56,163.26,64.82,155.61,71.77c-.75-.31-1.13-.34-1.25-.53-2.13-3.2-3.44-8.09-8.63-6.45-4.72,1.5-4.6,6-4.26,10.1.21,2.53,0,4.12-2.8,5.41-21.17,9.55-41.31,8.47-60.59-4.93-4.35-3-6.69-8.32-11.94-10.28-4.31-5.94-2.88-12.76-2.8-19.29.18-14.46,6.37-24.37,19.25-32.5C99.77,2.45,118,.06,137.23,0,146.59,0,153,6,159.41,11.71Zm-45.5,12.43c.07-2.42-1.29-3-3-3.32a13.53,13.53,0,0,0-13.3,6.55c-1,1.77-1.82,3.57.06,5.32a4,4,0,0,0,5.37.5c3.24-2.2,6.37-4.55,9.46-6.94A7.65,7.65,0,0,0,113.91,24.14Zm-27-2a8.84,8.84,0,0,0,7-5.31c.23-.55-.55-2-1.2-2.33-2-.91-3.76.12-5.29,1.39s-3.23,2.38-3,4.65C84.45,21.61,85.32,22.08,86.88,22.15Z"/><path class="cls-1" d="M113.91,24.14a7.65,7.65,0,0,1-1.46,2.11c-3.09,2.39-6.22,4.74-9.46,6.94a4,4,0,0,1-5.37-.5c-1.88-1.75-1-3.55-.06-5.32a13.53,13.53,0,0,1,13.3-6.55C112.62,21.1,114,21.72,113.91,24.14Z"/><path class="cls-3" d="M86.88,22.15c-1.56-.07-2.43-.54-2.54-1.6-.22-2.27,1.54-3.42,3-4.65s3.29-2.3,5.29-1.39c.65.3,1.43,1.78,1.2,2.33A8.84,8.84,0,0,1,86.88,22.15Z"/></g></g></svg>