<svg xmlns="http://www.w3.org/2000/svg" viewBox="0 0 388.08 655.4"><defs><style>.cls-1{fill:#020202;}.cls-2{fill:#6ee54b;}</style></defs><g id="Layer_2" data-name="Layer 2"><g id="Layer_1-2" data-name="Layer 1"><path class="cls-1" d="M237.73,451.23c-7.77,16.42-19.88,26.22-31.37,24.66,11.95-15.08,17.93-33.65,31.48-47.23,2.54-2.54,1.54-4.88,1.13-7.28-2.43-14.09-4.94-28.17-7.65-42.21-1.16-6-.21-12.32-4.12-17.92-2.64-3.78-5.75-5.85-10.62-8-.39,9.13-.65,17.06,1.14,24.73,1.5,6.43.27,12.58-.14,18.85-.22,3.39-2,5.69-5.43,6.18-3,.44-5.83-.05-7.83-2.92a65.17,65.17,0,0,1-11.09-28.86c-3-21.25-1.55-42.56-3-63.79-.39-5.56-1-11-3.21-16.25-2.87-6.83-6.93-10.12-14.08-10.89-22.13-2.4-20.71,5.93-19.4,20.65a62.63,62.63,0,0,0,3,14.5c1.92,5.7,2.27,11.87-.31,17.62-1.79,4-6.32,4.32-8.38.47-3-5.68-7.81-10.46-9-17.13a6.6,6.6,0,0,0-1.55-3.51c-3.32-3.1-6.58-8.22-11.38-6.51-3.65,1.3-3.16,6.79-3.43,10.73-.62,9,3.31,16.58,7.76,23.92a103.86,103.86,0,0,0,8.26,12.29c2.39,2.89,2.91,5.33,0,7.61-2.59,2-6,2.35-8-.5-4.67-6.64-12.23-10.6-15.34-18.94-2.84-7.61-9.11-13.18-17.54-17.1-2.66,16.94,2.14,31.09,10.55,44.5,10.89,17.35,23.29,33.6,35.91,49.68a29.32,29.32,0,0,0,10.46,8.86c9.81,4.65,17.1,13,26.88,18.06,5.93,3,8.26,10,7.75,17.25-.3,4.32-2,5.72-6.22,4.38-13.75-4.44-27.82-7.78-41.42-12.9-10.56-4-20.72-8.09-30.46-14C99.17,433,90,423,80.89,413.34c-8.28-8.84-18-16.39-24.74-26.86C46.66,371.7,37,357.19,30.41,340.72c-4-10-9.38-19.51-12-30-2.59-10.33-5.55-20.54-7.66-31.06C7.61,264.06,7.58,248.07,4,232.88c-4.54-19.4-4.67-38.57-3.19-58,1-13.59,3.61-27,4.71-40.64C7.05,115.62,12.55,98,20,81.2,26.16,67.09,32.72,53,41.83,40.2,49.8,29,59.26,19.42,68.93,9.86A32.09,32.09,0,0,1,89.8.4c3.32-.25,6.66-.43,10-.35,6.53.16,13.25-1.22,18.86,4.17,7.07,6.79,13.27,13.77,15.2,24,1.6,8.45-2,15-6.32,21.31a112.86,112.86,0,0,1-17.3,19.32c-2.22,2-4.86,3.88-6.22,6.4-8.17,15.16-18,29.48-21.65,46.87-2.9,14-6.81,27.78-8.71,42-1.2,8.92-2.51,17.87,1.79,26.46a8.57,8.57,0,0,1,.91,3.84c-.34,15,7.4,26.91,14.82,38.92a23.15,23.15,0,0,0,4.49,5.32c2.57,2.21,5.65,3.88,9.14,2.62s3.31-4.6,3.35-7.62c.07-5.86,1.34-11.26,6.12-15.21,2.68-2.22,5.9-3.77,9.19-2.31,2.6,1.15,2.79,4.36,3,7a29.7,29.7,0,0,1-1.26,11.81,27.71,27.71,0,0,0-1,13.81,11.79,11.79,0,0,0,5.07,8.24c5,3.32,9.59,2.33,10.61-3.51,1.34-7.7,6.34-14.55,5.14-22.75-1.48-10,5.09-14.12,12.38-18.09,5.65,5.61,6.05,12.22,5.83,18.9-.11,3.57.17,6.58,4,8.24,3.14,1.37,5.7,1.3,7.86-1.71a17.55,17.55,0,0,0,3.71-9.12c.16-2.65.53-5.39.08-8-3.86-22.09,6-39.54,19-55.79,5.75-7.19,13.22-12,22.75-12.91,2-.19,3.94-.75,5.92-.94,14.46-1.39,28.09-.18,37.54,12.46,3.56-.74,2.29-3.25,2.4-4.91.87-13.3,1.62-26.6,2.35-39.9.5-9,3.29-17.43,7.07-25.55,4.4,1.76,3.57,6,4.15,9.36,1.21,6.86,1.4,13.94,2.95,20.71,8.69,38.05,48.73,53.29,79.43,30.4,8.47-6.32,9.91-9.75,6.17-19.49a19.58,19.58,0,0,1-.9-12.44,17.34,17.34,0,0,0,5,4.66,40.41,40.41,0,0,1,12.23,12.82c3.72,5.94,4.94,11.24-.33,17-2.88,3.15-4.57,7.51-7.72,10.27-6.56,5.75-9.53,13-11.28,21.18a95.18,95.18,0,0,1-13.91,32.43,39.09,39.09,0,0,0-6.13,25.51,248.94,248.94,0,0,0,4.44,30.51c2.14,9.76,1.75,20,.28,29.84-1.35,9.05-8.41,12.8-14.1,8.34a23.38,23.38,0,0,1-9-16.45c-1.41-13.1-3.41-26.05-7.79-38.58-2.28-6.51-7-11.39-11.86-15.32s-11.67-2.11-17.23,0c-4,1.51-3.27,6.12-3.29,9.7-.09,16.37,3.13,32.16,8,47.74,6.71,21.43,9.06,43.86,8.53,65.91-.45,18.9-8.74,36.27-25.5,47.78-2.18,1.5-4.38,3-6.48,4.56s-2.67,3.28-2.57,6c1,28.33-4.66,54.9-19.79,79.4-5.3,8.58-9.13,18.15-13.89,27.15-2.44,4.62-2.6,9.71-1.29,15.32,4.41,18.9,7.32,38.2,14.78,56.26,3.86,9.36,8.06,18.55,10.51,28.42a26.3,26.3,0,0,1,1,2.79c.54,4.61,2,10.21-2.94,12.67C253,650,249.61,646,246.43,642.9c-9.88-9.44-15.13-21.53-19.07-34.15-.75-2.39-1.72-4.81-2.66-7-3.5-8.28-4.24-8.55-13.38-6-15.47,4.33-28.67,12.92-40.5,23.39-9.71,8.6-18.49,18.24-27.83,27.27-5,4.88-10.37,9.32-18.1,9-3.25-.13-4.65-.87-4.29-4.69a34.27,34.27,0,0,1,5.18-15.38c7.33-11.36,15.47-22.21,26.53-30.42a45.74,45.74,0,0,0,4.24-4.23c7.62-7.41,14.52-15.31,23.77-21.28,8.26-5.33,14.66-13.82,18.4-23.77-4.81,3.19-10,5.29-14.15,9.49-4.41,4.51-11,2.07-17.14,5,.66-12.9,2.24-23.89,11.18-32.51a82.66,82.66,0,0,0,6.41-7.53c8.71-10.69,17.57-21.12,27.93-30.43a85.47,85.47,0,0,0,24.56-37.83c1.08-3.39,2.78-6.95.07-10.43l.49.27ZM266.9,402.7c6.45-6.78,9.52-14.11,11.67-21.78,6.71-23.94,2.87-46.73-8.1-68.64-1.63-3.26-4-6.24-4.32-10-1.15-12.58-6.08-24.37-7.44-36.93-.67-6.23-2.47-12.38-4.2-18.44a34.8,34.8,0,0,0-11.66-18.18,12.15,12.15,0,0,0-10.28-2.48c-7,1.23-14.77,9.08-15.61,16.27-.81,6.94-1.19,14,.93,20.8q10.92,35.21,24,69.7C250.39,355.57,261.67,377.12,266.9,402.7ZM80.58,35.86c-.37,8.7,5.86,16,13.89,16.31,9.76.36,17.73-7.12,18.33-17.2.57-9.66-7.75-19-17.41-19.46C87.63,15.11,81.07,24.12,80.58,35.86ZM55.45,37.57C43.07,48.83,36.09,62.69,37.8,71.72,42.21,59.08,49,48.39,55.45,37.57ZM226.62,159.8c-11.12-2.19-21.25,4.33-25.62,16.42C208.12,168.53,215.87,161.84,226.62,159.8ZM128.53,436.22c-8.45-5.82-17.48-10.56-25.49-16.94C108.86,428.94,118.55,432.91,128.53,436.22Zm19.36,185.54c-8.46,4-12.58,11.15-14.35,20C138.78,635.4,142.82,628.21,147.89,621.76ZM314.31,172.67c-3.44-2.4-6.81-4.93-10.35-7.17-3.27-2.07-4.91-6.49-11.34-8.08C299.13,166.11,304.51,172.36,314.31,172.67Zm28.92,133c6.48-8.57,6.78-12.65,1.64-19.77C345.1,293.11,345.72,299.62,343.23,305.7ZM188.67,539.45c-5.63,3.31-9.95,7.73-12.67,16.11C182.51,550.14,185.48,544.74,188.67,539.45ZM204.9,373.63c-1.05,6.95-.81,12.62,5.87,18.13-1.31-6.52-2.28-11.47-3.36-16.39C207.32,375,206.47,374.69,204.9,373.63Z"/><path class="cls-2" d="M367.62,121.93a19.58,19.58,0,0,0,.9,12.44c3.74,9.74,2.3,13.17-6.17,19.49-30.7,22.89-70.74,7.65-79.43-30.4-1.55-6.77-1.74-13.85-2.95-20.71-.58-3.36.25-7.6-4.15-9.36,4.65-6,9-12.25,15.21-16.84,11.72-8.72,23.63-9.29,38-5.34,15.16,4.15,21.36,15.5,28.86,26.31C362.93,104.73,367.91,112.41,367.62,121.93ZM340.29,99c.26-7-6.42-17.42-13.26-20.92-3.17-1.62-6.33-2.28-9.23.27a8,8,0,0,0-2.15,9.93c3.43,7,9.37,12,15.63,16.14C335.47,107.17,340.11,103.9,340.29,99Z"/><path class="cls-2" d="M204.9,373.63c1.57,1.06,2.42,1.32,2.51,1.74,1.08,4.92,2.05,9.87,3.36,16.39C204.09,386.25,203.85,380.58,204.9,373.63Z"/></g></g></svg>