<svg xmlns="http://www.w3.org/2000/svg" viewBox="0 0 272.72 321.95"><defs><style>.cls-1{fill:#020202;}.cls-2{fill:#6ee54b;}.cls-3{fill:#313330;}.cls-4{fill:#fbac09;}</style></defs><g id="Layer_2" data-name="Layer 2"><g id="Layer_1-2" data-name="Layer 1"><path class="cls-1" d="M47.56,50.05c4-4.78,4.23-11.51,8.58-16.1,1.59-1.66,2.65-4,4.49-5.22C69.11,23.15,75.42,15,83.76,9.33a47.86,47.86,0,0,1,16.66-7c14.74-3.24,29.48-3.49,44,1.53,19.26,6.66,38.48,13.21,56.24,23.6,27.49,16.1,49,37.65,63.7,66,16.16,31.25,8.11,74.33-18.22,98.41-1.42,1.3-3.77,1.46-4.36,3.78-.82,3.25-3.89,6.45,2.42,8.33,5.07,1.51,5.73,5.71,1.19,8.62-8.54,5.46-12.46,14.18-17.94,21.87-4.66,6.54-10.95,11.46-17.42,16.1-3.28,2.35-7.13,1.55-10.5.69s-4.95-4-2.63-6.95,3.7-6.21,7.42-8.61c4.38-2.82,11.93-5.8,8.91-14.67-9.89,4.79-16.81,13.17-25.76,18.69-1.87,1.14-1.63,2.53-1,4.2,1.54,4.36,3.16,8.69,4.47,13.11,1.75,5.86.33,10.13-3.7,12.14s-9-.46-12-5.65c-4.32-7.45-6.3-7.83-12.19-2.17-5.28,5.07-9.27,11.15-13.59,17-9.61,13-18.47,27.07-32.93,35.38-16.12,9.26-33.3,10.82-50.79,3.73-4.95-2-8.62-5.22-9.54-11.23-.6-3.93-2.82-7.61-4.27-11.42C50,289.74,47.46,285.8,41,285.05c-4.23-.5-7-4.55-10.13-7.54-3.74-3.55-1.42-7.26-1.88-10.95-.74-5.86-1.48-12.5-4.68-17.08-4.16-5.93-3.14-11.45-1.48-16.82,2.36-7.62,1.09-14-1.31-21.52-3-9.43-7.74-18-10.75-27.31-.79-2.45-2.09-4.58-3-6.81-7.22-17-8.62-34.65-7.32-52.71.46-6.35,4.45-11.44,7.71-16.58,1.6-2.53,2.86-5.14,4.19-7.76l5.1.26c-7.45,22.81-6.25,46-2.55,69.16,3.49,21.87,11.88,42.15,21.13,62.09.74,3.14,1.77,6.09,5.23,8.08,1.57-3.06.28-5.14-1.39-7.16-6.05-13.86-8.49-28.88-13.75-43,1.46-1.7,1.23-3.67,1-5.68-2.89-25.82-1.45-51,9.3-75.28C44.54,90,46.84,70.1,47.56,50.05Zm139,156.22-.06.26A56.76,56.76,0,0,1,198,198.8c6.09-2.8,9.67-8,12.56-13.68a9.68,9.68,0,0,0-.86-11.08c-5.53-7.61-9.83-9.19-18.56-5.71-7,2.8-11.81,8.5-17.4,13.13-20.27,16.81-39.19,34.93-53.92,57-4,6.05-8.38,12-10.08,19.26-6.46,6.77-4.6,14.73-2.52,22.27,1.38,5,6.08,6.95,11.17,6.57a20.83,20.83,0,0,0,11.73-5.11c5.49-4.54,9.47-10.31,12.91-16.4,8.34-14.77,16.67-29.53,26.83-43.16l.06-.06a1.72,1.72,0,0,0,1.73-1.95l.26-.34c.92-.12,1.61-.42,1.27-1.56a1,1,0,0,0,.82-.87c.93.21,1.45,0,.95-1a2.84,2.84,0,0,0,1.32-1.35l.59.15-.31-.43,1.89-1.84.45.25-.29-.39,2.13-2,.63.11-.55-.06,3.66-2.28,0,.13Zm-18.68-128,2.08-1.13c3.27.57,5.75-1.32,8.08-3,6.88-5,7.71-12.64,2.34-19.31-10.28-8.92-22.23-10.41-31.32-2.4-8.13,7.17-17.28,12.22-27,16.39-8,3.41-13.76,9-19,15.52-7.4,9.13-7.39,15.93-.29,25.94-.93,1.76-.63,3,1.34,3.87,3.12,1.37,5.82-.06,8.51-1.16,9.17-3.72,30.32-19.78,38.46-29l10.38-3.92.57.45-.69-.28,6.53-2.08ZM107.9,188l-.08,0c4,5.93,6.08,6.7,12.78,4.3,10.82-3.89,20-10.48,28.54-18a54.56,54.56,0,0,1,10.48-7.54c12.33-6.5,25.22-12.12,35.25-22.28a8.19,8.19,0,0,1,3.5-1.84c12.83-3.72,16.88-14.06,19.2-25.57,1.23-6.09-.07-8.54-5.55-12.59C204.53,93.07,200,91.27,187,95.67c-16.47,5.58-31.78,13.67-46.38,23.06-11.07,7.12-19.55,16.66-27.12,27.53-8.77,12.59-10.22,25.57-6.49,39.8C106.47,187.09,106.37,187.93,107.9,188ZM52.72,214.76c-.11,3.73,2.57,10.19,5.35,12,1.37.91,3,1.61,4.69.84a3.31,3.31,0,0,0,1.78-4.17,104.86,104.86,0,0,0-4.17-11.13,4.51,4.51,0,0,0-5-2.5C52.76,210.22,52.69,212.36,52.72,214.76Zm24.54,61.56c-.5-2.6-1-5.2-1.49-7.79-.35-1.82.13-4.49-2.87-4.1a4.76,4.76,0,0,0-3.94,4c-.82,4,1.11,7.1,3.68,9.84a3.52,3.52,0,0,0,2.6,1.05C76.75,279.11,77.11,277.69,77.26,276.32ZM57.47,100c5.2-3.48,4.92-8.63,7.08-12.49.64-1.15-.77-2.31-2-2.88a2,2,0,0,0-2.53.65C56.52,89.46,54.25,93.84,57.47,100Zm-9.71,58.44c2.32-2.32,1.68-5.43,2.2-8.21a11.54,11.54,0,0,0,.15-2.88c-.12-1.54-1.39-2.17-2.62-2.48s-2.28.21-3.06,1.58C41.8,151.1,42.22,152.92,47.76,158.48ZM42.6,242.76l.44.35.08-.56Z"/><path class="cls-2" d="M47.56,50.05c-.72,20-3,40-11.16,58.4-10.75,24.32-12.19,49.46-9.3,75.28.23,2,.46,4-1,5.68-1.7-3.32-2.87-6.75-2.19-10.56-.41-3.74.83-7.78-2.05-11.06L22,168c-1.05-5,.27-10.36-2.08-15.21a5.67,5.67,0,0,1-2.31-5.12q0-13.74.17-27.47c0-2,.4-3.92,2.12-5.26a14.61,14.61,0,0,0,2.09-7.19l-.09.21c2.31-2.51,1.47-5.75,2-8.67a1.31,1.31,0,0,1,.08-1.23c2.22-2.62,1.37-5.94,2-8.91a8.57,8.57,0,0,1,1.79-6.4A85.9,85.9,0,0,0,38.12,57.62c0-1.17.57-1.69,1.72-1.63,2.7-.47,4.51-2.23,6.14-4.24C45.88,50.6,46.31,49.94,47.56,50.05Z"/><path class="cls-3" d="M38.12,57.62A86,86,0,0,1,27.74,82.74a3.93,3.93,0,0,0-.14-1c-.1-.26-.38-.69-.54-.68-3.86.37-3.95,4-4.73,6.37-1.44,4.35-2.37,8.85-4.9,12.78l-5.1-.26,21.8-38.11A10.57,10.57,0,0,1,38.12,57.62Z"/><path class="cls-3" d="M46,51.75c-1.63,2-3.44,3.77-6.14,4.24C41.06,53.38,43.58,52.65,46,51.75Z"/><path class="cls-2" d="M107,186.06c-3.73-14.23-2.28-27.21,6.49-39.8,7.57-10.87,16-20.41,27.12-27.53,14.6-9.39,29.91-17.48,46.38-23.06,13-4.4,17.58-2.6,25.07,8.78,2.07,12.21-2,22.3-11,30.43a152.26,152.26,0,0,1-38,25c-1.28.36-2.6.66-3.19,2.08l.15-.09a9.62,9.62,0,0,0-5.16,2.13c-10.13,7.26-20.2,14.59-30.4,21.73-5.07,3.54-10.62,5-16.64,2.26l.08,0C107.58,187.34,107.27,186.7,107,186.06Z"/><path class="cls-2" d="M109.76,257.72c1.7-7.29,6-13.23,10.08-19.28,14.73-22.05,33.65-40.17,53.92-57,5.59-4.63,10.39-10.33,17.4-13.13,8.73-3.48,13-1.9,18.56,5.71a9.68,9.68,0,0,1,.86,11.08c-2.89,5.67-6.47,10.88-12.56,13.68a56.76,56.76,0,0,0-11.54,7.73l.06-.26-2.08,2.08,0-.13-3.66,2.28-.08-.05-2.13,2-.16.14-1.89,1.83-.28.29a2.84,2.84,0,0,1-1.32,1.35,4.28,4.28,0,0,0-.95,1,.94.94,0,0,1-.82.86l-1.27,1.57-.26.34a2,2,0,0,0-1.73,1.95l-.06.06c-3.8.13-5.63,3.15-7.69,5.55A149,149,0,0,0,147,247.81c-2,.61-2.84,2.15-3.11,4.09l.07-.09c-1.38.54-1.79,1.74-2.06,3a2.65,2.65,0,0,1-.91,1,7.57,7.57,0,0,0-5.1,6.08l.08-.08-2.07,2.05,0,0c-1.89.32-3.42,1.13-4.05,3.1C116,273.2,110.42,270.65,109.76,257.72Z"/><path class="cls-2" d="M167.86,78.14l-6.53,2.08.12-.17L151.08,84c-8.59,1.85-15.54,5.55-21.11,13.1-6.43,8.69-15.57,14.11-27.21,13.22-7.1-10-7.11-16.81.29-25.94,5.24-6.47,11-12.11,19-15.52,9.71-4.17,18.86-9.22,27-16.39,9.09-8,21-6.52,31.32,2.4a15.77,15.77,0,0,1-3.92,15.24c-2.15,2.37-4.33,4.71-6.5,7.07l-2.08,1.13Z"/><path class="cls-4" d="M17.43,100.23c2.53-3.93,3.46-8.43,4.9-12.78.78-2.38.87-6,4.73-6.37.16,0,.44.42.54.68a3.93,3.93,0,0,1,.14,1,8.57,8.57,0,0,0-1.8,6.41c-2.08,2.66-1.71,5.86-2,8.91a1.33,1.33,0,0,0-.08,1.24c-2.14,2.55-1.7,5.69-2,8.66l.09-.21c-2.26,1.94-1.94,4.64-2.09,7.19-1.72,1.34-2.1,3.26-2.12,5.26q-.14,13.72-.17,27.47a5.7,5.7,0,0,0,2.31,5.13c.9,5-1.49,10.53,2.08,15.2l-.09-.21c.62,3.7-.51,7.72,2.05,11.06-.68,3.81.49,7.24,2.19,10.56,5.26,14.11,7.7,29.13,13.75,43L36,231.48c-9.25-19.94-17.64-40.22-21.13-62.09C11.18,146.21,10,123,17.43,100.23Z"/><path class="cls-4" d="M163.06,159.84a152.26,152.26,0,0,0,38-25c9-8.13,13.06-18.22,11-30.43,5.48,4.06,6.78,6.51,5.55,12.6-2.32,11.51-6.37,21.85-19.2,25.57a8.19,8.19,0,0,0-3.5,1.84c-10,10.16-22.92,15.78-35.25,22.28a54.56,54.56,0,0,0-10.48,7.54c-8.56,7.49-17.72,14.08-28.54,18-6.7,2.4-8.77,1.63-12.78-4.3,6,2.78,11.57,1.28,16.64-2.26,10.2-7.14,20.27-14.47,30.4-21.73a6.21,6.21,0,0,0,5.16-2.13l-.15.09A4.58,4.58,0,0,0,163.06,159.84Z"/><path class="cls-4" d="M141,255.81a2.65,2.65,0,0,0,.91-1l2.06-3-.07.09q1.56-2,3.11-4.09a149,149,0,0,1,15.2-20.39c2.06-2.4,3.89-5.42,7.69-5.55-10.16,13.63-18.49,28.39-26.83,43.16-3.44,6.09-7.42,11.86-12.91,16.4a20.83,20.83,0,0,1-11.73,5.11c-5.09.38-9.79-1.54-11.17-6.57-2.08-7.54-3.94-15.5,2.52-22.26.66,12.94,6.24,15.49,20.12,9.21l4.05-3.1,0,0,2.07-2.05-.08.08C138.3,260.47,139.36,257.91,141,255.81Z"/><path class="cls-4" d="M102.76,110.29c11.64.89,20.78-4.53,27.21-13.22,5.57-7.55,12.52-11.25,21.11-13.1-8.15,9.25-29.3,25.31-38.47,29-2.69,1.1-5.39,2.53-8.51,1.16C102.13,113.29,101.83,112.05,102.76,110.29Z"/><path class="cls-2" d="M52.72,214.76c0-2.4,0-4.54,2.64-4.93a4.51,4.51,0,0,1,5,2.5,104.86,104.86,0,0,1,4.17,11.13,3.31,3.31,0,0,1-1.78,4.17c-1.69.77-3.32.07-4.69-.84C55.29,225,52.61,218.49,52.72,214.76Z"/><path class="cls-2" d="M77.26,276.32c-.15,1.37-.51,2.79-2,3a3.52,3.52,0,0,1-2.6-1.05c-2.57-2.74-4.5-5.83-3.68-9.84a4.76,4.76,0,0,1,3.94-4c3-.39,2.52,2.28,2.87,4.1C76.27,271.12,76.76,273.72,77.26,276.32Z"/><path class="cls-4" d="M169.94,77.15c2.17-2.36,4.35-4.7,6.5-7.07a15.77,15.77,0,0,0,3.92-15.24c5.37,6.67,4.54,14.34-2.34,19.31C175.69,75.83,173.21,77.72,169.94,77.15Z"/><path class="cls-2" d="M57.47,100c-3.22-6.2-.95-10.58,2.58-14.72a2,2,0,0,1,2.53-.65c1.2.57,2.61,1.73,2,2.88C62.39,91.41,62.67,96.56,57.47,100Z"/><path class="cls-2" d="M47.76,158.48c-5.54-5.56-6-7.38-3.33-12,.78-1.37,1.75-1.92,3.06-1.58s2.5.94,2.62,2.48a11.54,11.54,0,0,1-.15,2.88C49.44,153.05,50.08,156.16,47.76,158.48Z"/><path class="cls-3" d="M36,231.48l3.84.92c1.67,2,3,4.1,1.39,7.16C37.78,237.57,36.75,234.62,36,231.48Z"/><polygon class="cls-4" points="161.45 80.05 161.33 80.22 162.02 80.5 161.45 80.05"/><path class="cls-4" d="M167.86,78.14v0Z"/><polygon class="cls-4" points="180.75 210.45 180.83 210.5 181.38 210.56 180.75 210.45"/><path class="cls-4" d="M169.94,221.81a2,2,0,0,1,1.73-1.95A1.72,1.72,0,0,1,169.94,221.81Z"/><path class="cls-4" d="M171.93,219.52,173.2,218C173.54,219.1,172.85,219.4,171.93,219.52Z"/><path class="cls-4" d="M174,217.09a4.28,4.28,0,0,1,.95-1C175.47,217.14,175,217.3,174,217.09Z"/><path class="cls-4" d="M176.29,214.7l.28-.29.31.44Z"/><path class="cls-4" d="M178.46,212.58l.16-.14.29.39Z"/><path class="cls-4" d="M184.49,208.22l0,.13Z"/><polygon class="cls-3" points="42.6 242.76 43.12 242.55 43.04 243.11 42.6 242.76"/><path class="cls-4" d="M186.54,206.27l-.06.26Z"/><path class="cls-4" d="M107,186.06c.31.64.62,1.28.94,1.92C106.37,187.93,106.47,187.09,107,186.06Z"/><path class="cls-3" d="M22,168c-3.57-4.67-1.18-10.16-2.08-15.2C22.22,157.64,20.9,163,22,168Z"/><path class="cls-3" d="M23.91,178.85c-2.56-3.34-1.43-7.36-2.05-11.06C24.74,171.07,23.5,175.11,23.91,178.85Z"/><path class="cls-3" d="M21.85,108c.3-3-.14-6.11,2-8.66C23.32,102.21,24.16,105.45,21.85,108Z"/><path class="cls-3" d="M23.93,98.06c.3-3-.07-6.25,2-8.91C25.3,92.12,26.15,95.44,23.93,98.06Z"/><path class="cls-3" d="M19.85,114.94c.15-2.55-.17-5.25,2.09-7.19A14.61,14.61,0,0,1,19.85,114.94Z"/><path class="cls-3" d="M160,161.83a6.21,6.21,0,0,1-5.16,2.13A9.62,9.62,0,0,1,160,161.83Z"/><path class="cls-3" d="M163.06,159.84a4.58,4.58,0,0,1-3.19,2.08C160.46,160.5,161.78,160.2,163.06,159.84Z"/><path class="cls-3" d="M141,255.81c-1.62,2.1-2.68,4.66-5.1,6.08A7.57,7.57,0,0,1,141,255.81Z"/><path class="cls-3" d="M133.93,263.82l-4.05,3.1C130.51,265,132,264.14,133.93,263.82Z"/><path class="cls-3" d="M147,247.81q-1.55,2.06-3.11,4.09C144.15,250,145,248.42,147,247.81Z"/><path class="cls-3" d="M144,251.81l-2.06,3C142.16,253.55,142.57,252.35,144,251.81Z"/><path class="cls-3" d="M136,261.81l-2.07,2.05Z"/></g></g></svg>