<svg xmlns="http://www.w3.org/2000/svg" viewBox="0 0 279.69 306.98"><defs><style>.cls-1{fill:#2a9dd5;}.cls-2{fill:#6ee54b;}.cls-3{fill:#313330;}.cls-4{fill:#020202;}</style></defs><g id="Layer_2" data-name="Layer 2"><g id="Layer_1-2" data-name="Layer 1"><path class="cls-1" d="M185.07,198c-3.17,2.87-6.16,6.12-11.18,5.18-1.63-4.2.88-7.7,2-11.39,2.47-8.39-1.62-21.2-8.34-25.77-5.32-3.63-10.06-2.16-12.49,4.09s-2.38,13.12-1.26,19.68c3.27,19.25,7.41,38.27,18.42,55A19.2,19.2,0,0,1,175,258.14c-.51,3.95-2.43,7-6.57,7.74-5,.95-4.68-3.42-5.85-6.28-.19-.47-.94-.71-2-1.43-3,5.68-.8,10.85,1.29,15.75,2.7,6.37,6.46,12.27,8.32,19,.54,1.93,1.28,3.87-1.14,5.13a10.07,10.07,0,0,1-6.19-.06l.23.19L161,296l.14.2c-.44-2.08.13-4.81-3.59-5.15v10.73c-.58,1.27-1.7,2.83-2.88,1.91-4.19-3.23-7.93,1.27-11.89.33-3,7-6.44-.66-9.82.11-2,.46-1.59-2.2-1.82-3.77-1.11-7.62,3.17-14,4.95-20.86,1.08-4.17,3.77-7.57-3.79-8.44-4.05-.47-4.74-6.14-5.1-9.85A97.65,97.65,0,0,1,129,232.1c3.3-16.31,7.37-32.57,5.88-49.48a28.23,28.23,0,0,0-2.14-8.58c-1.7-4.07-4.8-4-8.09-4.06-3.63,0-5,2.47-6,5.55-2.4,7.09.39,13.84,1.48,20.58.84,5.25,1.53,10.47,1.95,15.76.66,8.44-1.59,15.92-8,21.48-9.36,8.14-7.64,17.5-3.8,27.23,1.33,3.38,3.49,6.45,4.65,9.87,1.94,5.69.24,11.89-5,13.51-4.69,1.45-5.06,3.51-3.92,7.08,1.76,5.48.12,8.37-5.8,8.51a5.08,5.08,0,0,0-1.88.62c-10.59,5-11.55,5.17-19.16-3a161.74,161.74,0,0,1-26.94-39.64c-6.94-14.13-14.57-28-24.9-40a136.7,136.7,0,0,1-25.25-42.9c-1.23-3.36,1-5.35,0-8.35-5-14.65.24-29.2,1.56-43.73C4.6,112.3,6.33,102.18,5,91.83a98.78,98.78,0,0,1,.86-28.42C7.29,54.8,11.91,46,17.66,38.63,27.86,25.53,46.15,28,53.1,43.21,57.94,53.8,56.37,64.62,55,75.48c-.42,3.22-1.06,6.42-1.77,10.7,1.95-1.51,2.82-2.46,3.89-3,8-3.92,11.36-1.89,10.25,7-1,7.86-2.92,15.35-.69,23.49,2.88,10.52,8.54,16.83,19.57,18.16,6.49.79,11.6,3.43,17,7.16,9.24,6.42,20.74,6.34,28-3.73,4.4-6.11,1.7-16.8-4.7-21.45-10.83-7.86-17.26-18.13-17.67-32-.28-9.58,1.55-18.17,7.6-25.71,2.78-3.46,5.81-6.47,10.74-6.16a16.59,16.59,0,0,1,.19,2.88c-.26,2.25.13,3.93,2.88,3.73a2.9,2.9,0,0,0,2.86-2.19c.55-2.53-1-3.42-3.24-3.64a25.6,25.6,0,0,1-2.83-.63c5.92-5.59,17.86-6.39,25.48-2.11s10.94,11.17,13.71,18.7c5.33,14.51,1.46,30.19-11,39.29-5.84,4.27-8,9-8.21,15.78a109.11,109.11,0,0,0,.77,13.91c.52,5.72,4.12,9,9.38,10.18,5.6,1.25,11.42,1.08,15.63-3.4,10-10.65,13.72-23.7,13.05-38.07-.08-1.56-1-2.83.29-4.44,4.51-5.64,3.16-11.85,1.17-17.91a74.51,74.51,0,0,1-4-27.08c.31-6.87,3-12.77,6.5-18.26s9.08-8.2,15.55-9.41c14.16-2.65,27.52-1.77,39.76,6.93,6.4,4.55,8.91,11.43,11.71,18a47.28,47.28,0,0,1,4,15.2c.58,9.93,4.86,18.52,8.42,27.38a202.56,202.56,0,0,1,9.66,33.25c2.5,11.55-1.15,22.35-6.15,32.61s-10.61,20.48-15.8,30.77c-7.71,15.26-10.13,32.09-13.92,48.48-5.91,25.54-21.38,43.47-43.76,56-5.38,3-11.25,3.86-17.22,1.35-1.28-2.45.68-3.73,2-5,2.75-2.56,2.81-4.42.9-8.14-4.53-8.84-.7-15.06,11-20,.74-1.07,5-2.09.43-3.29-2.53-.66-5.29-.12-6.68-3.07-.27-5.14,4.9-6.69,6.76-10.32,1.37-2.65,6.64-6.1-1.66-8.23-4.41-1.13-2.33-7.34-.27-10.25a35.64,35.64,0,0,0,4.12-8.7c-5.77-1.31-7.12,4.6-11.8,5.66-3.77-6.12,2.8-9.91,3.58-14.87-1-2-2-.57-3,.05-1.8,1.22-3.68,1.95-5.21-.11a3.75,3.75,0,0,1,.16-4.6,12.08,12.08,0,0,0,2.7-8.34l.21-.25Zm33.2,74.45c-4.89,1.75-7.86,3.08-9.29,6.81,3.4-.64,6.43-1.88,7.07-4.65,3.62-1.81,5.54-3.55,6.4-7.23C218.27,268,217.25,270.43,218.27,272.49Zm1.51-29.67a5.13,5.13,0,0,0,5.09-2.61c4-6.12,8.07-12.13,9.92-19.44,4.15-16.42,9.16-32.51,17.23-47.59,4.88-9.14,7.87-19,7-29.72-1.45-16.92-8.19-32-15.33-47.05a7.3,7.3,0,0,0-1.15-1.63c-4.25-4.8-9.2-4.08-11.45,2-1.14,3.07-1.27,6.52-2.18,9.7-1.88,6.65-8.19,8.14-13.05,3.2a15.09,15.09,0,0,1-3.89-8c-.83-4.25-1.62-8.55-.25-12.84.56-1.73.67-3.51-1.16-4.23-2.23-.88-3.83.62-4.78,2.5a17.93,17.93,0,0,0-1.47,10.73c2.54,19-1.8,36.24-12.46,52.06a21.2,21.2,0,0,0-2.8,6.32c-1.56,5.89.16,7.51,5.82,5.81,1.74-.52,3.26-2.75,5.3-.61.91,2.09-.3,3.87-.89,5.72-2.16,6.78-2.18,6.77,5.45,7.72-.6,2.84-1.61,5.66-1.72,8.51-.21,5.52,5.9,1,7.32,4.34.09,4-4.27,9.27.51,11.83,5.15,2.74,4.27,5.71,3.3,9.72-.42,1.73-1.36,4.51,2,4.27,5.57-.4,3.9,2.67,3.22,5.68s-3.92,7.19,2.92,7.77c2.73.23,1.37,2.51.69,3.71C220.75,234.47,218.81,238.25,219.78,242.82ZM19.11,140.72c2.72,15.92,2.66,32.44,12.13,46.83,3.38,5.13,7,6.63,12.38,5.51,8.67-1.82,16.49-5.38,22.37-12.24a30.36,30.36,0,0,1,14.84-9.64,59.88,59.88,0,0,0,7.59-2.43c4.47-2,7.17-8.15,6.16-13.47-1-5.11-3.5-6.85-10.26-7-1.66,0-3.33,0-5,.07-9,.53-15.23-3.13-18.67-11.8-2.08-5.22-4.74-10.22-10.62-12.62-3.74-1.53-5.19-5-5-9,.11-2,.36-4.08-2.45-4.57-4.81-.84-5-4.73-5.33-8.4A30.3,30.3,0,0,1,38.7,90.15c2.27-7.24,1.67-14.53-.8-21.6-2.56-7.32-5.4-9.63-10.22-8.83-6.29,1-6.15,6.46-6.48,10.79a75.22,75.22,0,0,0,.88,19.91c2.22,11.52,3,23-.43,34.56C20.19,130,18.33,135.18,19.11,140.72ZM97.59,259.51c-6.35-15.66-3.36-29,5.74-41.91,4.48-6.38,4.46-14.49,1.42-22.07C101.42,187.25,94,185,86.3,189.2s-10.08,13-16.85,17.89c-1.71,1.25-1.4,4.33-.42,6.61q1.18,2.75,2.52,5.41c1.21,2.43.88,4.7-1.34,6.14-2.61,1.69-5.2,1-7-1.52s-3-5.17-4.64-7.66c-1-1.58-2-3.84-4.53-2.64-2.06,1-2.4,3-1.95,5.16a42.67,42.67,0,0,0,8.4,17.88c7.57,9.6,16.32,18.39,20.6,30.24.72,2,2.12,3.73,4.42,3.14,2.66-.69,2-3.07,1.57-5-.66-3-1.36-5.69,2.07-7.81S93.54,259.21,97.59,259.51Zm120.94-220c-7.66.08-11.38,4-11.25,11.84.18,10.42,6.53,18.49,14.41,18.31,6.71-.16,13.2-6.36,13.11-12.54C234.66,47,227.7,39.43,218.53,39.52Zm-83.24,45.1c.05-3.09.64-7.31-4.48-8.83-3.25-1-6.66-1.25-9.34,1.12s-2,6-1.44,9.26c1.27,7,4.79,11.8,8.62,11.9C132.64,98.17,135,93.72,135.29,84.62ZM157,244.39c0-6.23-2.85-10.29-6.66-10.24-4,0-7.07,3.82-7.18,9.08a24.68,24.68,0,0,0,.66,4.88c.71,3.79,2.22,7.4,6.53,7.52,3.68.1,4.07-3.76,5.15-6.4A47.3,47.3,0,0,0,157,244.39Zm-9.89-90.87c-.69-2.8-1.68-5.45-5.44-5.53-4.38-.09-5.54,3-5.67,6.42-.12,3.14,1.31,6,5,5.82S146.51,157.37,147.07,153.52Zm-127,39.87,2.08-1L12.32,171C11.26,180,15.88,186.6,20.05,193.39ZM241.5,47.09c3-7.67.64-11.21-9.19-12.33C238,37.86,240.21,42,241.5,47.09ZM44,46.67c-.08-8.48-.46-8.91-10.16-10.76C39,39.38,42.21,42.37,44,46.67ZM28,39.46c-5,2.15-7.46,3.66-8.31,7.71C23.63,46.45,25.21,44.11,28,39.46ZM149,96.35a5.23,5.23,0,0,0,3.6-4.59,2,2,0,0,0-2.17-2.48c-2.57.48-3.24,2.71-3.54,5C146.78,95.4,147.46,96,149,96.35ZM153.5,225.4c-4,.07-5.85,1.07-7.09,3.18-.48.84-.92,1.77.36,2.55C149.17,230.34,151,228.7,153.5,225.4Zm-82,44.79c-.32,5.18,2,7.51,7,10.67A24.49,24.49,0,0,0,71.47,270.19ZM82.37,283c-.62-1-1.13-2.34-2.54-2.43-1-.06-1.52.73-1,1.8s1.26,2.22,2.69,2.16C81.8,284.53,82.05,283.61,82.37,283Zm55.61-22c-1.06,3-1.86,5.73,0,8.69C139.71,266.8,139.52,264.05,138,261.05Z"/><path class="cls-2" d="M128.72,30.9c-3.23-.29-7.54-.59-11.83-1.08-7.21-.83-10-6.24-7.55-12.78,3-8.12,10-11.29,16.93-13.85a50.08,50.08,0,0,1,21.57-3c6.86.59,11.73,4.52,15.59,9.66,3.24,4.33,1.3,10.7-4.13,14.62-5.8,4.18-12.76,4.87-19.53,5.88C136.5,30.83,133.14,30.7,128.72,30.9Zm-4.08-11.23c8.31.73,15.44,1,22.47-1.34,2.84-1,6.15-1.67,5.65-5.61s-3.86-4.08-6.85-3.89a87.74,87.74,0,0,0-11.77,1.42C129.73,11.13,126.52,13.7,124.64,19.67Zm15.67,3.27c-3.68-1.62-6.83-1.28-11.12.27C133.57,24.67,136.74,24.7,140.31,22.94Z"/><path class="cls-3" d="M157.5,301.77V291c3.72.34,3.15,3.07,3.59,5.15C157.68,296.63,160.13,300.83,157.5,301.77Z"/><path class="cls-3" d="M189.68,257.77c1.39,3,4.15,2.41,6.68,3.07,4.61,1.2.31,2.22-.43,3.29-.23-3.15-2.71-1.94-4.33-2.13C188.45,261.63,189.25,259.66,189.68,257.77Z"/><path class="cls-3" d="M162.93,298a10.07,10.07,0,0,0,6.19.06c-.84,1.71-2,3.39-4,3.45C163,301.57,163.63,299.22,162.93,298Z"/><path class="cls-3" d="M161,296l2.21,2.2C162.06,297.83,161.09,297.33,161,296Z"/><path class="cls-4" d="M218.53,39.52c9.17-.09,16.13,7.43,16.27,17.61.09,6.18-6.4,12.38-13.11,12.54-7.88.18-14.23-7.89-14.41-18.31C207.15,43.53,210.87,39.6,218.53,39.52Z"/><path class="cls-4" d="M135.29,84.62c-.31,9.1-2.65,13.55-6.64,13.45-3.83-.1-7.35-4.91-8.62-11.9-.59-3.24-1.38-6.75,1.44-9.26s6.09-2.08,9.34-1.12C135.93,77.31,135.34,81.53,135.29,84.62Z"/><path class="cls-4" d="M157,244.39a47.3,47.3,0,0,1-1.5,4.84c-1.08,2.64-1.47,6.5-5.15,6.4-4.31-.12-5.82-3.73-6.53-7.52a24.68,24.68,0,0,1-.66-4.88c.11-5.26,3.18-9,7.18-9.08C154.11,234.1,157,238.16,157,244.39Z"/><path class="cls-4" d="M147.07,153.52c-.56,3.85-2.35,6.53-6.1,6.71s-5.13-2.68-5-5.82c.13-3.39,1.29-6.51,5.67-6.42C145.39,148.07,146.38,150.72,147.07,153.52Z"/><path class="cls-3" d="M149,96.35c-1.57-.4-2.25-.95-2.11-2.08.3-2.28,1-4.51,3.54-5a2,2,0,0,1,2.17,2.48A5.23,5.23,0,0,1,149,96.35Z"/></g></g></svg>