<svg xmlns="http://www.w3.org/2000/svg" viewBox="0 0 599.73 764.04"><defs><style>.cls-1{fill:#020202;}.cls-2{fill:#fbac09;}.cls-3{fill:#313330;}.cls-4{fill:#6ee54b;}</style></defs><g id="Layer_2" data-name="Layer 2"><g id="Layer_1-2" data-name="Layer 1"><path class="cls-1" d="M419.13,581.07c3.71-1.46,7.39-3,11.13-4.36,8.07-3,16.11-3.69,23.95.8a6.82,6.82,0,0,1-1.6,4.6c-7.94,8-15.6,16.32-24.28,23.59-7.39,6.18-16.2,10.55-23.35,16.75a356.21,356.21,0,0,1-30,22.92c-1.34.93-4,1-3.09,3.89,18.54-1.88,34.17-11.89,53.87-26.19,13.38-9.7,24.8-22,39.41-30.11.61-.34.62-1.79.91-2.72,7.93-2.71,15.91-5,24.44-4.9,5.08,0,9.7.87,13.46,4.55.63,5.89-1.85,11-4.08,16.18-4,9.27-10.56,16.74-16.95,24.37-9.34,11.15-18.08,22.71-29.74,31.84-4.78,3.75-10.68,6.94-14.06,12.69,2,1.06,3.22.49,4.48.08,32.78-10.6,54.74-35,76.52-59.72,7.33-6.31,15.22-11,25.51-9.6,6.41.85,12,2.85,16.75,7.59,6.79,6.86,13.1,13.58,15.74,23.55,3.57,13.45.77,25.4-5.53,37.07a72,72,0,0,1-16.84,20.63,4.64,4.64,0,0,0,5.2.66c8-4.28,15.82-1.17,23.22,1.09,12.32,3.77,20.58,21,11.95,35.31-9.37,15.51-23.17,24.37-40.47,28-27,5.67-54.31,4.84-81.58,3.19-8.64-.53-17.27-1.09-25.92-1.09-60.93,0-121.85-1.45-182.76-3-27.28-.69-54.6.12-81.86-1.77a97.23,97.23,0,0,0-14,.45c-6.64.51-13.23,1.37-19.78-.89a17.54,17.54,0,0,0-5.95-.44c-35.62.66-71.2-1.63-106.81-1.9A271.84,271.84,0,0,0,0,756.26c5-13,9.76-25.5,16.18-37.63,4.87-9.18,8.11-19.66,10.92-30,4.21-15.51,9.13-30.81,11.08-46.84,3.6-29.5,4.67-59,1.34-88.63-4.36-38.7-8.54-77.44-9.37-116.42.16-.14.5-.33.47-.43a10,10,0,0,0-.47-1.25c-1.39-41.28-2.89-82.57-4.1-123.86-.61-20.69,1.32-41.29,3.24-61.86.55-5.89,1.12-10.78-5.2-15.17a23,23,0,0,1-9.87-16.24,17.44,17.44,0,0,1,1.88-10.32c8.3,10.95,19.09,14.79,32.43,11.37a15.79,15.79,0,0,1,2.94-.53c9.94-.64,16.53-6.09,21.09-14.52,9.23-17.05,11.62-35,7.8-54-1.62-8.08-4.9-14.92-10.81-20.77-11.14-11-28.86-9.68-37.76,3.07-4.53,6.48-8.25,13.65-15,18.28a4.91,4.91,0,0,0-2.32-3.54h.08c4.2-5.57,5.22-12.87,10.16-18.15,2.34-2.5,1.2-6.37,1.3-9.64.48-15.57-1.79-31.09-.53-46.7,1.2-14.85,2.5-29.81,7.1-43.9,3-9.27,7.6-18.5,16.56-24.49C56.85-1.12,59.32-1.5,68,3.82c.18,4.47-1.81,8.37-3.27,12.4-7,19.19-12.08,38.5-5.32,59,1.36,4.13.3,9,4,12.74,2.45-29.62,6.21-46.72,16.86-69,1.45-3.72,4.79-6.08,6.53-9.73C90.1,2.39,96.25.07,103.24,1.63c7.26,1.61,12,6.27,12.84,14.13C103,41.68,97.3,60.58,100.31,69.32c6.7-8,11.91-16.78,18.6-24.46,2.39-2.75,7.41-3.77,7.23-8.69,4.37-3.66,8.06-8.06,13.34-10.73a23.19,23.19,0,0,1,10.19-2.93c9.15-.14,13.06,3.54,14.79,13.52-1.27.22-3,0-3.74.72-10.29,10.89-23.93,17.81-34,29.12-6.9,7.79-11.31,16.52-12.44,26.53-.58,5.14-4,10.38-1.31,16,.83-.33,1.27-.36,1.4-.58.5-.84,1.29-1.76,1.25-2.62-.39-8.2,3.55-14.7,8.15-20.9,10.86-14.66,25.81-24.58,40.6-34.66,7.26-4.63,14.8-8.38,23.79-7.41s11.7,3.41,13,11.48a6,6,0,0,0-4.7,1.16,86.69,86.69,0,0,0-19.7,24.47c-.19.34.43,1.12.76,1.9,2.93.77,5.73.7,8-1.83,9.09-3.92,18.73-3.79,28.37-4.26,5.06-.25,6.54,2.59,7.25,6.26,1.88,9.7-.63,18.24-7.43,25.53-7.54,8.08-17.44,13-26.14,19.46-16.51,12.32-30.4,27.09-39.88,45.35-15.35,29.56-29.05,60-36.55,92.58-9.86,42.75-11.57,85.68,2.4,128.16,7.14,21.69,17.15,41.78,32.16,59.19,8.06,9.34,17.69,16.18,30,18.54,13.26,2.54,25.43,2.38,34.75-10.29,2.94-4,7.48-7.31,10.53-11.59,6.1-8.6,11.85-17.15,14.42-27.91,2.19-9.15,5.74-18,7-27.43,3.28-24-4.16-46.77-24.4-61.46-8.89-6.45-17.34-13.49-26.14-20.07-25.41-19-16.85-55.58-3.92-72,4.48-5.68,13.25-3.9,15.69,3.48,2.69,8.1,4.07,16.62,6.4,24.85,1.21,4.24,1.5,9.34,7.07,11,1.24.37,2.32,1.1,3.74,1,7.77-.58,17.17-14.54,13.64-21.61-2.43-4.89-3-10.54-6.84-14.9-3-3.41-2.06-8.11-1.71-12.42.31-3.77,2.65-5,5.93-5.45,8-1.2,15.15,1.37,21.62,5.67a72.17,72.17,0,0,1,21.57,21.86c10.16,16.42,7.92,33.44-3.48,50-2.06,3-4.35,5.83-6.53,8.74-6,3.78-11.6,8.16-18.4,11.14,6.66,4.85,6.66,4.85,18.77,5.17,2.45,25.71,5.62,51.31,12.41,76.32,1.63,6,3.11,12.05,4.7,18.06,1.1,4.17,2.29,6.74,8.07,5,7.32-2.25,13.86,1.73,17.36,8.54-16.41,6.54-23,13.09-22.62,24.05,6.23-10.45,15-15.82,25.45-18.57,14.74-.59,26.29,12.47,23.69,26.52-1,5.43.32,11-1.08,16.58C330,498,322,508.71,313.31,519.16c-1.31,1.58-4.48,2.25-3.08,5.41l-.66-.12-.31.58a13.61,13.61,0,0,0-6.21,3,65.07,65.07,0,0,1-40.83,13.75c-13.32-.09-26.64.56-40,.3A96.87,96.87,0,0,0,192.71,546c-24.31,7.17-46.73,17.56-63.29,37.75-7.74,3.16-12.55,9.67-17.25,16a100.14,100.14,0,0,0-20.26,67.31c1,17.12,9,30.27,23.42,39.48,9.28,5.93,19.94,6.69,30.43,8.44,8.23,1.36,15.89.8,23.35-2.62a215.08,215.08,0,0,0,34.69-19.66c28-19.83,52.88-43.27,76.48-68.09,1.49-1.57,4-2.91,2.18-5.8l.82-.49c1.6.83,2,.28,1.52-1.32l.42-.33c1.6.62,2.19,0,1.89-1.59l.17-.13c1.52.43,2.2-.19,2.13-1.72l.62.46-.62-.44c1.43.19,2.15-.45,2.2-1.88l-.08.09a1.88,1.88,0,0,0,2.15-2l-.09.09a2,2,0,0,0,2.18-2l-.06,0c1.89.07,3.77.14,3-2.72l.5-.35c2.2,1,2.66-.38,2.91-2.08,13.26-8.13,25.39-17.86,38-26.93,4.5-3.23,9.57-5.91,12.67-10.83,2.38.85,2.69-.34,2.24-2.28,5.07-.95,9.16-4.14,13.82-6,13.7-5.64,26.91-6.18,39.2,3.56-23.34,20.48-44.1,43.9-70.31,61.32,15.08-4.28,30.43-7.31,43.29-16.77C393,595.59,406.07,588.3,419.13,581.07ZM76,227.92l-2,2-2,2-2,2c-1,.35-1.11.64-.45.75.08,0,.25-.54.37-.82l2-2,2-2a2.68,2.68,0,0,0,2-2l2-2c1.67-.82,2-2.34,2-4,.87-.69,2.6-1.13.75-2.6l-.66,2.68c-1.7.81-2,2.33-2,4Zm61,296.57c-.38-3.17-2.55-2.36-4.39-1.89-7.06,1.83-14.18,3.48-21.13,5.67C88.91,535.39,74.78,552.89,78,581.13c.2,1.66.19,3.67,2.23,3.88,1.8.17,2.92-1.41,3.43-3.06,1.67-5.4,3.37-10.76,6.2-15.72,10.63-18.66,23.86-34.37,45.58-40.58A6,6,0,0,0,137.06,524.49Zm161.85-21c9.26-2.75,13.49-10.13,17.22-18a3.65,3.65,0,0,0-.89-4.55c-1.67-1.38-3.69-1.23-5.62-.32C303.13,483.68,297.65,495.11,298.91,503.45ZM264.83,267.86c1.58-11.36,1.18-12.29-7.6-18.33,1,3.22,2.66,6,2.51,9.43C259.61,262.21,260.92,265.27,264.83,267.86Zm272.62,359.5c-.35-1.55-1.49-2.67-3.26-1.81-3.69,1.79-5.73,5.17-7.16,8.85a2.81,2.81,0,0,0,1.19,3.41,3,3,0,0,0,3.62-.21C535.2,635.16,536.58,631.56,537.45,627.36Zm-70.83-18c8.05.28,8.12.19,8.19-8.45C470.22,601.49,468.41,604.78,466.62,609.32Zm-46.31-15.68c2.53-1.29,6.74-.9,7.65-5.43a1.56,1.56,0,0,0-1.61-1.93c-3.57.59-7,1.9-9,5C416.74,592.22,418.21,593.53,420.31,593.64Zm-41-29.37c-2.84,2.55-9,2.69-7.33,10.17C375.58,571.12,378.59,568.71,379.33,564.27ZM56.42,242.68c-4.91-.74-7.49-3.06-11.85-1.86C48.21,244.57,51.2,244.08,56.42,242.68Zm24.9,349.45c-.22-.52-.32-1.3-.7-1.49a1.6,1.6,0,0,0-1.48.53,1.16,1.16,0,0,0,.92,1.86C80.44,593.08,80.9,592.45,81.32,592.13ZM60,240.37c-.22.14-.52.23-.63.43s.22.39.35.6l1-.73Zm22.85-27a2.92,2.92,0,0,0-.24.82c0,.09.4.18.62.26a2.83,2.83,0,0,0,.24-.82C83.41,213.57,83,213.49,82.8,213.4Z"/><path class="cls-2" d="M352.73,564.67c-3.1,4.92-8.17,7.6-12.67,10.83-12.6,9.07-24.73,18.8-38,26.93-1.52-.08-2.25,1-2.91,2.08l-.5.35c-1.34.52-2.6,1.13-3,2.72l.06,0a2.23,2.23,0,0,0-2.18,2l.09-.09a2.28,2.28,0,0,0-2.15,2l.09-.09a2.33,2.33,0,0,0-2.21,1.88l.62.44-.62-.46a2.25,2.25,0,0,0-2.13,1.72l-.16.13-1.9,1.59s-.42.33-.41.34l-1.53,1.31-.82.49c-11.21,7.25-20.61,16.75-31.09,24.92-19.36,15.09-40.55,25.92-65.2,27.31-34.84,2-53.15-11.6-61.44-42.73C120.64,613,122,598,129.42,583.79c16.56-20.19,39-30.58,63.29-37.75a96.87,96.87,0,0,1,29.55-3.95c13.32.26,26.64-.39,40-.3A65.07,65.07,0,0,0,303.05,528a13.5,13.5,0,0,1,6.21-3L336,527.59l.38.06a7.29,7.29,0,0,0,3.91,3.62l.29.33a4.24,4.24,0,0,0,3.24,3.27c6.73,6.11,9.1,13.86,8.56,22.7C352.5,559.93,352.62,562.3,352.73,564.67Zm-147.07,4.54c-13.24-.21-26.28,14.37-27.89,24.52-.92,5.82,3,8.65,8.67,6.68a18.84,18.84,0,0,0,7.26-5.1c4.68-4.83,9.63-8.72,16.77-9.81,5.58-.86,7.21-5.48,4.86-10.65C213.46,570.71,210,569.19,205.66,569.21Zm11.88,65c-1.39-3.11-2-6-5.42-6s-7.58,4.84-7.36,8.24c.17,2.61,2.12,3.44,4.2,2.81C212.26,638.3,215.81,637.37,217.54,634.25Z"/><path class="cls-2" d="M16.76,150.48c6.78-4.63,10.5-11.8,15-18.28,8.9-12.75,26.62-14.08,37.76-3.07,5.91,5.85,9.19,12.69,10.81,20.77,3.82,19,1.43,36.95-7.8,54-4.56,8.43-11.15,13.88-21.09,14.52a15.79,15.79,0,0,0-2.94.53c-13.34,3.42-24.13-.42-32.43-11.37-1.73-1.32-3.5-2.08-3.68-5.09-.64-10.47-1.75-20.85,1-31.24a28.56,28.56,0,0,0,.87-10.71C13.77,156.64,15.39,153.69,16.76,150.48Zm9,13.61c.19,3.12-.88,6.86,3.06,7.73s4.72-2.85,5.57-5.63c1.93-6.34,3.3-12.85,6.75-18.67a10.57,10.57,0,0,0,1-4.82c.11-2.65-1.53-3.44-3.89-2.95-2.82.59-4.53,2.71-6,4.89C28.09,150.54,26.79,157.39,25.8,164.09Zm4.62,36.49a2.11,2.11,0,0,0-1.78,2.89c.63,2.12,1.36,4.49,4.31,4.31A2,2,0,0,0,34.73,205C34.12,202.79,33,200.85,30.42,200.58Z"/><path class="cls-3" d="M520.17,615.33c-21.78,24.68-43.74,49.12-76.52,59.72-1.26.41-2.46,1-4.48-.08,3.38-5.75,9.28-8.94,14.06-12.69,11.66-9.13,20.4-20.69,29.74-31.84,6.39-7.63,13-15.1,16.95-24.37,2.23-5.16,4.71-10.29,4.08-16.18C514.31,595.24,519.17,604.06,520.17,615.33Z"/><path class="cls-3" d="M419.13,581.07C406.07,588.3,393,595.59,381,604.45c-12.86,9.46-28.21,12.49-43.29,16.77,26.21-17.42,47-40.84,70.31-61.32C415.51,565,419.83,571.69,419.13,581.07Z"/><path class="cls-3" d="M466.1,590.24c-.29.93-.3,2.38-.91,2.72-14.61,8.13-26,20.41-39.41,30.11-19.7,14.3-35.33,24.31-53.87,26.19-1-2.87,1.75-3,3.09-3.89a356.21,356.21,0,0,0,30-22.92c7.15-6.2,16-10.57,23.35-16.75,8.68-7.27,16.34-15.57,24.28-23.59a6.82,6.82,0,0,0,1.6-4.6A15.59,15.59,0,0,1,461.86,588C462.44,591,464.42,590,466.1,590.24Z"/><path class="cls-3" d="M80.34,18.89C69.69,41.22,65.93,58.32,63.48,87.94c-3.74-3.69-2.68-8.61-4-12.74-6.76-20.48-1.64-39.79,5.32-59,1.46-4,3.45-7.93,3.27-12.4C73.69,7.57,74.08,15.63,80.34,18.89Z"/><path class="cls-3" d="M164.41,49.61c-14.79,10.08-29.74,20-40.6,34.66-4.6,6.2-8.54,12.7-8.15,20.9,0,.86-.75,1.78-1.25,2.62-.13.22-.57.25-1.4.58-2.65-5.59.73-10.83,1.31-16,1.13-10,5.54-18.74,12.44-26.53,10-11.31,23.67-18.23,34-29.12.7-.75,2.47-.5,3.74-.72C167.49,40.57,162.69,45.08,164.41,49.61Z"/><path class="cls-3" d="M126.14,36.17c.18,4.92-4.84,5.94-7.23,8.69-6.69,7.68-11.9,16.45-18.6,24.46-3-8.74,2.67-27.64,15.77-53.56A28.49,28.49,0,0,1,122,29C122.51,31.88,122.48,35.11,126.14,36.17Z"/><path class="cls-3" d="M185.57,79.38c-2.32,2.53-5.12,2.6-8,1.83-.33-.78-1-1.56-.76-1.9a86.69,86.69,0,0,1,19.7-24.47,6,6,0,0,1,4.7-1.16c2.91,8.27-4,12.21-7.83,17.4C191.08,74.11,187.05,75.56,185.57,79.38Z"/><path class="cls-3" d="M265.48,328c-12.11-.32-12.11-.32-18.77-5.17,6.8-3,12.41-7.36,18.4-11.14Q265.29,319.83,265.48,328Z"/><path class="cls-3" d="M310.85,441.35c-10.49,2.75-19.22,8.12-25.45,18.57-.35-11,6.21-17.51,22.62-24.05C310.21,437.05,309.91,439.52,310.85,441.35Z"/><path class="cls-4" d="M336,527.59,309.26,525l.31-.59.66.12C319.09,523.31,327.72,524,336,527.59Z"/><path class="cls-4" d="M352.73,564.67c-.11-2.37-.23-4.74-.34-7.1.87,1.6,1.74,3.21,2.59,4.82C355.42,564.33,355.11,565.52,352.73,564.67Z"/><path class="cls-4" d="M30.15,435a10,10,0,0,1,.47,1.25c0,.1-.31.29-.47.43a9.12,9.12,0,0,1-.53-1.26C29.59,435.37,30,435.18,30.15,435Z"/><path class="cls-4" d="M340.3,531.27a7.29,7.29,0,0,1-3.91-3.62C338.83,527.62,340.14,528.82,340.3,531.27Z"/><path class="cls-4" d="M343.83,534.87a4.24,4.24,0,0,1-3.24-3.27C342.63,531.75,343.5,533.05,343.83,534.87Z"/><path class="cls-2" d="M14.52,146.94h0Z"/><path class="cls-3" d="M129.42,583.79C122,598,120.64,613,124.73,628.32c8.29,31.13,26.6,44.69,61.44,42.73,24.65-1.39,45.84-12.22,65.2-27.31,10.48-8.17,19.88-17.67,31.09-24.92,1.84,2.89-.69,4.23-2.18,5.8-23.6,24.82-48.45,48.26-76.48,68.09a215.08,215.08,0,0,1-34.69,19.66c-7.46,3.42-15.12,4-23.35,2.62-10.49-1.75-21.15-2.51-30.43-8.44-14.43-9.21-22.46-22.36-23.42-39.48a100.14,100.14,0,0,1,20.26-67.31C116.87,593.46,121.68,587,129.42,583.79Z"/><path class="cls-3" d="M137.06,524.49a6,6,0,0,1-1.6,1.16c-21.72,6.21-34.95,21.92-45.58,40.58-2.83,5-4.53,10.32-6.2,15.72-.51,1.65-1.63,3.23-3.43,3.06-2-.21-2-2.22-2.23-3.88-3.24-28.24,10.89-45.74,33.52-52.86,6.95-2.19,14.07-3.84,21.13-5.67C134.51,522.13,136.68,521.32,137.06,524.49Z"/><path class="cls-4" d="M379.33,564.27c-.74,4.44-3.75,6.85-7.33,10.17C370.34,567,376.49,566.82,379.33,564.27Z"/><path class="cls-3" d="M56.42,242.68c-5.22,1.4-8.21,1.89-11.85-1.86C48.93,239.62,51.51,241.94,56.42,242.68Z"/><path class="cls-3" d="M81.32,592.13c-.42.32-.88,1-1.26.9a1.16,1.16,0,0,1-.92-1.86,1.6,1.6,0,0,1,1.48-.53C81,590.83,81.1,591.61,81.32,592.13Z"/><path class="cls-3" d="M60,240.37l.71.3-1,.73c-.13-.21-.4-.49-.35-.6S59.73,240.51,60,240.37Z"/><path class="cls-3" d="M299.16,604.51c.66-1.13,1.39-2.16,2.91-2.08C301.82,604.13,301.36,605.53,299.16,604.51Z"/><path class="cls-3" d="M295.71,607.58c.35-1.59,1.61-2.2,3-2.72C299.48,607.72,297.6,607.65,295.71,607.58Z"/><path class="cls-3" d="M78.06,225.9c0-1.65.3-3.17,2-4l-.09-.08c0,1.64-.32,3.16-2,4Z"/><path class="cls-3" d="M80.06,221.92l.66-2.68c1.85,1.47.12,1.91-.75,2.6Z"/><path class="cls-3" d="M82.8,213.4c.21.09.61.17.62.26a2.83,2.83,0,0,1-.24.82c-.22-.08-.62-.17-.62-.26A2.92,2.92,0,0,1,82.8,213.4Z"/><path class="cls-3" d="M70,233.84c-.12.28-.29.83-.37.82-.66-.11-.5-.4.45-.75Z"/><path class="cls-3" d="M72,231.84l-2,2,.08.07,2-2Z"/><path class="cls-3" d="M72,231.91l2-2-.08-.09-2,2Z"/><path class="cls-3" d="M74,229.92l2-2-.08-.09a2.68,2.68,0,0,1-2,2Z"/><path class="cls-3" d="M78,225.82l-2,2,.08.09,2-2Z"/><path class="cls-3" d="M293.59,609.53a2.23,2.23,0,0,1,2.18-2A2,2,0,0,1,293.59,609.53Z"/><path class="cls-3" d="M291.53,611.47a2.28,2.28,0,0,1,2.15-2A1.88,1.88,0,0,1,291.53,611.47Z"/><path class="cls-3" d="M289.41,613.26a2.33,2.33,0,0,1,2.21-1.88C291.56,612.81,290.84,613.45,289.41,613.26Z"/><path class="cls-3" d="M287.28,615a2.25,2.25,0,0,1,2.13-1.72C289.48,614.77,288.8,615.39,287.28,615Z"/><path class="cls-3" d="M285.22,616.68l1.9-1.59C287.41,616.72,286.82,617.3,285.22,616.68Z"/><path class="cls-3" d="M283.28,618.33l1.53-1.31C285.29,618.61,284.88,619.16,283.28,618.33Z"/></g></g></svg>