<svg xmlns="http://www.w3.org/2000/svg" viewBox="0 0 517.71 682.53"><defs><style>.cls-1{fill:#2a9dd5;}.cls-2{fill:#020202;}.cls-3{fill:#fbac09;}.cls-4{fill:#313330;}</style></defs><g id="Layer_2" data-name="Layer 2"><g id="Layer_1-2" data-name="Layer 1"><path class="cls-1" d="M104.72,161.33c3.41-8.42,6.49-17,11.21-24.82,8.53-14.1,21.49-24.09,33.25-35.16.83-.78,2.51-.65,3.79-.95l1-1.11c.31-.62.62-1.24.93-1.84a3.86,3.86,0,0,0,3-3l.15-.6s.6-.1.6-.09c5.16-3,10.27-6.07,15.52-8.9,3.19-1.71,7.45-5,9.74-4.08,5.64,2.36,6.82-.94,8.69-4.36s3.84-7,5.77-10.46l-.18.23c1.58-1,2-2.68,2.45-4.37C217.23,43.53,235,26.5,255.2,12.29,263,6.83,272.13,3.82,281.14.88A21.43,21.43,0,0,1,290,.17c13.72,1.59,19.1,11.91,12.84,24.35a78.78,78.78,0,0,1-11.05,16.34c-5.21,6-10.53,11.91-15.54,18.07-7.3,8.95-5.75,18,1.72,24.86,5.57,5.08,9.44,11.07,13.33,17.1,3,4.59,6,7.66,11.35,9.9,10.85,4.53,19.55,12.18,24.1,23.59.58.61,1.15,1.22,1.73,1.82l-.17-.23c.28,2.16-.17,4.58,2.14,6,.35,1.52.27,3.24,1.93,4.14.66,1.31,1.31,2.63,2,3.94l.67.46-.78-.35c-.34-1.47-.57-3-2-3.94-.3-1.54-.6-3.08-1.92-4.15-.28-2.59.45-4.3,3.43-4.62,2.07-.23,4.58,1.06,6.12-1.47l.34-.17c1.58-.2,3.17-.39,4.19-1.87l-.24.19a6.88,6.88,0,0,0,6.45-3.8c5-4,11-5.78,16.89-7.43,11-3,20.1,2.09,22.7,13.19.94,4,2.75,5.1,6.14,6.45a86.9,86.9,0,0,0,40.86,6.07,52.6,52.6,0,0,1,25.39,3.77c1.37,2,3.7.76,5.42,1.59,8.77.73,15.44,6,21.87,11.06,15.78,12.51,23.42,29.19,26.93,49.11,3.82,21.63-5.75,37.58-17.08,53.77-5.74,8.19-13.48,14.54-19.5,22.49a25.44,25.44,0,0,0-5.54,16.45,164.84,164.84,0,0,1-19.86,80.05A120.63,120.63,0,0,1,433,416.39c-4,3.88-6.44,7.85-6.76,13.77-.52,9.37-3.52,17.78-11.1,24.53-7,6.24-6.6,8.26.69,14,7.56,5.94,15.43,11.39,22.16,18.43,8.6,9,10.8,19,6.14,30.14-4.78,11.43-13.08,19-26.13,20.24-13.74,1.29-24.48-5.15-34.61-13.2-6.92-5.5-13.82-11-20.59-16.72-2.07-1.75-3.4-1.14-5.11.31-8.76,7.45-19.27,10.12-30.44,10.68a23,23,0,0,0-15.1,6.71c-7.8,7.31-14.13,15.92-21.51,23.58a8,8,0,0,0-2.38,5.28c-.38,6.31-1.36,12.6-1.32,18.89.05,9.55-1.73,18.56-6.67,26.71-2.78,4.58-1.9,7.56,1.86,11.18,6.93,6.67,14.12,13.2,19.19,21.56,5.89,9.73,10.66,19.71,9.75,31.64-.93,12.34-7.46,18.59-20,18.44C278,682.37,267.75,677,260,666.2a156.65,156.65,0,0,0-19.91-23.31c-8.85-8.33-13.5-9-23.35-2.27-13.15,9-27.8,12.42-43.49,13.85-19.29,1.76-35.83-4.91-51.76-14.21-15.43-9-28.58-20.64-41.17-33.41-12.14-12.31-23.55-25-33.17-39.24A157.9,157.9,0,0,1,30.61,536.5C25.78,524,20.07,511.87,15.5,499.3s-9.07-25.42-11-39C2.28,444.84,1.11,429.4.28,413.9c-1.14-21.24,1.35-42.35,4.59-63.19,1.42-9.12,5.61-18.18,8.36-27.33,5.34-17.75,13.57-34.37,20.6-51.45,2.26-5.51,5-11.26,9.47-15.71,4.23-2.59,4.12-8.66,8.5-11.4,1.36,2.37.23,4.37.54,6.31C49.1,262,46,272.91,44.8,284.19,38.57,344,47.48,401.64,68.65,457.68A566.06,566.06,0,0,0,91.71,509.6c2.66,7.19,5.92,14,12.81,18.75q-5.11-11.61-10.21-23.22C86,483.2,80,460.56,74.49,437.81c-1-4.08-3.27-8-2.26-12.51-.26-1.32-.15-2.86-1.92-3.3l.2.1c.94-2.3.26-4.62-.13-6.87-4.69-26.74-4.33-53.57-1.91-80.48,1.77-19.63,5-39,12.83-57.13,9-21,13.71-42.92,17.26-65.27,2.45-15.39,2.06-31.2,6.94-46.23C105.94,164.75,105,162.94,104.72,161.33Zm-8,196,0-.27c2.43,2.07,5.59,7.54,7.91,1.74,2.62-6.53,2.59-14.17,3.36-21.37.22-2.06-2-3.29-3.59-4.45-2.4-2.65-5.49-4-7,.08-2.65,7-6.4,14.21-2.61,22.11Zm23.44,126.79a1,1,0,0,0,.24,1.58c10.31,1,13.55-2.55,10.54-12.06-1.39-4.37-3.48-8.51-5-12.85-3.21-9.18-4.57-10.22-15-10.65-.79.51-2.2,1-2.26,1.55-1.26,12.66.44,24.38,11.18,33Zm10-259.75c-2.4-5.3-5.43-2.14-7.27,0-5.9,6.86-10.5,14.41-8.93,24.13,5,7.24,6.71,7.49,10.43.29,3.16-6.11,5.32-12.74,7.8-19.19C133,227.37,131.41,225.86,130.15,224.34Zm12.79,323.94c-1.31-.23-2.65-.4-3.68.68C131,557.7,134,573.6,145,579.71c5.47,1.21,7.5-1.61,7.08-6.51-.62-7.25-2.9-14.24-3.09-21.6C149,548.3,145.84,547.82,142.94,548.28ZM307.37,214c2.27-1.36,4.52-2.74,6.8-4.07,15.59-9.09,19.32-28.26,8.26-42.44-1.69-1.08-3.39-2.13-5.05-3.24-18.24-12.28-38.14-10.88-54,5.93a70.7,70.7,0,0,1-18,14c-8.49,4.58-16.85,9.44-25.46,13.81-16.68,8.44-25.47,23.77-34.47,38.93-1,1.63-.95,3.84-1.49,5.76-2.75,9.73,1.57,18.26,4.56,27,4.41,11.71,8.26,13.52,19.38,8.77a81.1,81.1,0,0,0,9.67-5.1c12.29-7.38,23.35-16.41,33.94-26,8.07-7.32,15.8-15,24.91-21.1Zm63.87,169.89C360,370.56,352.5,369,337.5,376.92a68.45,68.45,0,0,0-15.81,12c-10.22,9.94-20.41,19.91-30.89,29.55-35.6,32.74-63.9,71-86.28,113.72-7.36,13.7-9.08,28.25-5.8,43.3,2.42,11.12,12,18.6,21.43,16.58,8.19-1.76,15.82-5.26,21.37-11.93,7.67-9.2,15-18.64,20.41-29.44s10.86-21.33,16.43-31.91c11.51-21.87,24.71-42.57,42.4-60.06,9.24-9.14,20.13-16.31,30.36-24.25,8.55-6.64,15.6-14.47,20.45-24.15C376,401.53,377.11,392.61,371.24,383.86ZM374,255.74a46.32,46.32,0,0,1-4.54-5.2c-5.37-8.25-13.36-10.69-22.49-9.87a57.41,57.41,0,0,0-16.42,4c-14.23,5.75-27.5,13.35-41.13,20.3C252.47,283.74,223,309.86,204,347.3c-6.87,13.53-7.85,27.82-8.42,42.39a61.1,61.1,0,0,0,2.12,18.73c3.86,13.19,13.43,17.58,26.05,12.38,17.24-7.11,31.8-18.1,45-30.94a115.74,115.74,0,0,1,24.8-18.25q13.93-7.8,27.48-16.31a109.89,109.89,0,0,0,21-16.81,31.14,31.14,0,0,1,12.11-8.24c13.17-4.76,21.23-14.5,25.48-27.55,1.55-4.74,2.76-9.59,3.91-14.44C386.44,275.66,384.49,264.44,374,255.74ZM134.55,153c0,1.49,0,2.15,0,2.82.23,4.5,1,8.93,6.2,10.13,4.79,1.11,7.34-2.26,9.27-5.93,3.41-6.46,6.89-12.91,9.88-19.58,2.81-6.27-1.43-12.13-8.26-12.11a10.05,10.05,0,0,0-7.76,3.9A38.79,38.79,0,0,0,134.55,153Zm321,75.61C462.79,208,450.7,190,430.27,190,439.63,202.22,447.47,215,455.59,228.59Zm-297.24,3.5c11.41-2.61,20.15-9.92,27.28-19.46,1.61-2.15,2.6-5.28.32-7.37-3.07-2.82-5.5.07-7.6,2.07a89.5,89.5,0,0,1-21.94,15.47,18,18,0,0,0-4.14,2.73c-2.61,2.41-2,4.77,1.45,5.78A43.76,43.76,0,0,0,158.35,232.09Zm112.23-110.8c-.34-4.32-.74-9-3.71-12.81-2.31-3-5.71-3-7.17.1-3.07,6.57-6,13.3-6.6,20.63-.38,4.78,2.94,7.24,7.67,6.39C267.09,134.45,270.71,129.3,270.58,121.29ZM250.31,43.16c.07-4-4.49-5.93-9.2-3.66-6.25,3-9.92,8.72-13.88,14-1.45,2-1.93,4.46-.42,6.56,1.88,2.62,4.88,2.29,7.25,1.12,7.1-3.5,12.05-9.28,15.77-16.15A7.51,7.51,0,0,0,250.31,43.16Z"/><path class="cls-2" d="M104.72,161.33c.3,1.61,1.22,3.42.78,4.79-4.88,15-4.49,30.84-6.94,46.23C95,234.7,90.32,256.66,81.3,277.62c-7.8,18.15-11.06,37.5-12.83,57.13-2.42,26.91-2.78,53.74,1.91,80.48.39,2.25,1.07,4.57.13,6.88-5.08-3.83-5.31-9.89-6-15.19-2.19-17.4-8.18-34.2-8.16-51.94a10.87,10.87,0,0,0-1-4.85c-3.39-6.5-3.13-13.5-3-20.46.29-21.85-1.51-43.94,7.31-64.83a3.92,3.92,0,0,0,.23-1c3.2-23.51,10.25-46,19-67.92,1.43-3.62,3.41-7.24,1.85-11.38C87.12,175.14,95.83,168.14,104.72,161.33Z"/><path class="cls-3" d="M80.76,184.57c1.56,4.14-.42,7.76-1.85,11.38-8.72,22-15.77,44.41-19,67.92a3.92,3.92,0,0,1-.23,1c-8.82,20.89-7,43-7.31,64.83-.1,7-.36,14,3,20.46a10.87,10.87,0,0,1,1,4.85c0,17.74,6,34.54,8.16,51.94.66,5.3.89,11.36,6,15.19l-.2-.11a3.59,3.59,0,0,0,1.92,3.3c-1,4.47,1.26,8.43,2.26,12.51C80,460.56,86,483.2,94.31,505.14c-.62,1.63,1.31,4.75-2.6,4.46a566.06,566.06,0,0,1-23.06-51.92C47.48,401.64,38.57,344,44.8,284.19c1.17-11.28,4.3-22.2,7.54-33.06,3.54-8.12,8-16,7.94-25.19l-.06.21c2.89-3.86,5.67-7.79,6.53-12.7C69.28,202.79,74.7,193.52,80.76,184.57Z"/><path class="cls-4" d="M198.39,66c-1.93,3.49-3.86,7-5.77,10.46s-3.05,6.72-8.69,4.36c-2.29-1-6.55,2.37-9.74,4.08-5.25,2.83-10.36,5.92-15.52,8.9A55.26,55.26,0,0,1,181.1,79.51a26,26,0,0,0,12.84-9.16C195.16,68.8,194.94,65.35,198.39,66Z"/><path class="cls-4" d="M60.28,225.94c0,9.23-4.4,17.07-7.94,25.19-.31-1.94.82-3.94-.54-6.31-4.38,2.74-4.27,8.81-8.5,11.4A114.23,114.23,0,0,1,60.28,225.94Z"/><path class="cls-4" d="M330.47,142c-2.31-1.43-1.86-3.85-2.14-6a24.46,24.46,0,0,0,11.6,0c-1.56,2.54-4.07,1.25-6.14,1.48-3,.32-3.71,2-3.43,4.62Z"/><path class="cls-4" d="M66.75,213.45c-.86,4.91-3.64,8.84-6.53,12.7C61.61,221.51,62.27,216.5,66.75,213.45Z"/><path class="cls-4" d="M350.65,130.34a6.88,6.88,0,0,1-6.45,3.8C345.45,131.35,348,130.71,350.65,130.34Z"/><path class="cls-4" d="M157.92,94.44a3.86,3.86,0,0,1-3,3Z"/><path class="cls-4" d="M468.05,154c-1.72-.83-4.05.44-5.42-1.59C464.59,152.4,466.7,151.89,468.05,154Z"/><path class="cls-4" d="M344.44,134c-1,1.48-2.61,1.67-4.19,1.87C341.17,134.12,343.13,134.77,344.44,134Z"/><path class="cls-4" d="M200.66,61.81c-.4,1.69-.87,3.33-2.45,4.37C197.21,63.7,199.25,62.93,200.66,61.81Z"/><path class="cls-4" d="M154,99.29l-1,1.11A2.69,2.69,0,0,1,154,99.29Z"/><path class="cls-4" d="M328.5,136.2c-.58-.6-1.15-1.21-1.73-1.82C327.35,135,327.92,135.6,328.5,136.2Z"/><path class="cls-2" d="M195.55,389.69c.57-14.57,1.55-28.86,8.42-42.39,19-37.44,48.5-63.56,85.44-82.38,13.63-6.95,26.9-14.55,41.13-20.3a57.41,57.41,0,0,1,16.42-4c9.13-.82,17.12,1.62,22.49,9.87a47.26,47.26,0,0,0,4.53,5.2c-2,1.64-1,3.61-.55,5.48,3.63,15.1.34,29-7.52,42a82.72,82.72,0,0,1-17.55,20.26,294.11,294.11,0,0,1-48.13,33.69c-24.54,13.65-46.93,30.18-67.93,48.7a31.39,31.39,0,0,1-10.1,6.22c-15.54,5.65-29.51-6.4-27-23.35Z"/><path class="cls-2" d="M204.52,532.2c22.38-42.74,50.68-81,86.28-113.72,10.48-9.64,20.67-19.61,30.89-29.55a68.45,68.45,0,0,1,15.81-12c15-7.9,22.48-6.36,33.72,6.91-2.88,1.13-1.11,3.38-1,5a32.45,32.45,0,0,1-3.53,17.4c-7.4,14.43-17.15,26.9-30.66,36.18-22.78,15.64-41.89,34.77-56.77,58.21-8.91,14-18.61,27.6-28.28,41.14-7.66,10.72-17.46,18.34-31.44,18.47-7,.06-11.32-3.09-13.23-9.74a27,27,0,0,1-.87-11.86C205.79,536.48,206.91,534,204.52,532.2Z"/><path class="cls-2" d="M188.51,269.66c-3-8.76-7.31-17.29-4.56-27,.54-1.92.52-4.13,1.49-5.76,9-15.16,17.79-30.49,34.47-38.93,8.61-4.37,17-9.23,25.46-13.81a70.7,70.7,0,0,0,18-14c15.86-16.81,35.76-18.21,54-5.93,1.66,1.11,3.36,2.16,5,3.22-2.76,2.56.16,4.81.66,7a20.07,20.07,0,0,1-1.54,14.35c-5.61,10.52-12.42,20.06-23.72,25.31-7.51,1-13.39,6.19-20.55,8.13a29.64,29.64,0,0,1-4.57,1.83c-14.53,3.26-25.83,10.61-34,23.53-6.68,10.56-17,17.24-28.59,22.12C202.72,272.85,195.7,273.8,188.51,269.66Z"/><path class="cls-3" d="M204.52,532.2c2.39,1.84,1.27,4.28.92,6.44a27,27,0,0,0,.87,11.86c1.91,6.65,6.18,9.8,13.23,9.74,14-.13,23.78-7.75,31.44-18.47,9.67-13.54,19.37-27.1,28.28-41.14,14.88-23.44,34-42.57,56.77-58.21,13.51-9.28,23.26-21.75,30.66-36.18a32.45,32.45,0,0,0,3.53-17.4c-.11-1.63-1.88-3.88,1-5,5.89,8.78,4.77,17.7.35,26.51-4.85,9.68-11.9,17.51-20.45,24.15-10.23,7.94-21.12,15.11-30.36,24.25-17.69,17.49-30.89,38.19-42.4,60.06-5.57,10.58-11.08,21.21-16.43,31.91S249.19,571,241.52,580.15c-5.55,6.67-13.18,10.17-21.37,11.93-9.44,2-19-5.46-21.43-16.58C195.44,560.45,197.16,545.9,204.52,532.2Z"/><path class="cls-3" d="M195.55,389.69l-.36-.94c-2.5,16.95,11.47,29,27,23.35a31.39,31.39,0,0,0,10.1-6.22c21-18.52,43.39-35.05,67.93-48.7a294.11,294.11,0,0,0,48.13-33.69,82.72,82.72,0,0,0,17.55-20.26c7.86-13.05,11.15-26.91,7.52-42-.45-1.87-1.44-3.84.55-5.48,10.51,8.7,12.46,19.92,9.46,32.52-1.15,4.85-2.36,9.7-3.91,14.44-4.25,13.05-12.31,22.79-25.48,27.55a31.14,31.14,0,0,0-12.11,8.24,109.89,109.89,0,0,1-21,16.81q-13.54,8.47-27.48,16.31a115.74,115.74,0,0,0-24.8,18.25c-13.16,12.84-27.72,23.83-45,30.94-12.62,5.2-22.19.81-26.05-12.38A61.1,61.1,0,0,1,195.55,389.69Z"/><path class="cls-3" d="M188.51,269.66c7.19,4.14,14.21,3.19,21.59.07,11.55-4.88,21.91-11.56,28.59-22.12,8.17-12.92,19.47-20.27,34-23.53a29.64,29.64,0,0,0,4.57-1.83c-.29,1.32-.57,2.64-.85,4-9.11,6.08-16.84,13.78-24.91,21.1-10.59,9.61-21.65,18.64-33.94,26a81.1,81.1,0,0,1-9.67,5.1C196.77,283.18,192.92,281.37,188.51,269.66Z"/><path class="cls-2" d="M110.91,450.11c10.47.43,11.83,1.47,15,10.65,1.52,4.34,3.61,8.48,5,12.85,3,9.51-.23,13.1-10.52,12.07.4-.46.31-1-.26-1.59l-.34.57A67.51,67.51,0,0,1,110.91,450.11Z"/><path class="cls-3" d="M158.35,232.09a43.76,43.76,0,0,1-4.63-.78c-3.43-1-4.06-3.37-1.45-5.78a18,18,0,0,1,4.14-2.73,89.5,89.5,0,0,0,21.94-15.47c2.1-2,4.53-4.89,7.6-2.07,2.28,2.09,1.29,5.22-.32,7.37C178.5,222.17,169.76,229.48,158.35,232.09Z"/><path class="cls-3" d="M270.58,121.29c.13,8-3.49,13.16-9.81,14.31-4.73.85-8-1.61-7.67-6.39.58-7.33,3.53-14.06,6.6-20.63,1.46-3.12,4.86-3.06,7.17-.1C269.84,112.3,270.24,117,270.58,121.29Z"/><path class="cls-3" d="M297.81,214.12c11.3-5.25,18.11-14.79,23.72-25.31a20.07,20.07,0,0,0,1.54-14.35c-.5-2.21-3.42-4.46-.66-7,11.08,14.2,7.35,33.37-8.24,42.46-2.28,1.33-4.53,2.71-6.8,4.07Z"/><path class="cls-2" d="M142.94,548.28c2.9-.46,6,0,6.09,3.32.19,7.36,2.47,14.35,3.09,21.6.42,4.9-1.61,7.72-7.09,6.51C141.21,569.44,136.27,559.24,142.94,548.28Z"/><path class="cls-2" d="M130.15,224.34c1.26,1.52,2.87,3,2,5.23-2.48,6.45-4.64,13.08-7.8,19.19-3.72,7.2-5.48,7-10.43-.26a2.1,2.1,0,0,0,2-1.69A38.85,38.85,0,0,1,130.15,224.34Z"/><path class="cls-2" d="M104.43,333c1.63,1.16,3.81,2.39,3.59,4.45-.77,7.2-.74,14.84-3.36,21.37-2.32,5.8-5.48.33-7.91-1.74l0,.27-1.92-2.14c2-1.2,1.35-3.4,2-5.11C99,344.21,98.57,337.16,104.43,333Z"/><path class="cls-3" d="M130.15,224.34a38.85,38.85,0,0,0-14.22,22.47,2.1,2.1,0,0,1-2,1.69c-1.57-9.75,3-17.3,8.93-24.16C124.72,222.2,127.75,219,130.15,224.34Z"/><path class="cls-3" d="M110.91,450.11a67.51,67.51,0,0,0,8.92,34.55c-10.74-8.62-12.44-20.34-11.18-33C108.71,451.07,110.12,450.62,110.91,450.11Z"/><path class="cls-4" d="M142.94,548.28c-6.67,11-1.73,21.16,2.09,31.43C134,573.6,131,557.7,139.26,549,140.29,547.88,141.63,548.05,142.94,548.28Z"/><path class="cls-3" d="M104.43,333c-5.86,4.21-5.41,11.26-7.62,17.1-.65,1.71,0,3.91-2,5.11-3.8-7.92,0-15.09,2.6-22.13C98.94,329,102,330.3,104.43,333Z"/><path class="cls-4" d="M297.81,214.12l9.56-.15-31,12.24c.28-1.32.56-2.64.85-4C284.42,220.31,290.3,215.15,297.81,214.12Z"/><path class="cls-4" d="M91.71,509.6c3.91.29,2-2.83,2.6-4.46q5.1,11.6,10.21,23.21C97.63,523.61,94.37,516.79,91.71,509.6Z"/><path class="cls-4" d="M334.37,150.06l-2-3.94-.12.11c1.41.93,1.64,2.47,2,3.94Z"/><path class="cls-4" d="M332.4,146.12c-1.66-.9-1.58-2.62-1.93-4.14l-.11.1c1.32,1.07,1.62,2.61,1.92,4.15Z"/><path class="cls-3" d="M120.17,484.09c.57.59.66,1.13.26,1.59C119.83,485.15,119.75,484.62,120.17,484.09Z"/><path class="cls-2" d="M72.23,425.3a3.59,3.59,0,0,1-1.92-3.3C72.08,422.44,72,424,72.23,425.3Z"/><path class="cls-3" d="M96.73,357.3l0-.27Z"/><path class="cls-4" d="M334.26,150.17l.78.35-.67-.46Z"/></g></g></svg>